<mxfile host="app.diagrams.net" modified="2023-10-30T17:13:27.606Z" agent="Mozilla/5.0 (Windows NT 10.0; Win64; x64) AppleWebKit/537.36 (KHTML, like Gecko) Chrome/118.0.0.0 Safari/537.36 Edg/118.0.2088.76" etag="0UJhc1a31cQeNXTAZi3x" version="22.0.8" type="device">
  <diagram name="Page-1" id="zsiAy-7bBqa9Tdx1LHNv">
    <mxGraphModel dx="746" dy="502" grid="0" gridSize="10" guides="1" tooltips="1" connect="1" arrows="1" fold="1" page="1" pageScale="1" pageWidth="850" pageHeight="1100" math="0" shadow="0">
      <root>
        <mxCell id="0" />
        <mxCell id="1" parent="0" />
        <mxCell id="_tkoBfJF8qYOiKieuXjx-1" value="" style="image;aspect=fixed;perimeter=ellipsePerimeter;html=1;align=center;shadow=0;dashed=0;spacingTop=3;image=img/lib/active_directory/windows_server.svg;" parent="1" vertex="1">
          <mxGeometry x="310" y="179.02" width="91" height="110.98" as="geometry" />
        </mxCell>
        <mxCell id="_tkoBfJF8qYOiKieuXjx-2" value="" style="shape=image;verticalLabelPosition=bottom;verticalAlign=top;imageAspect=0;aspect=fixed;image=data:image/jpeg,/9j/4AAQSkZJRgABAQAAAQABAAD/2wBDAAsJCQcJCQcJCQkJCwkJCQkJCQsJCwsMCwsLDA0QDBEODQ4MEhkSJRodJR0ZHxwpKRYlNzU2GioyPi0pMBk7IRP/2wBDAQcICAsJCxULCxUsHRkdLCwsLCwsLCwsLCwsLCwsLCwsLCwsLCwsLCwsLCwsLCwsLCwsLCwsLCwsLCwsLCwsLCz/wAARCADtAdgDASIAAhEBAxEB/8QAGwABAAIDAQEAAAAAAAAAAAAAAAYHAQQFAwL/xABPEAACAgECAwQGBgIOCQIHAAAAAQIDBAURBhIhMUFRcRMiYYGRoRQjMlJysRXBM0JTYmNzgpKisrPR4fAWJCU0Q1RktMI1o3SUw8TS0/H/xAAaAQEAAwEBAQAAAAAAAAAAAAAAAwQFAQIG/8QALhEAAgICAQIFAwMFAQEAAAAAAAECAwQRIRIxBRMyQVEiYXEUM0IVIzRDkVKx/9oADAMBAAIRAxEAPwC3AAAAAAAAAAAAADztuooi53W11x8bJRivmcb0Ox6A5FvEGkVb8tk7Wum1NbfzlsvmaNnFME/qsObXjZbGPyin+ZXnlVQ7yIZX1x7skoIlPijNf2MWiP4pTl+Wx8f6T6l304vwt/8AyIXn0L3I/wBVV8kwBE48U5S258Sl+PLZOO/lumbEOKMdtemxLoLxhOM/7j2s2l+51ZNT9ySA5VOvaPdsvT+jk+66Mobe/bb5nShZXYlKE4yi+xwakviixCyMvS9k6mpdmfYAJD0AAAAAAAAAAAAAAAAAAAAAAAAAAAAAAAAAAAAAAAAAAAAAAAAAAAAAAAAAAAAAAAAAAADwysrGw6ndkWRhDsSfbJ+EYrq2cbSW2cbSW2exzs3WNPwuaE589y/4VPrSX4mui95HdQ17Ly+evH5sfHfT1XtdNfvmuzyOP/nf/FmTkeIqP01csz7cxLiHJ2MviDUr940uONB90GpWbfjf6kcmc7LJOdk52TfbKyTlL5nyDIsvst9TM+ds5+pgAEJEAAcAAAAPuq7Ix25UW21S7N65OO/u7D4B6jKUezPSfSd3E4kzKuWOVCN8O+UdoWL3djJFh6lgZyXoLY8+27rl6ti84sgBlOUWpRlKMk04yi9mmvBmjT4hZDifKLleXKHq5RZRkiWn8RXVctWcnZDsV0V68fxolNNtV9cLapxnXNbxlF7po2qb4XLcWaddsbFuJ6AAsEoAAAAAAAAAAAAAAAAAAAAAAAAAAAAAAAAAAAAAAAAAAAAAAAAAAAAAAAAAMBnN1XVK9Oq6JTyLE1TXv0/HP2I8TnGEeqR5lJRW2fWp6pjadD1vXyJreqlP1mvvS/ekLysvJzbXdkT5pvflS+xBfdhHuPO226+yy66bnbY95yb6v2eXgj4Pm8rMlc9R7GNfkStel2AAKJUAAAAAAAAAAAAAAAAAABuYGo5en2c1UnKpv6ymW/JLyS7GaYJK7JVvcT1CcoPaLBwc7Gz6VbTL2Ti/tQl4SNsrvEzMnBuV1EnzLpOL+zZH7skTnAzaM+iN1T27rIP7UJ7dYtfkfRYmUrlp9zax8hWrT7m2AC+WgAAAAAAAAAAAAAAAAAAAAAAAAAAAAAAAAAAAAAAAAAAAAAAAAAAAGDD7HvtsAa2dmU4OPZkW93qwj3zm+yKIFkZF2VdZkXPeyx7vwS7or2I3dY1CWflPkf8Aq1DcKVv0k++z393kc0+czsnzZdMfSv8A6Y2Vf1y6I+wABmlIAAAAAAAAAAAAAAAAAAAAAAHvPFvqxsXJmmoZMpqtNdUopdX+LtXkelFyW0elF62eBt6fnW6fkRugm4PZXQ+/D2e3vRqA7CcoS6kdhNwfUix6Lqsiuu6qSlCyKlFrvTPUiHD+o+hu+hWy+qubdLf7Wz7vk+7yJcj6nHuV0FI3abFZHZkAFkmAAAAAAAAAAAAAAAAAAAAAAAAAAAAAAAAAAAAAAAAAAAAAAAABxOIc14+J9Hre1uVvDp+1qX237+z3nbIBqmW8zNybU/q4y9FSn+5w3Sa8+r95RzbvKq/JVyrPLr/JpeHh2de4AHzL+WYncAA4cAAAAAAAAAAAAAAAAAOgANpdr27vidrTNBvynG3NjKrH6ONT6W2r98u6P+e8mpplbLSRLXXKx6ieGkaVPUbFZZHbCrkuaX7s0/sQf3fE73EGPGWmylFJPGnVOKXdHfkaXxR16666oQrriowhFRjGK2SSXYj4y6vpGJlU/utNkF5uOyN+GLGupwXdo140KFbj7ldf4fADrsvLr7gfNSXLMN8NobyWzj9pNOPskuqZPNJzFnYdNu/1kd67l3qcej+Pb7yBnZ4ey/QZv0ebfJlxcV4KyCbT+BoYF3l2dL7Mu4lnTPXyTMAH0hsgAAAAAAAAAAAAAAAAAAAAAAAGDXlm6fGUq5ZeLGcWoyhK6tSUuxJpvf5Gw/AqrVdO1OzV9SnHT82VdmpTlCyONY4yg716ykumxWyLnSk0t7I7JOOuC1V1MnyuxH0TpkgAB6AAAAAAAAAAAAAAABz9Xyfoun5Vi+1KHoq1++s9Uga8PDo/PvZJuKb+mDjJr1pWXz/krkj+ciMnzviVnVZ0/Bj5s9z6QADMKIAAAAB0AGYRssmq6q52WPshXFyl8jq4/D2r3reaqx4vqvSScpfzYf3ktdNlj+hbJI1Tn6UckElhwr0+tzZN/wAHXGK/pNnouFsX/nMnfyr2/qllYFz9idYlr9iLAlP+i2N3ZmR71W//ABPl8LVd2bb/ADKzv6C/4O/pLPgjAJQuFsfpzZl/t2Va/UbFfDWlQac/T2+KstaXwhsdXh1r7nVh2Mh+66Lq2+iUU235JdTo4mi6pltP0foKn2zyFKLaa7Yw7WTHHwMDF2+j49Vb8YxXN75dvzNku1+GxXNj/wCFiGFFepnKwNDwMFqxr0+Qv+Lal0/BBeqjqmQacIRrWorRfjBRWooBgEh6K6zKvQ5eZUl0ryLkvLmbPA6WuQ5NUzPCforF/Kgl+o5p8hfHpskvufPWrU2DMZzqlC2DanXONkNvvRakjAIk+l7I09PZY2PdC+mi6D3jbXGcfKS3PY4vDd3pdPVbfrY9tlT/ALRfmdo+vqn1wUj6KuXVFMAHzOUYQnOTSjCLlJ+EUt2yVnsSlCEZTnKMYxW8pSaSS9rfQ5tmv8O1S5Zanicy7eWfOvjDdFeatq2oa9mKuv0kqJ3eiwcWtvlfVqM5rscn2vwXkdKjgfV7IKV+XiUSa39HGE7nH2OScUZLzrJyaohtIrO6UnqC2TKvXuHrPsanh+TtjH+tsb1WRjXrem6q1eNc4z/qsgNnAurL9jzsKf8AGV2Q/Lc8sfhPiHFzcCx1486qsvHstnRfy7QhZGTe0kn8jscnITSnX/w6rLN8xLIPhzhFpSlFNrslJJ7eOx9eBXPG/XV8deGDX/aTZbyb/IrdjRJZPoWyxU0+qaa8U9/yPG3LwaHy3ZWPXLwtthF/CT3KxxsvifOxsfTtOWVLGxoeh5cJeji+u7dtzklv7/8AHZhwZxHYnOcMKEn15bL5zm37XGDXzKf6+c1uqtsiVzkvpiWRVfjXLmpuqsj41TjNfGLPUqHJwdY0S+t2xtxbd/qraJ+rPbtUZx7feTrhfXJ6rRbRktfTcXl9JJLZW1y7LFH5Mkx85Wz8qa0zsLlJ9LWiSGAVjxTlZ0Nb1SunKya4qFChGu6yEU3RDfblaLGTkRx4dckSWTUFtlngheXxjjYtFGPgV/SsiFNUZ3WuUaIyUUn27Sk/Hs/URfJ1fiLV3ZWsjLvclJKjBjNV77bJOFK/NlezxCqGlHl/Y8O+K4Lb8B09hqabCdWn6bXZFxnXh40JxnvzRlGuKalv3ldZGra0tXvqhqOYq/0s6VBXS5VX9J5eRR7Owlvyo0xi5Lue52dKTZaIMLsIrxjn5+DVpbw8iyh2XXqx1tLmUYJpPdE9tqpg5y7I9Skox6mSswVtjcYapiYc6ZtZGXO+clkZck4wg1HaEYVpb7eZ4S1DjXUfXg9VlB9n0WmdFe3scEt/iUf6lW1uCbZD58WuC0DJU0tS4pwLIemytTolv6scv0rjLbu5bVs/iTHhriOepylh5ihHNhB2QnD1Y3wXRtR7mu9HunPhbPy2mn9zsL1J6fBKADT1HUMTTMWzLyp7Qg4xio9ZWTl2QgvF/wCewvykoptkzeuWbhgrfL4y13JsUcONeNGW/o66qvpF8l4tyT9+0EeX6W46r+slLU1FdW5Ye8NvJ1bGdLxGrekmyD9RHfHJZwK1q404hgnGX0S1rpvZRJSXmq5JfI+v9ONb32cNPT9tdv8A+w5/U6O3P/Dv6iBZAOXoGfkanpOBnX+j9LkRnKXok1DpOUVtu34eINKL6kmiZNNbI9xDb6TU5w7qaaq/j9Z+s5BvavLn1PUX4Xcn82KRonymTLd0jAue7GAAVyEAAAdO86ml6NkahtbY5VYm/SW207du3kT7F7T50bTP0hkSlYn9Eoa9J/Cz7fR+XiTiEYwUYxSUYrlSS2SS7EjWwsNT+ufY0MbG6vqka+JhYeHBQx6YVrvaXrSfjKXazaAN2MVFaitGqkktIAA9HQAAAAAAAAADDOdqeTKP0fBpf+s58/RRa6uuldbLWvYt9vM42lycb0jfrsjZCM49Yy7H49x9nzCMYQhCK2jCKjFeCS2R9D2OohnEkdtRhL7+NW/hKSOMdzif/fsb/wCG/wDqSOGfL5q/vyMLJ/cYH/8AAOzr4FQrEi4Wt2sz6fGNV0fnFkqRDOG5uOpTj3TxbPlODJmfS4Et0o3MV7rBp6opvTNVUPtvCylHbxdUtjcMNJpppNNbNPsaZdkuqLRZfJVHDWRi4utaddkSjClRuqU5NKMZ2Q5Y7t+PVe8taL32aaafVNPoyvtX4Pz6bbbdMisjGm3JUOUY3VbttqLm0nH3nGhkcSaT6qlqWJGPZGyNvol/OTgYVF08PcLI8b7lOEpU7jJcFuArTF4012tr0rxcqC235ock/wCdU0vkSvR+KNP1WyOPKE8bLkny1WSUo2bJt+jmtt/gjRpzqbXqL0/uWI3RnwiQFbcav/bMP3uDT85TLJK140f+2pezCx/m5sh8U/x3+Uecj0Ex4YSWg6Nskt8aLe3i2+p2Tk8NrbQtGX/SV/PqdYvU+hfhEsPSjl69gwz9Kz6ZRTnGmd1L7421xcotefZ7yv8AhbJdGuads2o5KtxprxUoOcU/ei0preM0+xxa+RUWi9Na0Tb/AJ+tLw29ZGVnJRurmu5WuX1xZbxVXFUttc1eX3XV8qIFq/4FT8UPfWta/jIr4UwR78W5qj+TuT6ESrSuDtLjVTfnylmWThCxVy3hjw5knsoRe798mSmnHx8eEa6Kq6q10Ua4RhFbeyIxly4+OvCqtfCKPUv00wrj9KJoRUUtIyVBP1tb89aX/dblvlQV+trVPt1mP/dbmf4p/r/JBk+xbyIVx49oaKv4TLf9GBNSE8ePpoi/fZb+VZa8Q/xpkt/oZ6cFYODZhX5lmPTPJ+l3VK2cFOShCMdoxciZf5/zsRfghbaPa/HOyn84olJJhxUaY6O1L6Eaudh42fjX4uRBSrtg4vdLeLfZKPtXaVZpU7MHWtNbe06dQjjWPx5pOifue5bpUOWttcyNu7Wnt/8ANFHxFanXNd9kd604st3fp09xX3HGVKzPw8Td+jxsf07W3/EtbW/uS+ZYK7EVvxrVKGrwsf2L8OrZ/glKLJ/Em/070dvf9sknCGm4+NpeNmOEXlZ0XdZY0nJQb9StPwS2JJscXhfIryNE03la5qKljWx742VPkafw3O2y1jKKqj0/BLXrpWiF8a6biqijUq4Rher66L5RSj6Suak057d6fZ5jgm+OTjZ+HfCuf0WyuVTnCMmq7k24dfBp/E2eNr6oabj4za9JkZUJRjv19HUpSlL8viaXAVUm9ava9XmxaE/GUYynL80ZjilnfT8Fd8XcE2hCEIqEIxjFdFGKSS8kgfQNstleah/v+pe3Kv8A67NY3NTjy6jqS/6myXx6mmfIXfuS/J87b62AAREYG0nsoJucnGMEu+Unsgb+j1K7VMGMlvGEp3yX8XF7fPYkqh5k1EkrXVJImOn4kMHEx8eG3qQTm/vTfWUn5s3DBk+tjFRSS9j6FJRWkAAezoAAAAAAAAADBrZmZjYVMrsiajFdIpfanLwijjaits42ktsxm5mPg0WZF8tox6Qj+2nLujFeJzNEqvyrMjWMpbW5P1eNB9VXjp93n+r2nJrjmcQ6hvdvHEpadkYt8lcN91Ul96Xe/AmMIxhGEIpKMUoxS7FFLZIqVyd0uv8AiuxBBu19Xsj6DALhYIdxNLfPoj93Fi/jOZxDqa/NT1TIS/4VdNfl6vM/zOWfKZT3dIwch7tYABWK51eH/wD1Wn+Iv/8AEm5CuHY76pF/cxrn8ZQRNT6Pw79k2sP9sAHxdbGmq66e/JVXOyW3bywTk9tzRb13Lh9mGk11SZHqeMeG7UnK+6lvrtdRZ+dfMvmbsOIeHbFvHU8T+VPlfwlsyv59T46keOuPyZzdD0XPjJX4dLm09rIRVdsX4qcNnuVjnVWaVqOTVVY3ZgZalTNfafI4zju/zLFy+KeHsauco5cMixJuNeMpWSk/DmS5V72V5FZWt6tGHL9fqOXzzSW6qr35py8opdv95kZ7rk4+Xpy37FW7pbXT3LdhNThXNdkoqS8mtyteMn/tu32YmMv6zLLikkkl0SSRWXGDb1zL27fo2Ml5uHsLPif+Pp/KJL+Ick74fXLomir/AKLH+cEzqHD0PUdL/Rml0rNxfSVYePCyDurU4yjWk04t7nVlk4kIuU8iiMdt+aVtcVt5tl6qSda59kTQa6UYzLlj4mbfJ7KnHutf8iDkVbw7U7dc0SO/2LpXPyrqmyRcT8R41+PZpun2K300lHJur61qEXv6OEu/fvfh59PDgfAnZlZWpzjtVTW8XHl2c9kmnZJexbbGVkzWRkwhDnRXnJTsSXsT8qTiV76zrntv2+EIItsqLiF76zrPtzJR+GyJvFf24/k9ZHpRbVK2qpXhCC+R9nxUtq614QivkfZqx7IsR7AqHFW+t4ft1ev/ALgt4qHT/W1vTfbq1b/91syfEu9f5K2T7FukH497dEXh9Nf9kTggvHj+u0ZfweW/nWWPEeMaR7v/AG2dTglbaL55uW/6RJyNcFLbQ6vblZb/APcZJSfF/Zj+CSv0oFQ3+trtvt1r/wC6TLeKh+1rsfbrUf8Autyh4n/r/JBkexbvccXiHRY6ziwjCUYZWPKU8eck+VuXSVc9u6XT4HaXYc/W8q7C0nUsmn9lqol6N/dlJqHN7t9/caVsYut9XbRYlpx5KxxszV9Hyr68S+Vd8bJ1X11bXV2Tr6P1dmm14pHSfGHE3K1zUqXZusR8/wA+nyPvguqiesWTtknZVh2OhSaTlKcoxnJLt3S6e8sjlXgl7jEw8edlfVCxpfBTqhKSenpFUxwuJ9dyFZKnKtsklH6RmQlTRXFPfpzJdF4JP5ljaNpdOkYNGHXJzkt7LrGtnbbPrKbXdv3L2ew6I8DTx8SNDcttt/JYrqUHve2ZABeJiC67W4aplN9k1VZH3wSf5HNJBxPTy5GHf3WVTqfnCXN+sj58rlx6LmvkwcmPTY0AAVCuDr8N7fpNb/8AK28v86JyDf0a5UanhSk9ozlKmT/jE0vnsWcZ9NsWT0PViJ6AgfVo3wADoAAAAAYAMM1cvPwsKPNkXRi2t4w7Zy8orqRrO4hy8hSrxE8ep9s+jukvDddF7itdlV0+pkNl0K/Uzt6lrGJgJwW1uTt6tUX0j4Ox9yIslqWt5qTnvY0t5pbV49b7XFfl7T4wdPy9Sscad1BS3uyJ7uMX2vaT6uRNsHBxsCiNOPDZfanJ/anJ9spPxKMVZlvc+IlWPXkPcuImcHDowcevHpjtGPVt9spPtlL2s2gDVSUUki+kktIGG0k2+xLdg5mt5SxdPv2f1l6WPWvFz+0/huebJ9EXJnJPpTZDcu76RlZV+/S26ya/C3svyPEdy/z7wfIzl1Sb+T52T6pOQAB4PJ3+GK28vMt7oUQhv7Zzcv1EtI/wvS44uVe1t6fIaX4a1y/nuSA+pwo9NMUb2NHprSB5ZFMMii+ibkoXVzqk4vaSjOLi9n4nqC20mtMnZC7eA8bd/R9SyYLuV1ddm3vjys07OBdT7K9QxJLuc6bIv38smiwAUZeH0Se+kidMH3RAKuBM9tem1KiEe9UUSnL3OckvkSjR9A0zR1KWPGdmRZFK3IvfNbNdvKu5L2JI64PdWJTS9wjyeo1RjykCruLmv07m79ioxf7NMtEqzi5/7c1P2VY39iir4r+yvyR5PoPevg7WMjHxsmm7CsjkU1XxjZ6SucVZFT26KS7/ABPlcG8Sb7OrBS8XkSa/qblg6WttM0peGFi/2UTdEfDaZR3zz9ziog0myBYXAuRKUZalmQVafrU4alvOPfGVk0n59Cb42PjYlNWPjVwqpqioVwgtoxS7kewLtONXQvoRNGEYdkY8SA6pwnruZqOflVPC9FkZTthz2zU1ByTe6VbXd4k/B6uojckpHZRU+58xTUYp9u3U+gCZLXY9GH2FdYHDPEVGqafkW4tKoqzoXTksiDcYKTluorqWMCvdjwuacvY8Sgp62Y/wIhxdpWr6ldpssLGd0Kar1a1ZVDZylFpbWSXgS8yeralfX0S7M7KKktHE4Xw8zA0jHx8ur0V8bciUoOUZbKVkpLrFtfM7YB7hBQior2EUorSMFY1aPrq1mm6enZSp/SyulPlXIq/T8/O3v4FnjYivx4366vY8zgpdzC7Dka9qem4GFbDMi7XlQnTXjQ29Jfutnsm+i9p1yquKMi3J1nUuaTSonHFpX7nCEUunm237yHNu8mrj34OWz6Imlhadqee7JYGLdbGl9ZVzUVF90VZNx3fl4G+8PjWrZRo1lJdirtnLbu/a2Fk6fh4+BiYuLjwjGumuMUorbd7dZP2vtNoq1+GpRT6mn9iGOPxyyqp5PGOGue63WqYrtlb6ZwX4nJOJ2tE4uzXk4+JqbhbXfONVeTGMYThOXSKsUdo7Poui7ydSjGUZRkk00001umu9PcqDWqa8PU9WpoiowpybJVRS2Ud2pqKXgQ3wsw3GcZtr7nJxdWmmXAD4pk500yfbKuEn5tIG31e5b78nK4ix3fp05xW8seyNyS+79mX5kM7evmWTbXC2uyua3hZGUJLxjJbMrq+mePffjz+3TZKD9qXf+XxMfxOvUlYjMzocqaPMAGOZoG7TTT2aakn4NPdM+q67brK6aYOy2x+rCO2/Tve/cdmPDOpOClK/GjLbfk2m0nt2cyJq6LLOYLZNCqc+YokGk6hXn40Jdl1aUb4PtUtuj8n3HRK/a1LSMlb81N6XTZ80LIdj69jR0pcT5+yUcfGUtlu5Oxpvy3X5m1VnRjHpt4aNKGVFLVnDRLgQmfEOsz6qyqH4Kl/5tmpPUtWt+3mZD/DPkXwgJeJVLsmw82tdifTsrgt5zjFeM2kvmadur6RT9rLpfsrl6R/CG5A5OU23OUpt9rnJyfxbPnou9Igl4m/4xIpZz/iiW3cT4Ud1RRda13y2rj8938jkZOv6rkJxjOFEOxqjpJ+c3u/hsc+jHy8npj491u723hHaPj1m/V+Z2MXhrNtcZZdsKI98K/rLNvxdIr5kfm5WRxHhfY8eZfdwjhbzlPrzTsnL2ysnJ/M7un8PZN/LZnb1VdGqYv6ya8Jy7iQ4Wl6fgr6ipc7XrWT9a2XnN9TdLVHh6i+qx7ZPViJPc2edNNNFcKqYRhXBKMYxWySPUA1EklpF7j2AAZ06Yb7fZ3kG1nPWdlvke+Pj710vuk39qfv7vI6Wt6zGaswcSa2e8ci6L6bb9YQf5sjf+fFGFn5Sl/bh29zLy70/oiAAZBmgw3sm/BPbz7jJu6Ti/S9Qxamt665fSLX+9re6Xx2PdUPMmoo9wj1tImWmY/0XBw6H9qFUef8AG/Wl82zdMLp0Mn18I9MUvg+hiulJAAHo9AAAAAAGCquLpRet6vu/swoT9n1ES1j4cISe7jF+aTKuTj+fFR3ojsh1rR4actsDTl/0mP8A2cTaMewyWIx0kvg9pa4AAPR0AAAAAAAAAAAAAAAAAAwyr+LMK3G1fKscWqs7lvpkl0c9kpxXtT6+8tE1M3AwdQqdGZTC2ptNKXbF+MZLqviVMvH/AFFfQu5FbBzjpEb0rjDTZUU06i50X1wUHYoTsps5VspKUd5bvv3R2FxJw1Jb/pLH/lOSfwaOLfwJp8nvi52VSvu2KF0V5bpP5ms+A7N1tqq29uKt/wC0KcZ5lcdOKZGnbFa1s6ubxjoWPXP6LOeXfs+SFUJRhzdylOaS2+JB8PGy9d1aNbTnPJyPpObYlvGunm5pOXn9mP8AgSqngTDTTydRyrFuvVpjCleW/V/Mk2n6Zp2mVKnCx4VRb3m1u52S+9Ob9ZvzPLx8jJmndpJHOidj+vhG2kkkl3IH0DX47FpcGGRfiXCanVmwXSW1V+3il6kn+RKTxyaK8mi6ixbwtg4S/U15dpFfUrYOJFbBWQaK5H+fP2Hrk41uJfdj2/aqltv3Si+sZI8j5OcHFuLPn3Fx3Fkk4Wprbzr3s7E66YvvUNubf3/qJP3EE0rUZadfKck5U2pRuiu1bdk4ksjq+kTr5/plCXhKW0l5wfX5H0GFdX5XTvTNnGsi4aNPiSquen+kklz03Vut9/rPlaIednW9WhnOFGPv9Grlzym04uye2yaT7kcdNJ7uMZJftZdU/NGZnWQnbuPJQypxnZtH1VTkZDcaKbbWuj9HByS85di+J0qdA1KzZ3TxseP8JYpz2/DDp/SNCeVlzjyu6agklGut+jrSXhCOx4vd9W237Xu/mQQlVH1LZFGVa7rZJ6eHNPW3p8yy1vurlCuPy3fzOpRpGj473rxanJftp/WS+M22QPZeB9KUl2TmvKUl+RcrzKodoFmOTXHtAslKK7Eku5JGfgVzHIzI7cmTkLw5brF+TPWOo6rHszcn32N/mWl4nX/5J1nQ+CwQQNaxrKXTNt96g/m0P0zrX/O2fCH9x7/qVXwzv62HwyefAxKUYpuUlFLtbey+ZAJ6nq0/t5uR/Jm4/wBU1pztte9tlk33uc3L82Ry8Th7ROPOj7Im2Vrmk4269MrZ90Mf13v4Nr1V8SOZ+u52apV1p0Y8ujhXLec1++n/AHHK7OxAo3Z1lq0uEVbMuc+FwOmy2935bdQAUe5UAAOHAS7hvC9BiyyrFtbmOMo79qpjuoL39X7yPaZgy1DLrpf7DDa3Ia7FBftPOXeT2KjFRjFJRS2il2JLobPh1HPmM08Kr+bPoAG4aYAAAAAAAAAAAAAAAAAAAAAAAAAAAAAAAAAAAAAAAAAAAAAAAADAAOLrmmPMqV9Mf9Zoi+VLtsh2uH617SG+zv8AB93j8Oxll+JF9d0hxc87Fhum+bIrit9n+6RX5mRn4vWvMiZ2Xj7+uJHAPauzufiDC3rhmX2AAOHAAAAAAAAAAAAAAAAAAAADoBmMLLZQqqi52WSUIRXfKXQx13WybbaSjFbuTfRJe19xL9D0f6JFZeTFPLsjtFbb+hg+vKt+/wAS1jY8rpfYsUVO2Wjc0rT4adixr6O2b575pfam/wBS7EdEA+nhFQSijcjFRXSgAD2egAAAAAAAAAAAAAAAAAAAAAAAAAAAAAAAAAAAAAAAAAAAAAAAAAAAYfY99tjIAItrGhyi55WDD1XvK6mPc++da/NEbXv9/QsxnD1PQqcpyvxnGrIfWS2ars/El3mRl4PV9dfczsjE6vqh3IgD0upyMeyVORVKuyPXaXZJeMZfZa8jzMOUXF6a0zLaaepAAHk4AAAAAAAAdAABwAAHQDMYzlKMIQlOc5KMIQW8pSfYkj2xMPLzrPR4tfNs0p2PpVX3+s0TDS9GxdPXpP2XKktp3SXZ7ILuRcx8Odz2+EWqcaVj2+xqaNoixXHLykpZO29cO2FKfh7fE75kH0dVcao9MTZhBVrUQACU9gAAAAAAAAAAAAAAAAAAAAAAAAAAAAAAAAAAAAAAAAAAAAAAAAAAAAAAAAAAAGvk4mLmVuvIqjOO+63XWL8YtdSM5vDeTU3PDl6aG/7HZsrIr2S7GS4Fa7Hrt9SIbKYWd0VrZXbVN121zrsXbGyLi/dufJY1+NjZEXC+quyL7pxT2+JxsjhnAnu8eyyhvu354e6MuvzMq3w2S5rZn2YUv4MiQOzdw3qlfWudFy9jdcn7n0+Zo2aZq1banhXvbvhFWL+g2UZ41se8SrKiyPdGoD1ljZkH6+LlLzpt/uPPln19SxtdyhPf4bELrku6I+iS9jAPWONmz25MTKlv3qmz+496tK1i17RwbUvG1wrXwlLc9Kmb7JnpVSfZGmDuU8M6lPZ3XUUp9qgpWy+eyOrj8NaXVs7vSZEl1+ul6m/4Y7L8y3XgWz78fknjiTl9iJU0ZOVLkxqbbZb7PkjvFfik+iO/hcMt8tmoWJ9j9BS3y+U7O1+4ktdVVUYwqrhCEeijBKMV7kehp0+HwhzLll6vEjDl8nlTTTRXCqmEIQikoxgkkl7j1ANFJJaRc0lwgADp0AAAAAAAAAAAAAAAAAAAAAAAAAAAAAAAAAAAAAAAAAAAAAAAAAAAAAAAAAAAAAAAAAAAAAD4AADbyG3sQA0Bt5AAAAAAAAAAAAAAAAAAAAAAAAAAAAAAAAAAAAAAAAAAAAAAAAAAAAAAAAAAAAAAAAAAAAA//9k=" parent="1" vertex="1">
          <mxGeometry x="313" y="285" width="99.58" height="50" as="geometry" />
        </mxCell>
        <mxCell id="_tkoBfJF8qYOiKieuXjx-3" value="Script" style="html=1;whiteSpace=wrap;strokeColor=none;fillColor=#0079D6;labelPosition=center;verticalLabelPosition=middle;verticalAlign=top;align=center;fontSize=12;outlineConnect=0;spacingTop=-6;fontColor=#FFFFFF;sketch=0;shape=mxgraph.sitemap.script;" parent="1" vertex="1">
          <mxGeometry x="620" y="210" width="130" height="80" as="geometry" />
        </mxCell>
        <mxCell id="_tkoBfJF8qYOiKieuXjx-4" value="" style="shape=image;verticalLabelPosition=bottom;verticalAlign=top;imageAspect=0;aspect=fixed;image=data:image/jpeg,/9j/4AAQSkZJRgABAQAAAQABAAD/2wBDAAsJCQcJCQcJCQkJCwkJCQkJCQsJCwsMCwsLDA0QDBEODQ4MEhkSJRodJR0ZHxwpKRYlNzU2GioyPi0pMBk7IRP/2wBDAQcICAsJCxULCxUsHRkdLCwsLCwsLCwsLCwsLCwsLCwsLCwsLCwsLCwsLCwsLCwsLCwsLCwsLCwsLCwsLCwsLCz/wAARCAEOAPMDASIAAhEBAxEB/8QAGwABAAEFAQAAAAAAAAAAAAAAAAUBAgQGBwP/xABPEAABAwMBAwUKCQcLBAMAAAABAAIDBAURBhIhMRNBUWGRFCI1cXJ0gaGxsjIzNkJSVXWz0hY0U2KStNEHFSNUc4KToqPBwyVE4fAXQ0X/xAAbAQEAAgMBAQAAAAAAAAAAAAAAAwUBAgQGB//EADcRAQACAQIDBQUGBAcAAAAAAAABAgMEEQUSMRMhQVFSFCJhcZEGM4GhseEVFsHwIzI0U1Ri0f/aAAwDAQACEQMRAD8A62iIgIiICIiAiIgKhOMnmHHP+6qta1bXSU9LBRxOLXVjn8qQd/Ix4y3+8SM9QI51JjxzkvFY8UeXJGOk2nwLhquip3Pioo+6pGkgyF2zAD+qRvd6MDrWv1Gp7/MTs1DIGn5tPEwY/vP2netRUENRVTQ01PGZJ5nbEbBuycZJJ5gOJK2QaMrOR2jcIOXxksEL+Tz0cptbXp2fQrbs9Pg2i/X4qntNRn3mvT4NdnrrhU/nFVUSjokkc4dhOFiFe9VT1NHPLTVLCyaM4c3OQecOaecHiFjldtdtvd6OK2+/vdQkqjZJYyHRvcxw3gscWkekKhKtJWWISUN/1DBjk7jUHHNMWzDxYlBU7b9aytcyO5wNcw7jUUrSHN63xE4PoI8RWnEq3Kgvp8d474dFM+Sk90uz09RT1UUc9PIyWGVu1G+M5a4f+8V6rmGmbzJba6Knlee4a2RkUrSd0UryGslb6cB3Uf1V09UufDOG2y5wZoy13ERFAnEREBERAREQEREBERAREQEREBERAREQFo2snHu+ibzCjBHjdK/PsW8rRNZH/qNH5i372Rdmi++hx637mXlpJ8Lbu4PwHyUczICfp7THkDrIB7Fv65A1743skjc5j2OD2OaSHNcN4II51M/lXqARcly0O1jHKmFnK/g/yrr1Oltlvz1lx6XVVxU5bPfWUkLrnA1hBkjo2NmxxBL3Pa09eDn0rWSVdJJJK+SSR73yPcXve8lznOO8kk715krtxU7OkV8nHlv2l5t5hKtJQq1SNBWlVJVuVhlZISGPwSDsOII4ggLtdHI6akopnfClp6eR3jdG1xXE5D3knkO9i7RbfB1r8ypPumqt1/Sqy0HWzLREVUtBERAREQEREBERAREQEREBERARFh19xordDy1VJsgkiNjRmSVw5mNWYiZnaGJmKxvLMRaLV6uucpcKSOKmjz3pcBLLjpJd3n+VRjr9fycm4T/3eTA7A1dtdDknr3OK2uxxPd3umrW79YKy7VcFRBU08TY6cQlsrZHEkPc7I2d3OtTN+v8A9Y1Paz8Kp/P2oPrGp7WfhU2PSZcduasxuhyavFkry2iUt+Rd0/r1F/hzfxVp0VdT/wB9Rf4c38VEm/6g+santZ+FUOoNQ/WVT2s/Cp+XU+qHPzaf0ylvyIuv9fov8Ob+Kp+RF1/r9F/hzfxUQdQah+sqntZ+FW/lDqL6yqe1n4U5NT6oZ5tP6ZY9yopbbW1FFLIySSDk9p8YIadtjZBgO386wiV61FTUVU0k9TK+WaTZ25H42nbLQ0Zxu4ALwJXVXfaObq5bbb93QJVuUJVuVkWyHvJPIf7F2q2eDrX5lSfdNXE5PgSeQ/2Ls1K5zbVbC0kHuSiGR/ZNVTxTJGLFzz4brLh9d7zCRRR3LT/pHdqctP8ApHdq8n/GsPpleezW80iiwo6t4IEm8dI3ELMBBAIOQd4wrHTavFqY3xyivjtTqqiIutGIiICIiAiIgIiICIiDxqaiKlgnqZnYihjdI8jjgcw6zwC5lcK+ouNTJUzk5duYzOWxRg7mN8X/AJ51tmsKox0dJStO+pmL34PGOEA4PpLexaOVb6HFEV7SesqfXZZm3Z+EBVpPFVJVpPFWSuUJ4q0lDzq0lAJVpKEqhKw2UKoUJVpKwzsFWlCVaSjKhKoiosC1/wAXJ5D/AGLstN4JtnmlF901cak+Ll8h/sXZ42OhttBE8YdHT0sbh+s2MAqi45MezW+UrXhsf4k/g8lRUVMr5ZMvVRCqyqOXe6I+U3/cLDyqxv2JI3fRcM+LgV0aTUzgz1v9fk0yU5qTCYREX0GFQIiLIIiICIiAiIgIiINC1dNt3KKIHdBSxgj9aRznn1YWuEqW1I/bvVzP0XwsH92FgUOSvR6eOXFWPg85qJ3y2n4hKtJQnirSeKlRBPFWlCeKtJRkJVpKE72t3lztzWtBLnHoa0bys1lm1BM0OitVcWkZBdFyeR1CUtPqWtrRXrOzatZt0hgEq0lSZsGpvqis/wBH8aodP6m+qKz/AEfxrTtaeqPq37O/pn6IslWlSh0/qf6orP8AR/Gqfk9qf6nrP9H8ax2lPVH1Z7O/pn6ItFKfk7qc/wD49Z6eRHtepSg0Tfal7TWuioYNxd3zJ6gjoYxmYx4y4+IrE5sde+bQ2rhyWnaIRunrU+73Sni2c0lK+Oprn470MY7aZFnpeRjxZPMuo1cgLmxj5u93jPMvGko7dZaRtHQx7IBLnFx2pJJDxkmceLj/AO4AwvMkkkkkknJJXhPtBxSuSOwp+P8AfnL0fD9JOKOaxlUyqZCpleKmVzEKkq086KijmW0QmYXbUUTucsbnx4XosejOaePqLh2OKyF9K0t5yYKXnxiP0Ud42tMCIi6WgiIgIiICIiAiIg5lqNpZeroDzyxu9DoWFRBK2DV0RjvDn81RTQS+luYj7AteJXo8E746z8IeczRtktHxlQnirSVUq086lRqdKzrVaay81Rp6fDI49l1TUOGWQsPAAc7j80ek7hvwDtHAY3ae4tYxo4ue4hrWjxldWtdBFZbbT0zMGbG3O/8AS1Dxl7z1cw6gFw63VRpcc3l16XB299vBS32qzWWMNpoRy5H9JNJh9TJ1ueeA6hgdSyjVu5mD0klY5JJJJyTvJKovm+p4xqMt5ms7R+b1WPTUpG2zI7rk+gz1p3XJ9BnrWOqLl/iOp9aXsaeTJ7rk+gz1qndcn0GetY+VTK1niWp9Z2FPJk92SfQZ615uqZ3btoNH6gx6+K8CVTKiycQ1N42m8t64aR37K5VpKZVFXTZ0RCuVTKoqZUUy2iFSVaSioSo5s3iEtQ/m7fKf7VlLwpG7NPAOct2v2jle6+m6Gs102OJ8o/RQZZ3vMiIi7EYiIgIiICIiAiIg0/W1PmO21Yb8B8tM8+WBI32HtWkErrF3oBcrfV0m4PezahcfmzMO0w9u4+Ncme17HPY9pa9jnMe1ww5rmnBaR1K50OTmx8vkptbj5cnN5qE8VaShVCu5wpGxxtmvdkjcAW92MkIPA8kx0o9YC6dVk7cY6Gk9pXM9OeH7J5xJ+7yrplX8YzyB7SvJfaSZjD9P1X3Co6sdEVCV8+ehVyrcoqZWky2iAlUymVaSopltEK5VMqioo5ltEKqmVTKotJlvEKkq3KKiimW8QZVWtMj2MHF7g3tVpKzbdFtyPmI72MFrfLPHsHtU+j086rPXFHj1+Xi0y37Ok2SjQAABwAAHiCqmEX1OI2jaHnhERZBERAREQEREBERAWq6i0wa9766g2W1hH9NE4hrKjG4OB4B/qPVxW1It8eS2O3NVHkx1yV5bOMVNNV0b3R1dPNTvHETMc0eh3wT6CVjGWL6bP2gu3loO4gEdBGQreRh/RR/sN/grCNf51cE6Dys5Npt7DqCxgPaT3TLwIP8A28q6dV/GM8ge0rLEUQORGwEcCGtBHpAWJWfGN8ge0rz3H83baebbbdFnoMPZW233Y6tTKovAzK7iAqhTKtJUcy2iDPiVMjpWbBVU8cTGOa4kZzhoPE5Xp3bS/Qf+y3+KsqaLBasWtniJnw26fmgnLeJ7qI7IVuR0qS7upfoP/Zb/ABTu6k+g/wDZb/FJ4fpv+TX6fuz22T0SjCR0qhcOpSfd9Jv7x/D6Df4rLbsuDXBowQHDcOBGVLh4Nj1EzGLPE7eUfu1tqrU/zUQGQqZWxbLegdgTZb0DsCn/AJat/u/l+7X2/wD6/mhIaWecjALWc73DAx1ZUxFGyJjY2DvWjHWeknrXphFe8P4Xi0O8177T4uTNqLZuvQREVq5xERAREQEREBERAREQEREBERAWBW/Gs8ge0rPUfXZEsZ/U/wByqfjP+kn5w6NN95DFVCUVF4WZW0QKiK0lRzLeIVyqISrSdxUc2bbKgOccNa5x6Ggk+pUcHNOHAtPQ4EH1qbpomRRMa0byA5x5ySM5KsrImSQyEjvmNL2nnGN69JbgN40/a8/vbb7f0cMayOfbbuQp4HxFbBF8XF5DPdC148D4lsMWRHFniGMHqC2+zX3mT5R/VjX9Kr0RF7RViIiAiIgIiICIiAiIgInanagInanagInanagInanagLFq4jIwOaMuZk45yOdZXamFBqMNc+OcduktqWmlotCCVCVJz0bJMujOy87yPmuKj5IZ4s7bHY+kN7e0LwGs4fn0s+9G8ecf33LjFnpk8e95qipnKoqqbOqFcqhVMoo5ltskaaujYxsc2QWgBrgM5A6RxVtVXMkYY4g7DtznO3bugBYDQ55w0Fx6Ggk+pZkNBO8gyf0be159HBX+DXcQ1OL2fFG8dN9vD59HFfFgx257PGmhdPK1o+CCDIeYN6PSp0LzihjhaGRtwOJ6Seklei9Twvh/sOLaZ3tPX/xXajN2tt/ARO1O1W7nETtTtQETtTtQETtTtQETtTtQETtRAREQEREBERAREQEREBERB5Pp6eT4cbD17OD2heJoKQ/NcPE5yy0XJk0Wny998cT+EJK5L16SxBb6Tok/bKvbRUjf/qB8rLvashFpXh+lpO9cdfpDM5sk9bSta1rRhoDR0NAA9SuRF2xERG0IhERZBERAREQEREBERAREQEREBERAREQEREBERAREQEREBEUFe9SUdlljp3wTzVEkLZ2NYWMjDC5zBtPcc8x4NKCdRYNprX3K3UFc+NsbqmISljXFwbkkYBIB9SzkBERAREQEREBERAREQEREBERAREQEREBEyiAiIgIiICIiCyWaCCN0s8scUTfhPle1jG56XOICw6G72y5SVcVFPyxpRFyr2scI/wCk2sBrnAA8DwUVrTwG/wA7pfeUToH4d98mg/5kG9LnWufC1F9nRffyroq51rnwtRfZ0X38qDbNL/J+yeat95ymVDaX+T9k81b7zlMoCIiAiIgImUQEREBETKAiIgwrjWyUEElT3M+eGKOWWYxyRMcxrADuEhGc/wCy8m3TFZQ0NRTSw1FXHUSMy+KSNvJEYa5zDxcNojySve5UslbQV9JG5jJKmnkha5+dlpcMZOzvWJcbdW1M5qaWaCKaOma2ldK1zgyoZNyge4N+bjaB8aDFn1RQwzTwimq5BFI+PbY0Fjy04JaRzdCKRZboI44YmNjLIoooml4y4iNgYC49O5EERedX262ulgpmiqqY90hDw2nid0Pk35I5wB1ZBUJHdP5Q7qOUo6eSKFwy10cEMEZH6r6w7R9BUBZGsderIxzWuYa6IFrgC04DiMg7l2BBziprv5QrU0T1b6hsWQC97KSeEEnADzGDjPXhbFp7U8d2d3JVMZDXBpcwMJ5Koa0ZJZtbw4c4yekc+zsckccrJI5GNfHI1zJGOALXMcMFpB5iuQ18M1lu9TFTuc2SgqhLSuJ37O6WPaPWCAfSg7Auf3bVd6FxqKGmMNPFBXilL2M25ntbMIzl0mWjPU30reaOpjrKWkqo/gVMEU7OoSNDsLk908PXL7Zf+9BB19ERBqWqb9dbTV0cNG6AMlpnSv5WLbO0JC3cchTNgram4Wi31lSWGedspkMbdhveyvYMNyeYDnWo678IW3zJ33pWzaS+T1o8io/eJEGralrNTyi409XSFlqZXOEExgDQ5rZCIiH7RO/xKNsVXqKlNb/M1KZzJyHdOIRLs7O3scXDGcuW5608ByedUvvKJ0D8O++TQf8AMgn9PVV/qoKx15pzBK2oa2BpiEW1FybSTgOPPlarrnwtRfZ0X30q6Kuda68LUX2dF99KgyaPVlvs9ktFKyM1NZHSsbI0O5OGJxLjsvkIJJ4bgD4wvJ+odd1DeXgt0sUGNoOht8rhjpzLlx9AUvpOy2uO32+6OhEtbUxctys+H8jkkbMLSMDhxxnr6NqQc+t2uK2OVjLpFHLAXbL5oGGOaLfjaLAS0gc4wD48YO/xyRysjljc18cjGyMc05a5rgHBwPQVz7W9vhp6ykroWtb3a2Vs4aMAzRbJ5Q9ZB3+Sp7RU8k1jYx5z3LVVNOwn9GCJGj0bWB4kE7WVlJQU01VVSCOGIZceJJO4NaBvJPMFolVq+/3Co7ms9O6LayY2RRCoqnsG7aeXAsA9G7pK8daXN1RcDRBx7mt7QXgHc6oc3bc4+IENHp6VtumLVFbLXTEsb3XVxx1NW/HfF727Qjzxw0HAHjPOg1d8v8pVK3uiQVxYAXOw2jn2Rx76OPad6lIWbWYnliprq2OIyEMjq4sti2juAmYScZ6QcdQ4rdFz3Wtqipp4LjCwNZWOfFUtaMN5cDaD927LhnPizzoOhKOul5tdojD6uXv3gmKCIbU8g4Za3PDrJA61FaNuUlbbX00zi6a3vbBtOOXOgcNqIkno3t/urVtZ+HJvNKX2OQSf5Uapu8j2WS3bMbTsmQMEzmn9eaUthB6sFeNR/wDJsLXTymrLRvcKc0UpA/s4hnsBW42NrG2ayBrWtH830jsNAAyYmknA6VIoOd23Wtxgkay5tbUU5OHyxsayeIcC7ZYA045xgH2HoMUkU0cUsT2vjlY2SN7TlrmOGQ4HrXONa0cNNdIp4mhvdsHLShoABmY8sc7A6d2f/K23STnO0/asnOyKiMZ5msnkaB6AgnUREBERByCxeHLH5/H7rl1/mXILF4csfn8fuuXX+ZAXMNYNAv1SR8+npHHx7Gz/ALLp65Tqudk19uTmuBZDyMGeuKJu12HI9CDetJuLtP2jO/YZNEM9Ec8jB7Fzy6eHbl9sv/egukaagfTWKzRSDDzTNmcDxBmcZsHtXN7ruvtzJ3AXiRxJ5gKnJKDr6IiDnuu/CFt8yd96Vs2kvk9aPIqP3iRazrvwhbfMnfelbNpL5PWjyKj94kQY+tPAcnnVL7yidA/Dvvk0H/MpbWngOTzql95ROgfh33yaD/mQb0uda68LUX2dF9/KuirnWuvC1F9nRffyoNs0v8n7J5q33nKZUNpf5P2TzVvvOUyg0vXvxNm/tqr3GrK0L4HqPtKp9yJYuvfibN/bVXuNWVoXwPU/aVT7kSDRbwTJdLyXfPuFW09Q5ZzfYuxtAAAHAAAeIBcm1NSvprzdmfppTVRE7gROOU3eI5HoXULdVMraGgq2EFtRTQy7uYuaMj0HIQZS1rWrQ6y5PFlZTOb4ztN9hK2VanrmdjLbR0+e/nrA8DpZCxxce0t7UEToN7hcLswfBdRQPI62yuA9pWHrPw5N5pS+xyltBUrtm8VxHevfBSRnpMQdI/3gPQonWfhybzSl9jkG/WXwPZPs6i+6apBR9l8D2T7OovumqQQc/wBefnlq81n+8ath0h8n7b5VZ+8yLXtefnlq81n+8ath0h8n7b5VZ+8yIJ9ERAREQcWop56Wto6mnjEk8E7ZYWFrn7b2g7tlnfHdngt9odcWedjRWRzU0nBxY0zwk9Tmd/2tWmWLw5Y/P4/dcuk12nbBcHOkqaKPlnfClhLoZSelzoiM+nKCIuWtLbFDI22cpUVLgRHI+J0cMZI+ERIA445hj0rVLFZ6m/V21KHuoo5uVuE7s4ldnbMLXc7nH4XQCekA7tHovS8bg51NNKPoz1M7melocAfSp6GGCnjjhgijihjbsxxxNDGNHQ1rdyD0AAAAAAAwANwA6lzTV9ompK+ormxk0Vc/bc8b2xTuGHseRw2uLT145t/S1bJHHKx8cjGvjeC17HtDmuaeIIO5BpVm1nTx08VNdWyiSJrY21MTeUEjWjAMrR3wd04Bz1KTqNZ6dhYXRPqKh2DhsUL2DPW6bZHtXrNpDS8ry/uN0WSSW0888bPQxrtkegL1p9LaXp3Ney2wvc3gakyVHqnc4epBzy83ie91MVU+FkUTGOhpwzacC0O2jmQjBO/fgDxdPQdJfJ60eRUfvEi1zXXJsqLNCxrWtjp6hwa0ANaHSMAwBu5lsulmFmn7IDxdTcp6JHukHtQX6joJrjaK2CBu1O0MnhaOL3ROD9gdZGQFo+lbxS2isrG1m2yCrZHG9+w4mGWFzsbbB32N5B3ZGOHR09RddYLDcXmWqoYnTEd9LGXxSu8p8RBPpQZdHX2+vY+SjqYp2McGPMTs7LiA7Zdz5wtD1z4Wovs6L76VbvbbTbbTHNFQxvjZNIJZA+WSQl4aGZzISeACtrbLZbjKyeuoop5WRiJr5NrIYCXBu4jnJQY2l/k/ZPNW+85TK8qampqOCGmpomxQQsDIo252WN44GV6oNL178TZv7ap9xqytCj/o9R9o1PuRKerrZa7kIW11LHOIS50Qk2u9LgASNkhX0VBQW6J0FFTsghdI6UsjzgvcAC7eT0BBB6qsT7pTx1NK3arqRrg1mQOXhJyY9/OOLfSPnZGu6a1I20iS3XBsopRK4scGkyUsjjl7JIz32znfwyDncc970dR1fZLLc3bdZRxSS4AErdqObHMOUjId60GHJqzTMcZeK3lSBkRwwzGRx6AC0AekhaTV1F01bdmx0sWAxojia45jpIM5Ms7huyeJ6dwHDK3FmjNLtdtGmneM/Akqqgt9IDh7VN0tHRUUTYKOnhp4Rv2IWNYCeGTjietB522gp7ZRUtFT55OBmC53wpHk7TpHdbjklc81n4cm80pfY5dOUbWWKxV8zqisoYZp3Naxz37eS1u4DcQgusvgeyfZ1F901SCshhhp4oYIWBkUMbIomN4NYwbLWjPQr0HP9efnlq81n+8ath0h8n7b5VZ+8yKQrrPZ7k+KSuo4p3xMcyN0m1lrSdogYIWRSUlJQwR0tJC2Gnj2uTjZnZbtOLjjO/iSUHuiIgIiIOQWLw5Y/P4/dcuv8y52NO1VkvWnJJKmGeGe5MjjLGvjkBDHHvmHI/zLonMgIiICIiAvGpqqWjhfPVTRwwsHfPlcGjpwM8T0ALV9aVtyomWx9HWTwNmdURSthcGlxAa5rtoDa6RxULQaYvF7ZHW1dyYIn5G3IZqmp68cqQ0dpQYN5rKjUl4YyijcTKG0dC0jDuTaSXSydAGS49A611Clp46WmpaWP4FNBFAzmy2NoYD6lgWmxWuzMd3LG508jQ2WpmIfNIM52c4ADeoABSqAiIgIiICIiAiIgIiICIiAiIgIiICIiAiIgIiIP//Z" parent="1" vertex="1">
          <mxGeometry x="660" y="128.33" width="66.5" height="73.89" as="geometry" />
        </mxCell>
        <mxCell id="_tkoBfJF8qYOiKieuXjx-5" value="" style="endArrow=classic;html=1;rounded=0;exitX=1.044;exitY=0.375;exitDx=0;exitDy=0;exitPerimeter=0;entryX=0;entryY=0.125;entryDx=0;entryDy=0;entryPerimeter=0;" parent="1" source="_tkoBfJF8qYOiKieuXjx-1" target="_tkoBfJF8qYOiKieuXjx-3" edge="1">
          <mxGeometry width="50" height="50" relative="1" as="geometry">
            <mxPoint x="450" y="220" as="sourcePoint" />
            <mxPoint x="610" y="220" as="targetPoint" />
          </mxGeometry>
        </mxCell>
        <mxCell id="_tkoBfJF8qYOiKieuXjx-6" value="" style="endArrow=classic;html=1;rounded=0;exitX=0;exitY=0.5;exitDx=0;exitDy=0;exitPerimeter=0;entryX=1.015;entryY=0.64;entryDx=0;entryDy=0;entryPerimeter=0;" parent="1" source="_tkoBfJF8qYOiKieuXjx-3" target="_tkoBfJF8qYOiKieuXjx-1" edge="1">
          <mxGeometry width="50" height="50" relative="1" as="geometry">
            <mxPoint x="540" y="249.5" as="sourcePoint" />
            <mxPoint x="440" y="249.5" as="targetPoint" />
          </mxGeometry>
        </mxCell>
        <mxCell id="_tkoBfJF8qYOiKieuXjx-7" value="&lt;b&gt;Topic:&lt;/b&gt; devices-information" style="text;html=1;strokeColor=none;fillColor=none;align=center;verticalAlign=middle;whiteSpace=wrap;rounded=0;" parent="1" vertex="1">
          <mxGeometry x="434" y="219.51" width="160" height="30" as="geometry" />
        </mxCell>
        <mxCell id="_tkoBfJF8qYOiKieuXjx-8" value="&lt;b&gt;Topic:&lt;/b&gt; sensor-reading" style="text;html=1;strokeColor=none;fillColor=none;align=center;verticalAlign=middle;whiteSpace=wrap;rounded=0;" parent="1" vertex="1">
          <mxGeometry x="423" y="249.51" width="160" height="30" as="geometry" />
        </mxCell>
        <mxCell id="_tkoBfJF8qYOiKieuXjx-11" value="" style="group" parent="1" vertex="1" connectable="0">
          <mxGeometry x="350" y="70" width="50" height="57" as="geometry" />
        </mxCell>
        <mxCell id="_tkoBfJF8qYOiKieuXjx-10" value="" style="image;aspect=fixed;perimeter=ellipsePerimeter;html=1;align=center;shadow=0;dashed=0;spacingTop=3;image=img/lib/active_directory/database.svg;" parent="_tkoBfJF8qYOiKieuXjx-11" vertex="1">
          <mxGeometry y="20" width="50" height="37" as="geometry" />
        </mxCell>
        <mxCell id="_tkoBfJF8qYOiKieuXjx-9" value="" style="image;aspect=fixed;perimeter=ellipsePerimeter;html=1;align=center;shadow=0;dashed=0;spacingTop=3;image=img/lib/active_directory/database.svg;" parent="_tkoBfJF8qYOiKieuXjx-11" vertex="1">
          <mxGeometry width="50" height="37" as="geometry" />
        </mxCell>
        <mxCell id="_tkoBfJF8qYOiKieuXjx-12" value="" style="shape=image;verticalLabelPosition=bottom;verticalAlign=top;imageAspect=0;aspect=fixed;image=data:image/jpeg,/9j/4AAQSkZJRgABAQEASABIAAD/4QCMRXhpZgAATU0AKgAAAAgABQESAAMAAAABAAEAAAEaAAUAAAABAAAASgEbAAUAAAABAAAAUgEoAAMAAAABAAIAAIdpAAQAAAABAAAAWgAAAAAAAABIAAAAAQAAAEgAAAABAAOgAQADAAAAAQABAACgAgAEAAAAAQAAAligAwAEAAAAAQAAAK4AAAAA/+0AUFBob3Rvc2hvcCAzLjAAOEJJTQQEAAAAAAA0OEJJTQQEAAAAAAAoOEJJTQQEAAAAAAAAOEJJTQQlAAAAAAAQ1B2M2Y8AsgTpgAmY7PhCfv/bAEMAAQEBAQEBAQEBAQEBAQEBAQEBAQEBAQEBAQEBAQEBAQEBAQEBAgIBAQIBAQECAgICAgICAgIBAgICAgICAgICAv/bAEMBAQEBAQEBAQEBAQIBAQECAgICAgICAgICAgICAgICAgICAgICAgICAgICAgICAgICAgICAgICAgICAgICAgICAv/AABEIAgAEAAMBEQACEQEDEQH/xAAfAAEAAQQCAwEAAAAAAAAAAAAACgcICQsBBgIDBQT/xABoEAABBAICAQIDAwQKCQwNCAsAAgMEBQEGBwgRCSESEzEKFEEVIlFhFhgjMnF4gaG28Bc4OXR3kbG0txkkNDU2N1hikpjB1xomJygzQnK1uNHS4fElSFJWWXV2gilER1NXZIeWl6PH/8QAHgEBAAAHAQEBAAAAAAAAAAAAAAEEBQYHCAkDAgr/xABGEQEAAgEDAgMFBQUGAwgBBQEAAQIDBAURBiEHEjEIE0FRYRQicYHwIzKRocEJFUJSsdFicrIWJCUzQ4Lh8aI0REVTwpL/2gAMAwEAAhEDEQA/AJ/AAAAAAAAAAAAAAAAAAAAAAAAAAAAAAAAAAAAAAAAAAAAAAAAAAAAAAAAAAAAAAAAAAAAAAAAAAAAAAAAAAAAAAAAAAAAAAAAAAAAAAAAAAAAAAAAAAAAAAAAAAAAAAAAAAAAAAAAAAAAAAAAAAAAAAAAAAAAAAAAAAAAAAAAAAAAAAAAAAAAAAAAAAAAAAAAAAAAAAAAAAAAAAAAAAAAAAAAAAAAAAAAAAAAAAAAAAAAAAAAAAAAAAAAAAAAAAAAAAAAAAAAAAAAAAAAAAAAAAAAAAAAAAAAAAAAAAAAAAAAAAAAAAAAAAAAAAAAAAAAAAAAAAAAAAAAAAAAAAAAAAAAAAAAAAAAAAAAAAAAAAAAAAAAAAAAAAAAAAAAAAAAAAAAAAAAAAAAAAAAAAAAAAAAAAAAAAAAAAAAAAAAAAAAAAAAAAAAAAAAAAAAAAAAAAAAAAAAAAAAAAAAAAAAAAAAAAAAAAAAAAAAAAAAAAAAAAAAAAAAAAAAAAAAAAAAAAAAAAAAAAAAAAAAAAAAAAAAAAAAAAAAAAAAAAAAAAAAAAAAAAAAAAAAAAAAAAAAAAAAAAAAAAAAAAAAAAAAAAAAAAAAAAAAAAAAAAAAAAAAAAAAAAAAAAAAAAAAAAAAAAAAAAAAAAAAAAAAAAAAAAAAAAAAAAAAAAAAAAAAAAAAAAAAAAAAAAAAAAAAAAAAAAAAAAAAAAAAAAAAAAAAAAAAAAAAAAAAAAAAAAAAAAAAAAAAAAAAAAAAAAAAAAAAAAAAAAAAAAAAAAAAAAAAAAAAAAAAAAAAAAAAAAAAAAAAAAAAAAAAAAAAAAAAAAAAAAAAAAAAAAAAAAAAAAAAAAAAAAAAAAAAAAAAAAAAAAAAAAAAAAAAAAAAAAAAAAAAAAAAAAAAAAAAAAAAAAAAAAAAAAAAAAAAAAAAAAAAAAAAAAAAAAAAAAAAAAAAAAAAAAAAAAAAAAAAAAAAAAAAAAAAAAAAAAAAAAAAAAAAAAAAAAAAAAAAAAAAAAAAAAAAAAAAAAAAAAAAAAAAAAAAAAAAAAAAAAAAAAAAAAAAAAAAAAAAAAAAAAAAAAAAAAAAAAAAAAAAAAAAAAAAAAAAAAAAAAAAAAAAAAAAAAAAAAAAAAAAAAAAAAAAAAAAAAAAAAAAAAAAAAAAAAAAAAAAAAAAAAAAAAAAAAAAAAAAAAAAAAAAAAAAAAAAAAAAAAAAAAAAAAAAAAAAAAAAAAAAAAAAAAAAAAAAAAAAAAAAAAAAAAAAAAAAAAAAAAAAAAAAAAAAAAAAAAAAAAAAAAAAAAAAAAAAAAAAAAAAAAAAAAAAAAAAAAAAAAAAAAAAAAAAAAAAAAAAAAAAAAAAAAAAAAAAAAAAAAAAAAAAAAAAAAAAAAAAAAAAAAAAAAAAAAAAAAAAAAAAAAAAAAAAAAAAAAAAAAAAAAAAAAAAAAAAAAAAAAAAAAAAAAAAAAAAAAAAAAAAAAAAAAAAAAAAAAAAAAAAAAAAAAAAAAAAAAAAAAAAAAAAAAAAAAAAAAAAAAAAAAAAAAAAAAAAAAAAAAAAAAAAAAAAAAAAAAAAAAAAAAAAAAAAAAAAAAAAAAAAAAAAAAAAAAAAAAAAAAAAAAAAAAAAAAAAAAAAAAAAAAAAAAAAAAAAAAAAAAAAAAAAAAAAAAAAAAAAAAAAAAAAAAAAAAAAAAAAAAAAAAAAAAAAAAAAAAAAAAAAAAAAAAAAAAAAAAAAAAAAAAAAAAAAAAAAAAAAAAAAAAAAAAAAAAAAAAAAAAAAAAAAAAAAAAAAAAAAAAAAAAAAAAAAAAAAAAAAAAAAAAAAAAAAAAAAAAAAAAAAAAAAAAAAAAAAAAAAAAAAAAAAAAAAAAAAAAAAAAAAAAAAAAAAAAAAAAAAAAAAAAAAAAAAAAAAAAAAAAAAAAAAAAAAAAAAAAAAAAAAAAAAAAAAAAAAAAAAAAAAAAAAAAAAAAAAAAAAAAAAAAAAAAAAAAAAAAAAAAAAAAAAAAAAAAAAAAAAAAAAAAAAAAAAAAAAAAAAAAAAAAAAAAAAAAAAAAAAAAAAAAAAAAAAAAAAAAAAAAAAAAAAAAAAAAAAAAAAAAAAAAAAAAAAAAAAAAAAAAAAAAAAAAAAAAAAAAAAAAAAAAAAAAAAAAAAAAAAAAAAAAAAAAAAAAAAAAAAAAAAAAAAAAAAAAAAAAAAAAAAAAAAAAAAAAAAAAAAAAAAAAAAAAAAAAAAAAAAAAAAAAAAAAAAAAAAAAAAAAAAAAAAAAAAAAAAAAAAAAAAAAAAAAAAAAAAAAAAAAAAAAAAAAAAAAAAAAAAAAAAAAAAAAAAAAAAAAAAAAAAAAAAAAAAAAAAAAAAAAAAAAAAAAAAAAAAAAAAAAAAAAAAAAAAAAAAAAAAAAAAAAAAAAAAAAAAAAAAAAAAAAAAAAAAAAAAAAAAAAAAAAAAAAAAAAAAAAAAAAAAAAAAAAAAAAAAAAAAAAAAAAAAAAAAAAAAAAAAAAAAAAAAAAAAAAAAAAAAAAAAAAAAAAAAAAAAAAAAAAAAAAAAAAAAAAAAAAAAAAAAAAAAAAAAAAAAAAAAAAAAAAAAAAAAAAAAAAAAAAAAAAAAAAAAAAAAAAAAAAAAAAAAAAAAAAAAAAAAAAAAAAAAAAAAAAAAAAAAAAAAAAAAAAAAAAAAAAAAAAAAAAAAAAAAAAAAAAAAAAAAAAAAAAAAAAAAAAAAAAAAAAAAAAAAAAAAAAAAAAAAAAAAAAAAAAAAAAAAAAAAAAAAAAAAAAAAAAAAAAAAAAAAAAAAAAAAAAAAAAAAAAAAAAAAAAAAAAAAAAAAAAAAAAAAAAAAAAAAAAAAAAAAAAAAAAAAAAAAAAAAAAAAAAAAAAAAAAAAAAAAAAAAAAAAAAAAAAAAAAAAAAAAAAAAAAAAAAAAAAAAAAAAAAAAAAAAAAAAAAAAAAAAAAAAAAAAAAAAAAAAAAAAAAAAAAAAAAAAAAAAAAAAAAAAAAAAAAAAAAAAAAAAAAAAAAAAAAAAAAAAAAAAAAAAAAAAAAAAAAAAAAAAAAAAAAAAAAAAAAAAAAAAAAAAAAAAAAAAAAAAAAAAAAAAAAAAAAAAAAAAAAAAAAAAAAAAAAAAAAAAAAAAAAAAAAAAAAAAAAAAAAAAAAAAAAAAAAAAAAAAAAAAAAAAAAAAAAAAAAAAAAAAAAAAAAAAAAAAAAAAAAAAAAAAAAAAAAAAAAAAAAAAAAAAAAAAAAAAAAAAAAAAAAAAAAAAAAAAAAAAAAAAAAAAAAAAAAAAAAAAAAAAAAAAAAAAAAAAAAAAAAAAAAAAAAAAAAAAAAAAAAAAAAAAcZz4/r75+n0/k/rghP0HyZd5WQfKX5SMuJ84yy1+7O4zjOceFJR5+HOf+NnH+Uo2t3/adBM11OupGWP8ABTm9/wA60i3E9/jx9JnhM4tHqs3emGZr8/SP93wn9xaTnOI0JxePGfCn3UtY8/rS2lecY/hzgtvUddYKzaNLoMmX5TkmMcT+EV95b8eePhx84qNNnvMc5M0Vn5VjzfxmZjj6dp5fLVt9kr94zDbx7+PLbi1f8rD+MZ/xY/gKRk643W0T7vS4cX4xktP8eaf6Q96bRp+/myXmfxrH9JejO0XOfPh6Nj9X3bHj+Dzlz2x/jJf/ALZ77684Yj4R7mZ5/Oc0T/r9ePV6/wB06T4zf+Mf7P0I22zT7rRDXjH1xlt1Ks5/HPlLv/R+B74+uN2rx7zBgvH4XrP8rW/0n+k/F9p0nHbJes/lP9H72dyx7YkQVfrVHdSr/wD1uY8/o/8AGx/KVTB15SePtO3WrHxnFki3/wCN60/6p/3lr7PbjnHmj8LRMT+Xw/F9yJsVVLzjCZPyFqx4w3JTllXnz+ClfmZz/Ar8S49F1Ls+umtMesjFlv6UyxOO34RzHkn/ANtp+vwSGXQ6rFzNsU2iPjX7358R3faTnz74zjOM4x4zjOM4z9ffGcFejiY5ifNE/H9dknE89vTj+LyIogAAAAAAAAAAAAAAAAAAAAAAAAAAAAAAAAAAAAAAAAAAAAAAAAAAAAAAAAAAAAAAAAAAAAAAAAAAAAAAAAAAAAAAAAAAAAAAAAAAAAAAAAAAAAAAAAAAAAAAAAAAAAAAAAAAAAAADxznx48/TPnGffGP0Y+v4fUhP6/X6+p8+/d8Kz2CHX/E1jP3iVj2+Q2pOPl5zjz+7OZz4R9M+3772+n4lubx1Lodp82HvqtZEdsWOY5j5e8tPan4d7cczFflOaXQ59RxaImuL42mP9I5iZ/0+cuiTbuxn+cOvqbbznP+t2PLbXjOfZK8/vnfGPwV4xn9H45xvufUe6bn5qZtROm008/ssf3Y+Ha1/wB+315nifhWO/NfwaDTYIjivvL/ABm0RP8ACOZiPy9fnL5PjGPp9P0eMY8fw48+2ShRHHwivPwjn/65+v8AFO/CI+Een0CIAAAOZ+Zj2+nt/ADiPkCe8cT3gfQhWs+vUn7tIUlvGfOWF/nsKx585xlvKvzf4U+M/r/DNV2/etz2y0TptXMYa8c4r83xTH/LzE1+s1mPrPEcxLZ9Hp9RE+8x/e/zV7W/+fz9PnEcy7xW7NFl+GpXwxZCsY8ZUv8AcHMq84xhtxecfLV5xn81X8mfr4yNtPVuh3CaYNVH2DV27RFpmcd5+VLzFZ5n4VvWtu8RXzSoOq23Ng5vi/bYo/K0fjH/AM89u8RPZ2dP0x7+f5fP19/rn+EuyFO7fByRAAAAAAAAAAAAAAAAAAAAAAAAAAAAAAAAAAAAAAAAAAAAAAAAAAAAAAAAAAAAAAAAAAAAAAAAAAAAAAAAAAAAAAAAAAAAAAAAAAAAAAAAAAAAAAAAAAAAAAAAAAAAAAAAAAAAPBasIx8Ss4SlOFKUpWcYSnGMecqVnOfbGMec5/Vg+bWisTaZitaxMzMzxHb5z8Ij4z8P9Hr+LoN1srjmVxa5eUNZzlLkpKvhWtPnwrDCs+Pha+v53srOU5+HOE/nZxtv/V2TLNtHtGTyY+Zi2eP3rfOMUzHEV+d4727eTiPvK7o9r8vly6mPvz3inwj8Y+f84+XPZ1DP8uVKVnP45ypec+PHj6qXnOfHt75VnHtnz4LCtMTzafSZmeZjmZn4zMz8fr6z8Z7cxW/LFYjiPLHw7+n8P19Z9XpZfjym1ORn2JLeHpEZTkd5qQ1iREeXHlxlOMqVjEhqQ24263n89tacocSheMpHr39Pz+HwnvET3+v5cx3mEWi0eaLeZ7v6/XGf8mfYIgAAAAAAGPOc/DjOfOfPsnGVK8YTlWfCcY+njGfOfw/g8kYmY549f5fx/wBI+KEzEes8QeM484zjKfPjzjOM4z4zjCsefOMeceM48fh498e3ghER8vvTHHERzHH4z25/09UeeYmY+9zxHr8O7s1NsL8LKY8pSnoftjCs+cusY9sYw3/9NvHjPlP4Yx5T7+cZu/Yeqc+3zTTa+1s+g/di3HOTF8uPjenfnyz9+OJms8cRNK1u24ssWyYf2eT/AC9uLT8o9OJ+v8VRGHUPtpfacS406lKm1pz5SpOcfXGf0fz+3v7mVMOfFqMWPNhvXLjyxzW1Zia2ifSY4/XPZbtq2pa1LxxavrHy+nrPP6/F7j1QAAAAAAAAAAAAAAAAAAAAAAAAAAAAAAAAAAAAAAAAAAAAAAAAAAAAAAAAAAAAAAAAAAAAAAAAAAAAAAAAAAAAAAAAAAAAAAAAAAAAAAAAAAAAAAAAAAAAAAAAAAAAAAAAADjOcYx5z58f1/H8D5tMRHM/Dv68Hy+anGwXipalworuPuiPKXlp/wD1lzCvfGF//uMeMePHsr6++PBi3qjqS2tvl2/RZONHjny5LRzHvb894jj/ANKs9p4/etPxrC4du0FccUz54nz/AAifhH15+P8AN0K9vKXWKW42PY7es1/XqGtnXV7fXk+NVU1LT1kZcuytraymOJZr6+PFaW4886tLbaG85Vn8M2bFLXtWkVm17TFYiIm1p/4YiPX17RHb14j4qta1YiZtPlj1/h9f1z/OIUXqkfaCd35lk7JwR0H2K1484VUl6l2fstWKmVHJ/LcR1D7Fk1w0/nDb/FnHLyMtIj7N77HdR3X5VImgiKqryfkjYOk6aeaazdMcZNVWazXDMRelJieY97E1mMlomI5pxOOO8X80TOOLe1u5Tki+LBaYxT2ma+tvhxzHevrz5o79vznDj0j9SXtR6eu02Gz8L8g5s9As5qr3kvhnlm+2DYuHd2TiUqwvL+yXY2bkrjveZSXbFyVt1S6iY/JsF2OxxNncaZYLm3fZNBu+OaanHGPNSJ93kpWmPJEzMTEcxWtb1j70RitExXtWk0iOEng1WbTzM47c1niJiZmeZ5+s/dj6xPeeZmGw46I9vUd4Ov2t85N8IczcDyLqVMrZOlcwapNoZcuRBeWznYNDt5DDKd849mJbw/V3DMePmVFkNqdjR3srbRh/dNBG16rJp/tOPVxSeYtjtFo4/wAt4iZil47c080/S8x95c2mz+/xRkmk05+f0+MTMxMx39fT8O8vy9mPUU6Q9Pl/cexPZbjDj/Z3YkqbA49Td42nlK4ZiIwt9NHxjpzU+8tnsYUjGEMwlKUpxKU+cqT8X1oNn3PcrVrotFfPWe3mmIpj59e+S81pHHraZtxxE88R+785dZpcEWtkzRER8I7z9eO3PPp6RPx549GIPkn7UF0h1qViPxhwn2q5qYwp9CraHp2jcQ1aFtZRhHxwua97pbdSHMKVlC0VikeG1YVlOfhwq4MPRO55KzbJqcOCJ44rzbJbjvzz5ImsTExx3tE8T2iYmJSVt3xelMdrces9v5d4n+MLeXftXHHyZHwNdAudVxvPs67zRwY3Iwjzn3yw3bqRhzxj6fNzjznx+jzUa+H2WcUZLb3gpef8Pu8/r8Y593x2n5TaPr8HlO9fe4jT/d/GP68/y4Vm4++1JdQ72a1G5L609q+K4amsrkXseJxDypXxlpylOW00/HvJEi6mLz8WVYwxUu+cNqxn4VfChUjl6G3GtbTh1eDLavfiZyV80cTzMTasVjj5TMc8xxE8PWu74/N9/DaOf1P6/n88rfWv1ZPTz7Y2VdrnDvZ/QXd7tGXX4nFvI2LXh3lV1th/7s6tnj3k+DVWM1nD2M4S7GZfbcxlK2lOIWhaqDr9i3XbeZ1WhyVxxxPnrEZKcTHbm2ObxHymPWtotFqxMeVN4tfpc08VyRz8pnjj+PHP58flHddlz9zNWdeeId55iu9H5U5FrdGpXbqRpnDOgXfJnI182hP7nG13UaFpUicpWfhy497R4zalPvuIaQtaafpcE6rUU09cuPDfLPEWyXilK/W1p5iPpExMz6RzPHPvly+6xzl8s5Kx6RWInmPj9Z/p9P8ADAj74+uz287pM7Fomgy5XVbr5PlWdOrReMttlucr7hAiyJkCbC5Z5kpUxJNVLw5hLVhr2qrgxYEyA/ElX97FW4xjK+09K7dt3utRmn7frOInm9a+7pPeP2ePm1bc8cxkyTzPP7le3Nt6nX6jPM0iYx1ie8RM8x/zTHHE/hH4/JUv0wvXZ5r6eSta4c7Izds7AdWkvwauNY2U+02vnTgyq+Wphc/TLmzdkTeXNJjr+7OO6zaSXLqNHVLzrtlNW3W6wrw37pTT7hXNq9DFdNra8T5YiK4sto+F4jitLfK1K+W09rREx5o9NJr7YJimS03xc9/jMfWJ7zP8PlxE8xWZ2vF3KfHPNvHuocs8R7pr3IfGu+0kTYdP3XVLFq0ob+olowtmZCls58JXjPxIdZXhD0d1pbT7bbqFpxizNizabLk0+opbDmpaYtS0TE/X8p/hMcT8VxY8lMlYvjnmJ+P0lVqlunKtzDTmcrhOqxlxPnzllXnGMvt+Pr9PzsY+uMece5cHT3UGTZs0Ys0zfb81vv1jvOPzemSsfHj/ABVjvaPnatYmS12hrqaTescZq+nHbzf8Mz/pPz7fFVBtaXEJcQrC0LThSFJV8SVJVjGcZxn8cZ8/zmYceSmWlcmO8ZKXiJiYnmJiYiYmJ+MTHeJWxNZpa1bRxMT3ifhPy/L/AFeZ9oAAAAAAAAAAAAAAAAAAAAAAAAAAAAAAAAAAAAAAAAAAAAAAAAAAAAAAAAAAAAAAAAAAAAAAAAAAAAAAAAAAAAAAAAAAAAAAAAAAAAAAAAAAAAAAAAAAAAAAAAAAAAAAAA+bTx+I6htFrlhv7gwv4X3k+Xspz4y2xn2wnzj6LXjKv4MY/WWT1fvc6XF/dmmy+XUaqOclon9zF3iY7cT5sneOPhStpji1qyqu16P315z5K80xz92PnPw+faOO/b8eFPc+2PbH5uPGMfX28+fHjOPp/wC8xf3j92O1Y9I7/hHx9f5zyuKeee3rPrPw5n5R34iPx/h8YKP2gf1GuY+YOeeQehdXRbZxPwPwzZ0rHIFDexpFLe9jNisayLe0203UbCvhncBstOrRQQ8KdibDZVdhMsk5bq2Ya8qdF7TpNNpce7zNc+tzf+XaJ5jT1ifveWY7xn57Wt64qzXyT5rxatubnqcl83uO9MWOZ5jmYm0/CfrWO/MenxntEwj66FoG+8tbzq3GnGOm7NyNyPv12xr2m6Tqdf8AlXZtpvZqVO4iQGHXmmo7TcdL8qdPmyItbWQYsixtp8GvjyZTN4Zs2LTYcufNkjFg01JvaZnitax8Zme/Nvu0rHMza3FKRa01iabStr2iuOObW9Px/H0/OeYj17R3iat0B9Ejrn0fodW7B94F6rzp2Rjqi3mq6NmI3svEPEOxsK++RmePtds4LWeTOQ4SvlNu7bcsIjw1sOu0ddRsSZOHtZ/GT2gel/DTp3PvHUu6zs+1X95iw6fBFsm47pkrHPuNNpsdptftWLW8sVxYa85dXkrSLWjI/RXh7vXV+5Rodn0n2zNjitsmS/3NPpKc/wDmZcvl4iOeYrH3smSe2KnMwvn7M8r7v2D445B4rpdp2jiDXt21a61Vm9452Oy13fqbFpCchRLmJutNIYlVU6O4tpxDcByMlOG8t/MdSr87k31X7dfiRr+tdj3fpnRafp/pPYtdh1H92eXFqc26afDmre+n3LW5KTSKanFW+PJp9BXFXBfJFseu1EV5bg7T7PvSmk2LX6Lc8+Tdt63LBkx/a481K6W+SkxGTR4PNaItjv5b0yZ/ezfji2OsTNUMTjD0hO5G5bNs9fba7pfE1Y3tewQ9k5H3i3S8vfbaFPkRpG+Uer6zIm2u7wbWQ2qW3Ku7CsnONTUOSHXnviUrpF1l/aCezf0rsug1207ruHXG5blpcGrxbZtmmiuTSe/x1yzo9y3HW002k0er0tbziz102DXV97jv9yleONatn9njxM3bcNRpdTo9Nsml0ua2PJq9Tl+5m935o99pNNp/Nky4sk8eSM+XSzWtuYm/lj3mRTRfQx4sgKiq5O7B8l7TZpjJdnUukUGkaJQu5zjDa3Y7NxWXdyzFy8r2VmxxnCs/D8WfHjOofVn9qJ11q/fR0R4SbPsuivk8mLU7prNy3PU/5oredNk27brZIrETNYwTE8TMcccxmDaPZV2LHbFO+dZa7X55jzZMWlw6TSYeOOPLXz4tVqYxxbm3/wCpnJ5u3n8sTDtus+ll6a237Zt/HGq8j71tPIXH2GE75qNH2Qs7DbNPXIeWzHVs+vV0jLlJ817Ckt4fYbwrOPCMePOM0Le/bq9s7p/Yun+sd96N2vY+kOref7r3DU9IUw6DcOKe8t9j1mW3l1Plp3m2PJbt3tMSqGg9n7wR3HX7hse371rdbu20zEarBj33UZNRp5mfLWM2KMvmxTbmJjz1pz8J8seaerbJ6LPWbaJlhC4t7F8k67c1Lz0GVRTLTjTkaJBsI6spdiXcKRRsXTT6FKShxv7+y9jGPwWrzmt7N/aTeNuy6fSazrvwb2jdtq11K5cerx4d62acuG8RaL6fNGoz7fel+JtS/wBnvjn92Z8vpT9b7MvQ2szZtPsHWuu0OfTRGOcN8uh18Y7055rljJg+0+aeYrki2p8/HExMX81mPnnj0dO1nH9XYL1+o0fs1p7KMSn6nUmmdf219bT+FMIVxjyNOegylIThteX2r553CvdqH8ScYztj4af2h3s/ddZMGh6l1Ov8JN1zzFItu9I1+1/u8+b+9trxeavN4msUzbbirMRxbNzMxGI+pfZz8Rdii+fba6XqzQY4r30drafVRMzFb86TV5L0tWv3b849bkyTWbVrgtOOs5JVfp7TuYenPXji/ifaN+2Hk+1par8o7i1vO07HtcWLsN67mztaLTLy/nyp+u6rWOvKgVUZt5cdiJXt/uClKVnPP/q327uubeMnVXU/S+DDqvDTU6r3Gg2XWY60pOhwTXDh1UavBi+06TcNXSl9VqL+XV4Pe5vd102PHSs02G2j2fOnY6L2vZ95vfB1Rjx+fPuGCYtP2jJM5L4pxWmMWbS4bT7nDW0Vy+7xxNs/nm9p/D3d9J7qP6m9XsfKnEGajrZ3E+7Kn2W6VlDCTTcjTo1fiBAic76ZVOMI3+pxhiG1H2Wsdi7DXNxUR0WCoSpdZJ6R+AvtPdJ+Ke0+bYtXljVaCkzqdl1l601+irOTi2fT+XJOLPpb2iYpqcF8umvM2rljFqK3rj1i8QfCrfOitXxuWGuTS6qfLg12KJ9zmniZil4tEWwZoj/0cnF68+alr1j70IHsB1/5f6ucu7bwVz1pE7j/AJO0tyO5aUkl38oVttSWLkpFFuul7C0w0xunHtqmFLVWXEZCEPLiSIM6NXXMGyqoO3ui1mn3DS49bp7e9w5ZmsTxxPMRXzUn04vWLRNqc+aOY4m8WrZiHLivgyWx5KzW9fX6/DmOe/EzE+v+vLJD6OvqUcudF+ftY41j1+1cnddOfORdX1PeeFqRuXc3lJvu/bHXatUcscPU+F+GNzzc20PGw1TWER9jgYem/ud7ES5aUXqXZcG6aK2akUw6vSY5tGWfuRNKVnJauSZ45rEc+Xnm1bW8sTNZiKzei1l9NeInm+O8xHl9fWeOY+UzMxE/xn0bGXOPfOPGfOM5x74ylWM/hj4c49lfTzjPnxnzjz7GHO/wjvEcRz8I/D4z2nj58cT6yumJ4jtPm9e/H1n+fb8nctXtstr/ACa+vGUOe8T41eMJXnz8TPnP0SrOPKfGM+/nH1z7350fvc48n90ajLziyc+4tPpW3Hmtj5+Vo5tX4ebmKxFZiFE3XSdp1WOJnj9+Pj+P+7vuP8nt+Pn2/XnHuZLjnvyoTkiAAAAAAAAAAAAAAAAAAAAAAAAAAAAAAAAAAAAAAAAAAAAAAAAAAAAAAAAAAAAAAAAAAAAAAAAAAAAAAAAAAAAAAAAAAAAAAAAAAAAAAAAAAAAAAAAAAAAAAAAAAAAAAPyzJLcOM9Kd/eMIyvP6VZx+9Tj3+uVfDjH684JTXavFoNJn1mb/AMvT1m0/OePSI+tp4rX6zD0xY7ZclMdI5teYj+KkEmQ7KfdkvK+Jx5eVqz58+PPthOP0JxjGMYx+jGPp9DBOq1GbWajNq89vNl1Nptbj0jn0iPpWOK1+lYXjixVw46Y6dq0jiPr29Z+cz6TPx4ejPjOPfP08e2c5xjOP0ece/wBf0e/v7Z8/Xw+PPxfbDt6vnpX6z6h/EjOyaOih1XtdxTVT3OId2tUfcqnc6hxX5QtOFeRLGKwt5rT7aQyhVfZJRIe1y5xHtGo82Fixqp1xdPb/AJtmzXx3mb6DVTHvK+vltHPGWkTPHnrEzzzExavNZ4mazEhrdDXU195Wse9pHHPpM1njmvPymI/9s8THftNG/TU9O3jn0puEM8p8rQ6Tee5/LNM3B2q5hONzYGi1kzESx/sI8YWTkdLkPR6+QzDf2W9w23K2e1ifenW49ezQ01bhv2k/aN2Pws6VtvW5Y/tmbU5bYNn2vHaaZty1vkvac2e/GWMGlwY/2mp1U1iml01fJirl1OaMea9PDLw23HrbeqaDS29xp8EVyazVTxammw8x2pEcRfNkt9zDi5+/eLWv5cWObVqbt24X+8XkzYdksF2FjKz8KfZTcWHGSrCm66tifHnEKubx+8bT5znKfmPKW9la1cFuv/EHqrxL6m3Hqrq7d77pum4zxHe1MGDBE+bHpNHpptemk0eLiPLhpab5ckRn1WTUaq05o6H9O9ObP0ptWn2bZtJGk0Wnjv6TfLef38+fJxW2TNee9rzMVrH7PHWuOIpFlnaTuVwh1G1ti15PvXpe0XUSbJ03jLV0RrPkLdVQ1tsuLqKd19puup0S5MVqTbWD0WqiLltpflJWtKM5D8DfZx8TvaB3jNoeiNqrg2PbcmOu471rZyYNp27z82iM2eKXtn1NsdMmTHoNJXNrM1aW93iiI5i3evvErpjw80dNRvmqvl12p5nTaLBHvNVntHbmKeasUxxPa+ozzjwY+3nyRMRM4PLLud6kXfm/stc6radZcY8eMTn6+ZY8frgRWq5DciwjqY37sFuEHEaLKyhppE2s1evTbVsjzhK5TKkvZ6e6P2bvY09lHadFvPjv1Fg626ttirlx4t2rfLOe8xjvE7T0nt+ScuSsWmb4NZvGovpNVj72jFaLY66s6nxJ8afFvV5NH0Ft+TYtmpeaXvpfd0jn92tNVu+opbHW1Ym3vMOhxW1FLViZm0R97Lr6fXUraer/ABrfvct7G3vXO3JWxqueQtxVtW2b84inrXHYumabB3Hd15s7Spr4D0p9340sR3bS8sJbEZhEj4E8+Pa39oDY/G/rLacfQe0X6Y8LejNF7jadujQ6La4tqc37TcdxyaDbf+54cuqvTHgxeWcmami02nw5MuSazNthvCLw71nQmyarPv8Aqa7l1dvF/PrNTOoz6zJ7vHOT7NpY1WqrTUZsWD3mTJEXitYzZ89qVrS0cYxPTn5GbufVH7et5Ur5nIGOxOfiUpC/jxxPzzVUEXDilY85+Fi0eyj290qzjOce3jeD2x+j77f7DPs/X8nbpGekI44nzUtvXTGfLk4iO0R5sVeY59Y7RbvLBngxu1s3j54k2tgtjyb5/fEWtNomP/Dt3phwxae082pnvanFZ7ebzcceVdX3n9LBzslzC32E4X33VOH+UputQqTdZM3Wr9mXutjR5TH1y/Z3vS9jgWOrXbVLnNdJkpYnqlR4Nd5+HEBtC8Cey97dOHwa8PreEniP0puHiD0Vpdbk1G3Ri1mjvXbcOpr7zV6S22blptRpddprarjV4cPvtL7m+XVxXn7TM1yB4r+At+uOosfV3TO74ent8thrizzbDmi2e2LmMOWuo02o0+fTZYpPucmSIye8w48VL1mMONYRK5i9VP06MsSOW487lbhyt+U0/Ybrby+WuMmYUZmXhLEbmyvgM7Txy+pthpb1htMSVCbypLLDD7zhtbg8PPYU9sKuaPD/AD4uhPEPWferi2zBTYN7m9rY4tfJ07nvfZt3pW1/LTBs+THqL/evky46V5jEn/aHx68HL0t1Hiy790/TyxNs+S246KsebiK13GmOmv0vMTafea6lsUTWI5+FsxnUH1DuDe3SU61TPTOPeYIsB+fZcS7i9FRcTIUNxDcu50e4jOfdN819GXorjjkNWJsJubHxaQoLzqW886/aE9kHxQ9n6399a/Hj6v8AD7Nlriw7/t1bzp8V8sTOPT7nprTOfa9Vby2pSubnT6i+LL9j1WeteWyXhx4ydLeInm0Oltbad/01Yvk0OeJrNonmZvpc/EYdZjif35wTOTHzH2jFgtaKsgtRb2dFZQLmlnyK61rZCZUCdDc+XIjPYxjHxN598LSpGfgW2vC23UKylxC05ylWtnT2/wC8dL73tXUWwbjn2retlzVz6XU6e84s2DL5fLa1JmL1tW9J93mw5KZMGpxzOLUYsuKZrGTtx2/Q7todVt25aXHrtv1tPJmw5KzamSkz2i0fvdrferesxlpaItSa3jl93uF0/wCGPVv4AXoW6Kq+PezXGECytuGuXoVcmTO026skR0TEvw0Otu7Nw9eyYUCNtGuLfThKmItjAehW9fTW0buJ7KvtS6PxT2vNotXbHt/XG04cVt00FfuYdbp5t5KbnoKWm9q45v56ZcUTfNt+e1sGW+TTZsOXU6DeLfhNqOi9bGo0c21fTu43tGlz2/fwZOPNOl1FoiI89axNseSI41NImYrGWl/Jjm9Cz0eeQOCeUtw7Y9wtAY1nkvjXY9t4z6/8dT5Cbpqht6uRP1bkHntqf8ptmxasGFTqjSJeIzEj8gSrK7zlhWyYr6/bvqjqKmuw4tDobzbDeK2y2+FuYi8Y+OeY4iYtkj18/FYnmssN7fobUvbNljyzSZisdpjt280T6T35jn17d+OUrPHt7Y84x4x7fq/R4/R5x/N7ece5Y/aY49fn9e/PP5/L1+asuU5UlWFIVlC05wtKk/F8SVJzjKcp+HGc/F8Xw+Pb6/T9GY+a1eLVtNL1mLVtE963iYmLR9efT68ITEWiazHMWieY+nx/l6fVVunnYsIDMjzj5mE4afxjPnw+3jw549vZOfZWPw8Lx484985v2Pcq7rt2DVcx76I8uWI/w5K9rflM/fr/AMNoWhqsE6bPkxcfcifu/Ws+n5/CfrD6hWEuAeKs+PH19/b2x5/yf1/UBxheP+N/yF4/m+H+ADn4sfoV/wAhf/sgPix+hX/IX/7ID4sfoV/yF/8AsgcZV+j4v+Qr/wBkB8Xn2zjOP5M49vPj2z+n3z9P1e/6Q8vPj2z9f1Y/6P8AGAxnz5+vtnx74zj/AC4A5AAAAAAAAAAAAAAAAAAAAAAAAAAAAAAAAAAAAAAAHHnH6cf48Ac+cZ+mcZAAAAAAAAAAAAAAAAAAAAAAAAAAAAAAAAAAAAAAAAAAAAAAAAAAAAAAAAAAAAAAAAAAAAAAAAcZ/r/J+j+UhI6Tt038xiChXn4/El787P73GcpZx4/HGV/Hnx/xcZ/DBj7rnXzGPS7bjt/5s+9yR/w15ikTHx5tEzxPxrE/CFZ2fDFr3z2jjydq/nzz+vq6MY55ntE9+0fxn1V/jvM/MA6byLyFpnEugbtyjyNsNdqPH/HWqX+77ttNvIaiVevatrFZJuLy4nSH3EoaYYr4j6/zs4wpScJ848n3ixZM+THhw18+XLaKVjtzNrT5Yj85mI7cTzMd49Y+b3jHSclp4ivf4x6RM/CJ+ET8Ofh354mD7wp6yXNvZzv1dL3qn2Wz4V7EbbG1PhjiRmuhZ2HgDXqqslu6Y8yyxGYfnyZlHWT7XfWJLkpyHYT5D0F/FfSZ+8a8e2/7OXT3V/hJrPEjS7li2Lq/wr0WXUZtRqM+auj3Pbbamnv9Dlreb49Pqp1GbDO2ZsGLH9ozRTR6uM9smknT5Q8CPEnddi6w0nS9sF9w2Tq7PGOMNKY5y6TV1xXmuppaIpbLhnBimmrpabxhrWuowRjpXV+9vz7993td6cccxvycmp2LmrfI1nH4x06weWuCyivQ01b79tjMVxDqNJqnJcT5uMKYVYTJcauZdZXJU+1zT9k72Y939onrHPOstqNr8N+lr4bb3uOCOMtrZvNbBtOgvatqW3LXxjv5bTW9dJpq5tZet/d0x5No/F/xS0vhtsVbaWKavqbdYvXQ4Lc+7p5az59XqfLNZjS6fmJtPmpObJNNPjtW+TmmKbpt6fW29vr5fbnufsl7d6xvL0bZKbW7e1bg7Ny/VRsOv1FptEqG8hWocOoZeeXV0dcmJ99iOKUrEKqkS2LPez2iva86T8Atk0/gH7M2l2vS7x09SdJl1mkvp9Ro9hzZJimXBoMHnyW3TqLJeK/bNx1FdT9nzxWJ+063FiyaXAPhr4N714g6rL4g+KuTVZNu3C05fsuri+PPr6RWYpl1PmisaHb/ACzPuNDipitfFxOSuGl8uHPdFy76lNNq9mz1b9N3hOs5x5Go6mwotczqdL9z4W1F6ogyIsaPr9br6oqNoqYdq1EjSrHMql1aO5h2I5sWbBpUNWEfD72Mdx33R5PHP2yfE3N4ZdJblnxavWzrtVXJ1Hr66jLS9r63Uav306DNqMNsmbDo64dx3rLTyZce100t/e1vvfvGrR7dqsfh94K9L4epd102G2LDGniuPbNNXDFsUUxY9PHmvTFlrXHfJ5cOhxTFqTq7ZY91bM1SKs49DULvnEOXDFPWu3bqEMsIctGYMdy1UlphzLbKMzESfCW1ZQlPj4c/Djyc4N2poM+67ni2mk023PqdRXSRMzeY01s+Suni038t729zNPN545tM9/vTZszpff10eC2tv/3muKs5Z4iIm/kjzzxWZiJmY54j0+HMTHMSr0wtobZ9SCguXX2045Bsez9cx5X5+8Ob3aXXJEZDSvOPmr+VreVJ9vCkpUr64xg7/e2/sU5vY33nQY8XM9KYui89uYjmldrrpdrtM958sROqiJ7xxPEcOefgbulq+Nuk1GbLWld5ydQY619ZtOozZNfiitomZtPutLa1u0/4rRMRSOZMHarVee9w4Wvq3rJvEDQOaYlvql5qV3bymIdJNZpr+FN2HXLh+Xrluy3Cs9cTZRPicrpSG3ZLT3woUjDqOKngPv3hT094k7Zq/G3pnJ1X4aanT6/S7hpsNL5NTivqNLemk1unpj1egyTm0er9zm/ZarDecdb0i14valt4uv8Ab+rdy6b1WDojc8e1dS4smDJp8uWeMVq489LZsN591mr+1wRlpXzYsla5LUtanlr2xj6N6mnK/CG5ROEPUp4Se44m3GHq+FzFrNCqToOwQcuzI71lda1Gn2cS01r7s0yuVNobG0VCYezMvaSih4ypO7PVPsU9B+JvTufxQ9jHxMp1hi2+YzZentZrPLuekzcUtXDpddfHpNTpdb57Wrh0u7abR/aMlYwbZue46iYhgbavHLqHpPcNN0t439Mxs9tVGSsbngpWNHlpjpab5c2C+bLF8Xl55y6LNqZxxHn1Wm0uPma077kemRrVnURO0PQubErbKOiJyNF46492GPEprlpEdywj7718vq2ej9i2zqiOuvJroshursvjcTBzXzJUxUy8PZ29tnctBr9R4H+1bNMukyTk2i+7b3jxV1mmmb1xW2vq3R6uPPrdDM1jFOtzYL6rS8U+1RqsGHDOCkeJXgVg1mkxde+D8zjnHGPWV0Wht5cWbjzZJ1ez6jDaldNrLRk95GGl/s2qjmuP7Nky5LZrmPTM9QzPZyl/sQcuWUBHPWqU7thAu20MVjPL+o1i2oc7ZGatDLLdXvVc+40zsNcw0hn5j7VlGYiNSH66uwl7aXsj4vBnW4/Ejw4098/hJ1Jnil8Ncn2iNh1uo5vh01dTF8nv9o11a2vtOsvlyWiK30eTLqLY8Oq1V8eBXjFn610+TpXqjJ5ertrpNqZZxzgtuGnpaKXy5ME0p7jcNNf9nuGlrSkVt5c1ceGuSdNpaSeon6mPYDq/2E494767rl6He8ZyNO5a2PZb+JERVcqRpk2U5W8bpTIiSlY4msGKu5gbJMZZxOdccy1Xradr1rXsD/Z4+zx03r+nNR47b3uePd931ebX7Xtei02a8Rtc4qUx67ProrNIvrtVizYq6bSX95gxaW1NZemTPfS3wY79pLxH3Om708OdDp7aPRYMOn1uszZK0mdZGW+WdLiwVmJmNPjyYM1s2avusls2KuHF+zrqYvL86fdpOPO6PW7ijstxh95ja1ydrbdlK16yejOXmjbZXvvVG7cdbOiI+6iLtFBtUG1q5zSXF4w9XZUlSkqSpW9u4aHLtus1GgzTFsmnnyzMTE1tX1rasx61tXi0T3jv6z6teNPnjU4ceavPGSInvHEx9JjiJiYntMTEd4n8rliT5mfWXsAdp1SZlmauJlWMNy0ZyjGfOP3ZnHxY8fozlrK8fr+HH6C9OitfODX5dDa3FNbXzRz/AJ8fft9bUm0T8/LX5QpG74PPhrnrH3sU8T+Fvn+Ex2+XM8evE1Gx+Pv5/wCjx7f5cZMqLdjn4uQij0faa+Rd/wCMPTYrNj423veuOtildp+vOuPbFx3vO58ebJ+Rdj2G0qbiva2XQ72usWIr0SSrC20SUtrUhGVoX8KcAQKv2zfaP8O2HbzHj2zj9uD2l9s/q/7r30/r5yA/bN9pP+Fj28/54Pab/reAftm+0n/Cx7ef88HtN/1vAP2zfaT/AIWPbz/ng9pv+t4jMzPrPIftm+0n/Cx7efXH/wA8HtLn+bPL3uQEg77NFzZzdvnqMbPrXIPOXPHI+uq6j8v3WNf5O555o5PoGbis5P4EhQLWNQ8ib9aQolm1FuLJpEpqOiShuc60h5LbzqHArn9oU9Wfs7pPZ636S9cOStp4P0PjHTNLt+V9146s00HIfIm98h1MnYWdRY3Jhj8oabp1LpsjWn3PyQ5Bn2k/bfObNiNVriTAxm+lj6wvb7rL2f4U1bknn7l3m3rnyZyfofFXI/HPMe7XPLcuoj8sbpU6FVchaPufIE+ZsVDslRtWy0Ep+P8Alp6nl00Sxh5qMz3IM+IGybTnOce/j8ce34+M5xn2/D6efr7efGQPIAAAAAAAAAAAAAAAAAAAAAAAAAAAAAAAAAAAABax3l2za9D6X9s930TZbXTN21DrbzZs+o7dR4r83Wr7LRcc7FZUew1OLeBKiZsoVlGjSGMSosiP8yMnDzDrXxNqfr9fqfwn0Gtia9YH1V1NNOZ9Q3sp+6MMOeMNcF5xhTjSFqxj/uHe/hSs/jj2x9cZz7P1+v1P4z6iYF9mu7Wdk+1/XPs/sXZjmvductk0Ts1A0vVdj3tGrt29Xq0rgPh/dF0qMajrVVEXGTsG1XTyVZi/NziThK3F5RhWQkhAAAAAAAAAAAAAAAAAAAAAAAAAAAAAAAAAAAAAAAAAAAAAAAAAAAAAAAAAAAAAAAAAAAAAAAcZxj65/DGf/f7fyEJ+H0lCfRSS6kfebSY5jOFJQ7lhvOM+fzGP3PHj9WVJVn+Uwj1Dq41u867LE+amO3uq9+e2P7s8fSbeaY+kru0GKMWkwx8bx5p/93f/AE4fLKMmz6Y8+31x9cZz/k/X4/r7ZduPXiZ/+Z/oTPCLh9p37ZytH4L4i6Yarb5hW/Y+6sOQuWYzDjqJMngriGyqFo1lam1/BmLf8rW+lRp0d5C2LCipbmGpP7rnKb66G0Fsuuy7rNfu7dxXHb70RGfJWeLRasdrY6xNq9+Yv5Z4tETCkbtniuOuGs978zaPnWPWJj1mJnjn4ccxPHPMYpvSH4b1LjHjLlzvbyy7FqaiqqNy1zTbq1wlpvXePdJ+OZyxubbsplCmJFjsNOusSrDi21w9NafYUlM57Cucn9oV4j9Qdcdb9Aeyz0BW+4bhr9Tt+r3HBh5m2r3bcp8uw7daMc3i1NHpc394ZY8tb0za60ZK2nS0muz/ALO/Te3bDsO/eKm/3pp8Gnx6nFps2TiIw6TTc21+o7zH3sufFbDMxbn3emrxEee/PcvSm6kX/rKd/wDkTtD2P112b1p4as6C82zTrPwmvvrVDq7fgPrA+w2lxMvW63W3ntm3qJl5KJr13FhZ+9VG12EVvpB4P+FeweCfh30z4b9NWrm0nT+KbajV19dx3TP5L7ludrdptOq1FK1wTxE00Gn0OG0TbD5p1j6x6t3DrzqDdepN1r5bbpe3usNvNxg0UTb7LpbUvEcWx4b86isxPOqyam3M1tERk19T/n7mb1Ku20b0ZPT3VT61oesYfx3S5qjUDWNQpKundrWr/SLCwrUsOr4411E2Cxc1dZIhS912udB0diyh0lXvbka9abFsmO2nvTZtHW2jtXJhn7JprThy0tF8eXF58Vox5cV4jJiy0iuTFkiMmO1L1retIybjuGeuXHn3DUZMWes1yV9/miMlLRNbUyeXJHvMV62mmTHfnHlpaceSJx2tWchlF6UnDfQrhOBF66w7S0iVlfAc5d2jalQ7PkPermNHbiy+Qb25hwmULh5WlOM08RmLU0kTDbNLDh18f7qnmJ/aH+AnV/Um2T4z7T1Jr9+2jpLBEa/Z9Rly58G16aOIzbltOGsTGLDzPvt1x+7tlj9puGPJMxqsGo2o9m3xA2PQZ/8AsRrNq0+2blu2WbabXY6xS2ry8cV02qtxHOWKRFNHk5ik1iNLFazOK00C3uzTSaTulw4pLaKbU9msnFuK+FCUwKOwlKUvOM+MJx8v398fT+XPIfpTQ33Dq3pra5pM5Ndumg081iPvebJrMOKa8d/vRM+neeY4nluFumf7NtW46mLRxgwZcnPw+5jtaZ+fHFee/p3j4IUPpyXUim7b9Kbd5xbTit/1iFOXnypXnaeKtv1lxDqs+2MqnX7KVec5+LKvhxn4lJP0r+2JtlNy9nr2kNvxVjJEbPr8mOIjtxod40WtiY4jnmMel7THfjifx5f+C+qx6HxC8L8nM3pfV4MVbx3iI1G2arDFpn/ii8V+trx6+kzh/pjHnx5xjGMfh9Mfj7e/08/j58ec+3nx+Yi3FpmPh6T3iJj4+kcxPEz24n8OeZmeqMxH7vwj6R39efw45/kqbq/RHj7vFqew6RzlrDF5wt8xLFvhWXoV49sDSUSoK9Ivoi0S9R2WC4piUm5gvNTYDqWfuriZOVLY6HewH4IeIXVXX+m8Vtp6n1vQ/R/SWacGq1WjvFc28ZZrHvdipTJW+DLor4rxG75NRiy0x4slNFp6Rq758+h109oTrrp3ZenL9L6zbcO/b5vWOb4cOb71NHji0xTXXtWYy1zVvW0aWMdqWm8Wy2tOOlYy4muCdn5Z+zv94qnq/wBj9hxyD6ZvazbreTxDzXfVMBLfFuwTX2lL2C2faSlnT7usU/DjcjU0VvFNa182NyrQxqfETkCujdxc2x7Jn12v3PJs2kvr9wmvvs06fHbNkjHjpgxUyZr1tlzVw4MePBi97e9q4cdKTeYrzGhmDcdyw6TT6Gm4Z66bSxPkp729aRa17ZMl4x0muKlsmS1smT3WOlZyXtby93QPtCfp+2HU7mfQPU/6nMxtNpNu5Eoc8sR6ptLlFoPYGwzHrOO+V66vjONog6Ru8dUvWdrhRcpam213CeYbYf2W/nPSvUPTHT/VnTO9dG9SbXXculeotHk0Gt0kTGOuTR5YpWaY548uPLgmmPPo8nlmun1en02eKTOGsR77bu257Puei3na9XbTbpt+fHqMWXmZ/a0v5o956zfFl5tj1NfXLgyZcfMTflbz3i1/Ve/HQPRe5fHNQlnfeK9csNzsKiOhqfcwdbiSG6vn3imYqCy85Ln1FpTSbCMwwrOXbDTYyEry1JcyrkJ7MO7777KXtYdU+zl1huc5ulOutXi2/BqMk2xafJrMlJz9Lb3jrlmlaY9xwaiui1GW9ZimDXZLeSL4qeXcfxW0Wi8WPCPa/EPZdPMbtsGKdValYibxhjim6aG1YnzTfB7u2TFF5rWcumxzx5L25qd9mQ7cWOo82cvdKNnslu6jy5rUrnTiVDshbseq5K0BNPr/ACpRxMvO/BFj3ejTdOtIkaM3n58zTr6e7n5r6sudW+udvrfTabdqdsuKYw5K8cT5LxM4pmZ548l4tSYtasxE0iI/e8un21ZvLktg80RF+bcf4eY/e8vziYnzRPfvzPMcwmsYx4xjz9fx+v185/X9P4DG0xMduJiPr68/Hv68enaYiY9J78xFw/h6fz/P/UID3Rn1RZLEhHj4mXm3Pf6ZwhXlSf5W/jx/+b9ZMaPUW0er0+rrPFtNet/xiLR5o/OvmiXnlxxlxZMU/wCOsx/X+itCMpUnCk58pVjCsZ8+fOFYwrGfP6PGf5zPtLVtWt6TE0tETHHymOf5x3WXMTEzE9pj1/F5H2Mf3qU9AdR9Sbrix1y3XkjbuK6aPyXo/JrW16TT6rd3rVrob1hLqYjULcquZBwyqbNacUtcZxacxU4TjHnOcBgZx9kj4Oz/APPt7N4x+Hjjrrhj/wD5j7/X+b29gLU+9P2a/iTqF037N9oqHuH2A3q74B4T5A5ZqdN2bR+Ca/XdnsNJoZV3Go7udrvH8afFrJK4uGnnIchmQhDmVNOJVjHkIoMpnDEmTHxnKsMyH2ErVj4fiw04pvCs4T58Kz8Pn9Hn8fGPiAzfejZ6Q+h+qfR9jrbdOe+UOEnuCNy4/wBWrmOONd412FraGd10xzaZMy3XyBq1iqE9FfbSwyiJ8CVIUtb2Vqy3hv5i3M2j/JPH8Yif6jNb/wBiRcG/8O7s5/8A4764f9PGJ9DIH6a/oRcY+m12Ft+w2qdleYeYrm14o2rifGtcg6nxLSUsOt2zZdH2WbbR5eh6hXTF2CJGjV7SUOPLj5bluqU3lxLS0Bja9ev0VuyXYnn9/uh0+1OJy3Zbjpuq6zzRwvG2PXtX3v8AL2isSKXW+QuOl7fOr6bZsTNZl18C6r5lrWSmEanAmV7k3LkiEp+v1+pGP70w/QC7l792S4t5J7c8Q2nXHgviDkfTuTr2q3zYtGsuReS7rjbYqbeNQ1HVNb49228ZrqGTuNNTO29paTYuW6+skwIVdLenom1wbAdP0/lzn6Zx9ff6Z98e+fpn6AeQAAAAAAAAAAAAAAAAAAAAAAAAAAAAAAAAAAAACzn1D/7Qnup/FT7Af6LdnA1NEf8A2NF/vSJ/m7QE5z7Jb/at9zf44NN/6LHXwCWCAAAAAAAAAAAAAAAAAAAAAAAAAAAAAAAAAAAAAAAAAAAAAAAAAAAAAAAAAAAAAAAAAAAAAAB6nnMNNOu5+jbTjmf4EJyrP+Q8dRkjFhy5Zntira0/lHPP5cERzasfOeFFPiyr87PnyrOVZ8/Xyr3ya+za17WyW9ckzb+PdfEVisRWI4ivaPwjsAPOcJV4x5zjHnGPPj3x58e/4e/j/GPWJj5/wntPr/H9dj6/GO/5f7c8Nb166HM91zf6onZ9mmz9/wA8Nu8cdZ+P61ctT8GZY6XplbtCflN/AnEOXO5N5hvYL6UrzhaaqOrOUqx8KczdKaXR6DZtDm3DJbBo80ZNVqsnE8Y9NW1vtGWnPPmri0+C2SbcdpraJj7ve0t0yai2bN7ivvNTPGLDXt97PfiuHH3vjrzkz3x0jm9Y5mI89efNF7HqaWNT1R9Pbgrqxrb8mvrdjzpvH168y7l2RnQuK9a/Z1vkifhxOczGbW3poMGb8Xu6nZHPjwpSlYVyS9iTQ63x79r3xP8AHPesddZqNotr910nmjikbnvusna9qri+GPJoNHlzajTxHEUtpazE+WI43E8d8+m8PPBnpnoPRT7nSauNPo80RF5mdFt+ntq9Z5qUrE3jPODHhyxMxSY1FpmMnE47SfvSS6o7b179IviXjzje/oNC7B8xcO3nMt9v19r0rbqXXOfedKSRtDNxca5CuqyTs9BrMq0oauLX4s4bzlXpsaDiayrGH8dd+n972zqXZdr3/Zs32nat3wY8+nyccebFkjzVnj4fHt8PT1iWn25aDV7Xr9Xt+vxe51mjvbHkp2ny2ieZjt2+PPPM88vt+jr6WEL0xeFd2pd23im5n7Hcv7jK2TmPnSJV2tdN3WBUS7NvS67ONinzLBlGE2l7e2qHpj6Ze2cgbHbfGpyxWtVYSLLzNiRZ0STCmMNSIkuO/GlR3U4Wy/GfbUy8y6jPsttbS1JVjP4KySut0um12l1Oi1mCmp0msx3xZsd4iaZMWSs0yUvWe1q3pa1Zie0xPHxeuDPm02fDqdPkth1GnvXJS9ZmLVvS0Wpasx3ia2iLRMekxE/WIu3qFf8AcV4H7i/Arw3x9xXzOiCtec5UuLB1a2VT5UpfjOVqgSoGM5znP56s5+LPsfnU6Z8LJ6Y9s/o/wqjHNNHtPX237bp+LWyWnQ03LTanQTN7RFrWrteXR0v5vNbz0yTOTJ5vPbpTvnV1tf4J7x1jWPNm1fT2p1c1iI59/OhyRlpWO0R5tRjy1p3iIiYiO3MRCA4St1aTzNwRbRc/JTrPN3BX52Vf+CgxeVtKr5ql/itH5MXLwr8cpyrH1zg/QH4lbdTqXw58T9uzx5r7z031N24jvkybJuOSnrHr76K959O0z2jhzq6RyV2jqPo62PNGlxbZuez1ieJmIrj1+krNO3PPvMc2xz69pnmYniU91z81T6k48/L+e4lKvfCso+NaE58Y8+FKwnGMfX87GPOM/nY/KRinyY/eTFI9zitk4vH3JnHhtkit4iaz5bWpFJ4tHrxHrzHW+tfPGOs94tNYmY+E29bfHiIrbzfH0jt889vEWlxOP+ONS1SM2lK62miZsHcIwhcq3moxNuJjvv5U47YvyFZzn38eE/ROMY/Ur4JeH2h8LfCnoboXQ0r/AOB7fgrqMkVis6jXZq+/1+pvxMzOTUavJmzZLTMzNrzEzPDlR4gdSajq3rLqHftRebRrdTkjDHMzGPTYrTi02KOfSMeGlK9u097f4uZtG9Tbonp3qJdQuSuud+jXYO2z4eNn4g27ZK56yrtH5YoY8nOrXc+NEUl+VrUluTPqL+G0rH5S17YrStdwtmUtCsqLOU/0LoVuuxelqj08+23J1RzlsMngW74JuuVKWr2KkesayHDl1nGewLc2W+srCTudFAjarldy7Jw9Osddxa/JiuP/ACGoT27xHPH+8fr5fP5w7f4vT9fn+u6HZ6J+93sOd2b6mclojP2NJPk7HaVSHVOUbO31V1c8J8+6/r8aQhHihRtOowZaVYxn5ytgckLSnL2VZ5L/ANpn0dj0tPB/xr2HLFNfgy5tkz6jD5eZ+z+XeNk1N8tZ5vbnLrMGG3pGDT4q1+7Xyxt57Lu8XtbrPoTXY5jBb3e4Y8WSbUrWc3n0muxRSa+WI8+HDly1pMzOXUZL3pFp8+TGlwReWHRX1HOHbWPhUdXWTuXrWpKbS47lKeObrc3eIprtg4ttTjiMcC8nypzylZTjLuMKdcS3hzz0s6U6qxeKHhh0v1timc1uvdk0e6WnmKcavPpsebWTWK8UiKbjg1OKscWjyV4rETFJawbzs9umOpt56fmvkp0/r8+kr5uZ5wY78abvPMzNtJkwXtbvPmnmbTMzxtEs4TjKvgzhTeFZw2rGfi+NrGf3NXxYxjzjKfGfP8pjSI7c8cc/y4/w88RE+X855mefgrUTzHPHefX+EdvyAi4zjz7fhn2z/Bn6/wBf/gQn6+n65/kfr9flz/NV6me+8VUB38cxm05/hbx8rP8AOjJnLYc32jZttyz62w0ifxpHkn+dVoaunu9Vnr6cWn+c8/1fTKulgABjC9an+5Keo1/E653/AKCWoGrwsf8AbGw/v6Z/nLgEzf7Ix/uN9Qf/AAt8E/6JHzzp+9m/5o/6KCYqeg4z/X+v/wAQMA3qNevnxX6dPZV7rPtfWjmbl2/j8YaHyjI2bQdp4oo6Nis5Atd3qamsdjb/ALbWyV2CH9CuVOfJQ83hCm/iUjK8JzHjn48fr8YFvPXP7Tpw32J594X4Dqem/YLTrTmjk3UOM6zaNi3rgWZR0U/bbVqtj2lpD17fpU6RCZw4p1xEaO68pLWcITlXw4ymOPjz+vxkSS+RdvxoHHu9b5mBm1xpWnbRtuaxMlMPNjjWqSfc5g4mKbcxF+diDlv5uUOfLy78WUK+HKcwEQio+12a1cU9NdMdC9yxHuqeouWEY581PCkM3FbFsmm1YXpKVZUhEpKVeUp9059sfQDI91e+0J9e+YeqvZntpzhxxd9ddH65cj6TxWzr6tpicm7fyrvG/aNU7prWp8f1FPSQc2m1TM3EeJHhIU4n/W786VIiQY8h5qEzwMDfO/2pjvRumyzHOvnE3X3gXRWpliiohch0G0c/cgT6xbiPyTL2G1q961Ol165wxhWZcKAzdQ23nMIjW8xlvD78fWIkfS6+/am+6WmbHDT2U4f4J510h+XHxb/2LajYuB+RKyuTjKZT2v42Ddtoo9ntc+Mqai2DuvxVLz8L1nGbzl5AS59U9TXpjtfSmT6gLXMFdTdaqynlzdh2S/gWEDZNY2Kvs29em8Y3OkNsOWmOW07c9GpWNbjx5FpYW0+LCrY8tyZFw6EVXs/9qn7F7JstzU9P+BuMOLNFiT1MUO7dgY97yfyJsEFhzLS5tnxppW00NTpH3jxhxln9kl1IbbWjExEaT82IwFtmhfafPU01m9jWG8U3U/legQ4tcrVs8Q73xZLmIWtGUMxt1peXr7NN8KfjwlxdHY598ZUhefIEqz0tfWV4D9S+sstOhUk7hbsrqGttbNufBey3MS+xY661LiVVjvXFO5xYkZrkTQmLqbBjSnVRK65qF3Fdi+pqvNnXZlhmJx/D5/r9QOncg8haLxRpW0ckcm7hrPH/AB/pFNN2PcN23K7rtb1XWKGtZVIsLe9vreQ1GrK5llOVLdecSnGPx8+AIwHaf7VN1v0G3t9W6jcH7r2blQMqZi8n7deY4P4Vs5CJLjK10Eyzo7Ta9nrFRsIfjWEfV26mc2+0uHZOtqy4gMcr/wBrH7rKnKXF6d9UG6vLvlEV/mDmaTOwxn87CM2KOPGkOOfB5/PxFTj8fgxjxgC8/rr9rC0C6tYVN2x6mbZxlBlynG5G/wDAm8o5w16miJZQpubd6VsWtazsrucv5cR8ijgX7/jCF4bzlWUNhKM6+dk+Cu1fGlPzB145P1Lljju7XJjRti1OyRMbh2UB1ceyoryAtKJWubJEktramVs9iNOiuIU2/HbVjOAK34/H+v8Ai/x/zAUR7Fdj+E+p/Euzc4dguQ6LjPjPU24+LLYbxx9xcqxnPJi1Gva/TwGXp207ZYTVtx62pro8qwsJLiI8WO64rCchEn7KfaxrnNvOqenfU+HL11iXNhxuRezW22Gs2VnEbkJaiX9PxDx5CnyGILsXKnm4l7fUlojOEszq+E7leGwx8K+07eqdmx+9oX09TDzJ+amn/a4ciKZxGy7leIirP9s38/K/lfm/Nw359vmfLx+8Avv4A+1lbxGtYVZ2q6f0dnQvPMxZO69beRHMX8RvKvDttN4x5bjQImIiW05UtmJtkuVhTiW2WZGPzwJQnTL1E+oPfvVZ2y9YuYabdLCjajObjx9axLDTuWNAVLW6iIjeeMdpjxbnXGX8suZiynYuYMxGMPQ5MhhSHFBe159/0eM5+v449/cChvYXstwT1R40tuXuxHKOpcUceU7keI/sG12KYn360mrSzXUNDWNIcl7Lssp9SW4dbXsSZ0pxeG2I61ZAi7diftYXH9LaTabqf1M27k6DFlNtxt/563hrhDXriIphSlTaPTdd1vZ9lbzh/wCWn7ve19DI8LUpTeMpShYWbQftZHcxFhhdn036rSanCs5+6wuaOZK6wy374wjFo9xjKbwvx/42YecefqnHjPgMpnUj7UR1I5ds63U+0vHW4dRb6ZiHGXvljcQuUOBMTXWFuy3Z+/0UGHb6RSsuJ+Fdlsuu09a38SVOzUefGAkwa9sNDtlJVbLq91VbHrt7AjWlJf0VjEt6W4rJrSX4ljVWkB1xiwgusrQtt1pakLSrGcZ8ZA/HuO46px9q1/u+9bLRadp2q1U2+2batntoNFruv0tawuTYW13c2T7cesrmY7a1uvPOJQhKM5zn8AIvnar7VF1m48urjU+o/DG69pJVbl2OzynsN0nhXguymNPPN/FrdxbUlls+51CmENvR7av1dVHPaktOQLWQ3la2gxyp+1j9y8WmHFdNurCqPDufMFPNPMibTLPnzhOLjPF+W8O+Pb4/uPjz7/Dj8AzAdCvtJ3VjtHuOs8QdgtKuuo/K+1zaqh1i32TYoG68Cbjs9mvEaPr1Ty3EgwXtPtn7J6JEgtbdT6+3aS5zEKrkTZrnyAK2+oL69XXn07+w8vrdyLwT2K5N3GFx7oXJMq24rY4dxrrNJyHP3mupoqn+ROWKGSqybf0G4+8IRHyhKX46kOK+NaWwoX1v+0ydXOynP3DXXvX+sfbDTdj5r5EouNdd2Lc2+vStYq7m+TMcjy7rOpc62lgmAhqDIUvMaDIc/MxhLefOc4DMF6h39oR3U/ip9gPPvj/+Fuz/AKM+wGppj/7Gi/3pE/zdoCc59kt/tW+5v8cGm/8ARY6+ASwM58f5ALK+53qFdSOgWnV+39neW6zS39g+ejTNEqa+13PlPkF+MttEpjROM9Uhy7jZW2MOJXLlMxfuUBr4pE+VHjoW4kI3HMH2tSiiWEqF186Q7PssCNPdjs3/ADxzTrvGLdpAxl9DVlXUXF+r7xIZ+NSGM4YnuQXkokeXEtutqayFPNI+1tcgNWqMcodCdUeoMIXl57inszY2uzKcy43htuHTchcKUdc7j5SnVZW9cR8Yy2lOMeF5UgM43R712ug3eHYqTjWj3TYODecL5TUWo4d59rIGl3Wz2q4r852o4+3KDaztZ5KtG4kdxxyJS3Mue0jHxPRG/fGAzMYz5x+n9f6fr+AHIAAAAAAAAAAAAAAAAAAAAAAAAAAAAAAAAAAAAAAAAAAAAAAAAAAAAAAAAAAAAAAAH4LTPw1s9X08Q5Hvj2z7tKx7ZKbvN/JtG53548uny/8ARZ76WItqdPFo5ib17T+MKPfq/DH0x+gwT27cfBePr6gHm14+az5+mX2MZxjHnzjLqPOPrj8MZ/T+rHkhMcxMfNCfSfwaux9cjmf1Lr1y7kOzpG7epJyJLeU/hCXX4Wt9wNttYUJaW048ob17UIsbxhP/AIKN+dlWc583h4q71k6a8C/E7ecMTW+0dI7zxMetb59nz6SLfPmL6qLRMd/N39Ut0fpI3Dr3pDQTaKzq950HrEW80YtZj1OSvE/5seC0TPw/e9awyA+tWte19pOoHGshSnam2o81MyJnOVsvt8sc9cVaTPcWn6fFipgy2/PnPs/nCfHv8Whf9mljp0/4HeP3WmCPJuGg1nvsWSvEXpOw9LbvuGGI7cxX3+WLcekTETxM+Vn/ANpysbp194b9N5axbTa7DkraLc2rNNbu+16XNSa8d/e4vNT/AIYlIk7491+yHWj0s+R7Dq7GgV29cbbFq+l7hyAlSZWycK9fN4sn6KbzFptJJrnYdla0d3Oq6yRMsV4r9XgWGdqmsWTFZ+S5eQv7PDxm0nXPhZn8Ntz1lf8AtZ4dWvbFivkm2XPseryZM2jzVm2OlrfYs1s+2ZaU99bHXT6bPlycavHM0D2kujMuydU4uq9Lgn+6Op61i9ojiuLXYaVx5cdp9Kzmx1pqKTMx55nNWsTbFZEZ4p9YH1P+LI1LJ0bvpzte61DYhfkes36fxxzZrthXxWW2mWXth5K0S4ub+K4lv4nZCr/Mt5S1LVNypSlZ6GT+Mf6fy/XpMfBrjxxP6/j+E/D6fSYS+vQB9V/nP1AI3YTiftRfaNf81cRscf79q95o2if2PIWx8U7ym81hx2xok7HZNu3lfvWmXOJD8dbTKouwV+fktLypJ8WiJiYn49v4/T5fP/74d/XjmI9f5/z+nxUR9YqVL3zrb36kapHetFWfG/J7cSPBackyLGrp6lmstvuTLCFKfceg09jlrGMfnYUn9Pk4U7B1rsO/f2kPTXU/2muHZMniFgxYtRktWmKbaTFg2bDnm8zNYwzr9DaYtbjzV8tqx5b0m3QLd9l3LbfZq1m14sX/AIpi6cyWmvFptWc2PLqr04iJmbVxZvLaIiZi/btKDLiU/FsGrCI4hEyBaw7aA/nHzG2rCrsmLWslYxhxOXEJnRIznsrGc/B5TlOcpzjujbDj1Gly6XNWb4NThyYMleYi8482K+HNXvExzNMmSneLeXtPltDQC1rVy1y4rRGXDlpmx2/eiuXHkrmpea+aJtFclK2/e78etZ4tEx/pb6gPFHb+iaqYeW9E5uqahybs/ElxYMyZ8hNelhuXseiWbrTON305Ut6NnL7bCJkLE5lm2hQZC8NZ/Od7Snsldf8As97jqtdeLdV+HWuvkrt2/abBPu65b0yZNJodz0tfe/YNxtanu64b3vptXxe2iz6nFMw6U+GPi/054kaemki9dp6kw0idToMl+81+773PpMk1rGp01YvHmy44i+K0xTUY8WSYic1vq6eobe9GOgKeeuIJeov8v8nbTxXxvwcxtkVNzRydi3ufGtdiuHteZsIjmzfkbi+n3q6zAbkx1P51/DanW0fEtP6FekOoNt6r6V6c6m2bU01m079odJq9PlpaLVvh1GCmakxMdv3bxz9eYniYmI5z75t2p2fet22nW45xavbdTmwZKzE8xbHktSYnniee3P4TE9+eUHzkr1t/Vn5bfecse7PIWkNPx8Nu0vCOh8Pca0bPwqcWuREW7x9b3cRWW1JSrKr13GEtpWn4M5WpVxT6Tx6x9ePp9fnHrHHPrwpfyj5/Tln69AT1IO1/LXXXtVH5k3OXzhxRxNb0Gv8ADnO237c/tG9WPM/I0e32PZuGMbI6t/8AZ5r1BrcjX9jXNekfeaONtbVKp2Q22zHrcE+0l4v6DwT8Jupers2Slt8z4raPZtNNq1tq9z1GO1dNSnmvTzU0/GTW6u0TE4tHp8uW1eK98ieF3Reo666y2naK0n+7sF41GuyRXmMWkwWrOTzdpmJzTNdPi5nm+XJSIj1mMQ/XOMjj31wea9Zrk4i1Vvd850uI7acNocxvmhcU8xynXGk5x5dd2NuzkKUrz5clLypXxLzk0u8Yst+sP7Mfw43rW57a/XbXo+lM/v8AJ5vPadq3Tdun63tNrXvFr6acdZiZm3PaJmI+9mborHXZvam6k0WClcWl12Td4mtYiIpbVabbNznHTyxEeW2X3mW0zHe8x68rA/V+pWtT7e9sZFW67EmXWk0/ImZEVbjD0e2seFodY1JjyG1JU3Lbf0xh7Dic4VhecKRhOcYNlvYW3jU7t7K3hRbNbmuy/wB7bZjie/OPSbxq81PSJrxxrfL247V+Pxxl486XHovF/q7T1tN51NNBrJ59KTn0VdPNK/Lvo5vMT/ivM9+eWzU4ru3dl4u402N/4vn7Bx5o1298Ssqzl611OnnuZyrP77OVyM5zn9OS7s1YrmzVjj7t7V7REdont6TPw4j/AHWtimfdU5nns74eb0AfCf19Pr+vn6TVLWVfFTxv+Kp9P+J9z2/nMx9IWm2waOJnmcc5K9/pkv8A7rW3OONbl+sVn+NY/X+/rP3i5UgAAMYXrU/3JT1Gv4nXPH9BLUDV4WP+2Nh/f0z/ADhwCZv9kY/3G+oP/hb4J/0SPnnT97N/zR/0VExU9AA10X2mX+6t7B/FI6v5/l/Zl2c9wMb3pp/3RXoj/Gy4a/pBkj8J/L+o2i3Y3+1653/wN8pf0IviA08mg+f2BaB4z4/7QtI/Dznz+xWn98fz/gBdb1z4J7C9tOQNW6vdd9Vt+Rdt2zZLDkOs0Nm6i0Wp1VlXa/U6Ls3L242dhn7prVNVahY09XY3jrUiY1AsWKeuizptlFqrAMuPNH2bf1KOHeLJfJsCFwXzLIoqKXe7VxvxFyBtk7kOvZgxsypcbS4W4cc1UPkyWhLb6vkolU0t1CPhhRJkpTcdwMA7LrchlmSwrDrElliQw54W3hxh5tLrLiUOJwpHxNrRnwpOFJ8+FYwrGU4DvEPeeRXNEc4Yqto3aTx3svKevclL4noszrOo2zmZGtxOK9L2GPq1ZDdmbJvOaGTApKiDH+diRIlw0xq9+3RXvtBnX44+zOepnvnGbG9XrXXbijZLGtYtKbiXkLlPZ5G6YYlx0SY1fultpXG9rUaRsCUOYTKiRJOxMsOJU3iYvKfIGE7nfgfmHrDy5ufA3P2iz+OOWdAkQ4+z6vNlR7OKqJaMuyaPZNY2CFn7ttuj2sNp16qto3wsy0R3477UO0hWdbBCoXS3n7aernbrrPz1p096Ba6Dzjxmi3y25JQxZcf7tuFPx/ytR2TcZ9vMqql8cbPsilMrUprEuDBlqadehMYSG2tm2UCrrZdtYzY0Gsr4kiwm2Et9uPDh10RhcqTMlSXVpSzGaioW44tWcJSlvOc59vIGtK9Yn1Y939R/medrukbBa03TLjXYHEcOaHFlZjwuU7KlmvNwuwnIMeO7lF1MsHGsTNOr3vmRaKpfhWymsbFNVmmDGz1+6489dr+SY/E3XTifdOYeQpUNu2mUmpQY33Wgo5E5cH9km57VdzodRpOvqktzEtyrawiffV10titbnS47kbAZtKH7MH6nVprci2t7PqNq+wfKSuDqUvnHkS5cdWptK8sWexVXAOY1Y9h7ylXyGrBvPnCkufhgMVXb709e5HQ66rqrtHwpY6RT383NdqnJmr3ETkPhjcLHw0tunoORqiNH+4bEpp5r4Kq+rqK0lqTIVVw7FiJJkNh7Oh3e7nT09Oe6bnDhO1mzYU2fVxeX+J3bDLOn87aNHciMWGr7NAkSmojO6tVEf4dW2VzKJuv2DUZtcl3XX7mpsg2j/Xjn3jbtJwZxb2H4eus3/GvL+l0m86hZPRn4Mz8m3UZL2a+2r5KcO1l3Dl/eIc+I6lLsWZCfjupSttWANd/6+HeHde2nfvlLjlnYZSuCOpuzz+GOKdUiz/vFE/vlHCzX818rutMfA2/tc3bJ9rqjbjuHXa2q49fjw32EXtyw+GOTqd027J93+TH+JOsPGM3kbbKypZ2DZ50i0h6vomga9NkzINbf8ibzaJXH1itmWUGfHgstMT7axdrpma2qnNV1m5CDNgz9ln9RZzVlW7nJfURjaUxFuJ0fO/cpvxFS8Y+JEdW/J4jShpv4vCcrxRrwnOM+MZxkDE9299M/vH0TjyLrszwNa6tobLqWscx6TcQ+TOEfK8urZxYch0kaO7p2MsoRjLm0VWvsqfeTHiuS3lIwsL3/AEJ/Tu517e9stW5r1jb+QuDeGOr+4UdxvnNui3Nlqm4X2yRZNVszfXbQbWC+jMtN1Cj1Lm7NSUP1MXXJzUOTBl2lrCXUhsLOxXPvG3Vrg3lPsNy/cqoONuIdMu942yxajvTZyq+mireRX1NdHQp20vZsvMaHAiNJU7KmTmY7ScrWnGQ1bfe7vRzl6hnPdrzrzjYSIyIkq0icR8Vszcy9S4F0WYt9mFp2pRGpDkZ3aXat1tO07G18U3Y7FT2PnNa/HpamsC1XUdR2vkDa6HQ9C1XZt73na5DkTWNK0nXLrb9v2KQxmPiXil1jXIEmbYtR0y4q5b7TKo8Fl9L856NH8ugX/wAj0dvVbi0C9jd9PXsT+TkQ8TMsM2XAEu8w0pGHPg/YtD52ctVyMY8YywmFmR58pw18eMJyn6DHfbVl7q95a65sVBtmp7drltGo73T9m1PadX37XthmLiNV1Bb6HeU8a8qtlluT6/ECudr0z7DNnExAjScy4uHQ2Bn2droj3D6ccC7Pfdi93v8AQeOuVI1XsHF/TCfHgSGeG5k2TLtb7kHYX15e/sf7pftzIuZ2pUjjVVBXFds7bMvYrKf9zCOV653qt7X3o5127gLjTYpETpzwVvE3XNeqa195qt535K0iwVB2Dl7cE+2brWavboNjA02ufRmC1mgc2/4Zkqw1+RShgXdeQjPzX3cIy4/HZ+N1eM5dlTpTMOIynKs+Xpb86THZZbxhTr78ppltLjriEKDLFwp6Gnqrc+afB3rTeqbuka7aR2ptQ52E5G1vhC9u62Uy1IgWNbpUqHb3tYw8wtK/k31XRTmsZSl2IhWVJSFq3a3oH3F6VSo0DtT102/jfXdgkYoKreXk0PIHDG2z5+GoTuuQ+QtTnzq1qXKcmNRo1XsLVNPt/vKmoFdMwh9LYUO5N5e5L5otdUvuVNzvN+v9K4v0ThvXtg2WWqzvm+OONH9of0ShtLp7GX9ifrm9xvGW7Cct+ylR3mUz5ct1hL2Quc9MH+6Y+nr49v8AvuOOMY/gxU7b49/Pv+j/APKQn1j9fCRsr/UO/tCO6n8VTsD/AKLtoIjU0x/9jRf70if5u0BOb+yXZ8dW+5v08ftwabznP4Yx1X6+Z+v4f1/HwBmH9V/1INP9NTrHJ5QlV0LbeYeQbd/jvr5xzOffiQdw5IfpbG7dsdklxkqdrNAoqCssri8ktpU8qLWoroKXrSwgRnw1mHMXM/LvYnk/beaOc9/vuUeWt/lNP7RuV9hDcmW0w66qq1yjp47i2NU0iuzIcaqKGD8MGubWvOMSJ0idPmhdZ1I9Lnvv3jpUbb1x67Xl1xxJSr8ncxckXtbxFw7d5QqOp3GrbZsbb1jvMT7tIwtuw16juKd3KVsYtESG3Wmgup5V+z3erNxVrM7a3OvvH/K8GtjKkSaLgLnKl3veV5Q4nymHqm/anpybNGGvmLUiHMkSs/BhDEWQ6vCB+v1+p/CfQYZLSrlVthb67f1E+ruKG3/Jmxaxs1LY0t7ruxU78SwzU7NrF/Djzta2SFJ+4vqiTY8afCeyw9ltl3DS8v1+v1P4z6ibL9np9Yrb+XLar6CdrNyf2ff4mvypPWLl3bbeVO2/kWn1eBJsdj4a367slKXtfIFLrUN20ord99y02CgqrNu1+9WmuTru6CXVjOM++M+cZ/lx+j6/yAcgAAAAAAAAAAAAAAAAAAAAAAAAAAAAAAAAAAAAAAAAAAAAAAAAAAAAAAAAAAAAAA+fbY+KssMf/wAnIz+P1w0rOMe38BTd5pOTadypHebYMv8A0S99LMRqdPM/56/6wo/7fh9Pw/g/T7mCInmOfmvE8Zzn+DznP+L+H+vkj85n0iB8ZvZ9dxtsbS/y1W421VKjbMa597bzcp1hF2zR5vlwMfnt1ebheIyHlfClx5C0IwrKHMI+vLeKTk8s+75480xxHm7fdjt3n8P3fXieeHza1ItOPzc349I7/CfVrBKZxXF3qXTVXTbsRzUfUl5RrZH31lUdxGbvt/vmrxZDrLuMZw27D2eM8jPjwpt5LiPiwpGS5/GDaM+/eAniptGCnvs25dHbxaIrP73uNoya7iJj4zOkiOOYmJ5rbyzEw8eidTXReIPReumtr20O9aL0jnyxm1MaS17V+Na11M2t2niImfWI5yBes5jOtdv+nW6yfKayFVU1rIfX+awzG417HcWbHeKcdVj4U5RVWmV5znOMJw1lSvpjCtEv7OC1d89nr2g+mcX39bqNVqcNYie9rbz0ju2k00RHrzbNg8kTEd55rz3mYz77SnOh8S/DLe8sxOm02KvMen3cG97VnyXmZ5r5MeO82v37ViZt2lnJ7Dd2tP6Ka/q/NG4Rt1eo7TaXNWbsdMoq7Y2q/wC+65dbE+5tFdY2bDLuryKekntPoX85LzjjLPysrWytOhXsidBeL/Wfih5PBbqfQ9M9d9IaT7dT+8M2TDj1OL7TpdDm0tMVMGamrrmvmxRqtHlrTHkw195OTFl0+DUYNgfGDqbovp3pHnrras+89O7tkjT5I02KM04pjBn1NM0zW9L4/JGG04s+Pm9c01rWsxe1L90516KelP3PrLHZ+UeuM/r9zBs0Vqzmc39S3mOPba8tHoKPydfXtHUN5qN1cb+Y26iJs9FdxFePlufeGlKwvor4df2kfQes0WLbfFbpTceleptFFsepzbZhndNvyZ8N4x5Jx46TG46ab35/ZajSXx0mtsdNTm8kWtrt1F7MG+01FtT0dvWl3Pas/FsdNZedNqMdZ9K2vFbafLxHE+et8Vr95nDWeeLo+HYHV/pVwrJ4G6M8RO8cVd42nO68n7IrNjybvVn9xj18jY9q2qylSrba9pchMIYbm2chLdey0lmuhNsNR2msY+P/APaMaHd+n906S8F9m1+gz7riyafNvu4UppMuDFfHWLTtmhi2XUVz2i+TFXWa6umjTXpObDptXbyRN0eHXs2Zdt3TR731zr9Pq66DJF6aDTTOXHe9ebUtqs1qVpbHWaxa2HD54yxxGTJSnmi1I5MeLMjvxJcdiTDkx3IsmHIbS/GfiPNZjvRZDLvnDsdbC1IUlXnCkr8Z8+fOeS+DNm0ufBqNNlvpc+ktScV8c2rfFOGYjFOOefPE4vd0ml+fNE1rebzbu27yY65a3x5aReuWLVtFoi0Wi3PMTX923m5nzRPMTxMfRHT7X+i9bVLtvuvT+xj2NMpUqfjgTaZzVfMp21Yw7mp4s3SYrEdyrbS3ITBpLvLSGfmtxY15CrozMZHYbwB/tJNv1uLbemvaG0d9FuMeTFHVOhxWy4s896+/3zbcfmzUzXmazqdx22b+eYyajNtmbUZMuW2mXiR7Nmrx31e8eHt41eGfNf8AuvNatL1iseacei1FprjtHrXHg1dqREeWn2vFjrFa4QJ9fv8AxJyA3X2kHc+KuVePrWPdMw57Fnpu+6bbRlyYsS8r15+W+wyrKZzDNhEcerrBnMhhqTMhPPId6d6PWdJ+IPSn2zbtZt3XPRHVWC2G2XFfBuO17hp71rkyafLMTfFaY5x5L6XPTHq9JkjFlvi0+opS9dVcmHeun909xnw6zp/fdryRfy2pl0ur0+SvpkpMzW01i08Vy4Zy6fNE2pGTLhtPmlI+nv603DPNnE7vRT1SeOtJ5P493PLGs0247XSUbujbe9aSsIrqncKeyWiFp+2u2TiPuktlyFXv2bzTtU/WTZcanYwHGx9Q+zXs+4W6F6b3DxC8GNFGbV/3Do7V1G/9KY+b59XGz0z5KTv3T1ecmpx6D3n997NX3lMcbnoKxl0mQ53DbvE/X6TBv+44uneuckY8P95Z6eTbt4tSIpSdbOCkzt24RWsUnURinQa3nHETp9RaMNr6OMvSw9GXhi9tdzb4E5R7NWsqfMk6rpnY/a7bduM9TgvyESqypRqewTU1OzqiZQltq2vIWwXzjSs5esJOVKUvCXV39pH4KbNteo1HTexb71Ru80vNNNk0UbXipatJtEZ9Vr74a46eesUtGDFq8/3ptGLJEX4v7aPZh651eqpTddz27atDEx58tc1tXfjtz5MWKve0xzNfe5Mde8R5vR7NA738cdsuVuYOJuN9an61V9ZrDOnKraLVqPWuIaNTmzbPq8ik48/Is1SbCQ3daTdInOLjMP4zAb+Yhpv5EdGgPthaHxw37F4a+Mfi/u+202rxH02W/TmwaHNn8+ybXk0m37het9PnwYprfV4dXo82p1+XJfNrsvkrWNNo8NNLTYXwbv0NtWbqjovpDb9V9r6czY6bjuGelI+3aj3mow1muWuWZ8mK2DPFMVcVMWKJtb9pktky3wV8GP43T10eYbSNnEiDS7Fy7cJkYz8xCWdH4c4o4ykOJUrynwi6sJLHsrzjLOcYVhOFJzt34m456Z/su+gNv1Ue61e56DpzTTXjyz59y6g3beK1mPXvpscZJj14tF5ie1pwp0pa25+1V1FqMMefBosm5WyWmOI8+n23a9DXy/5q+a98drViPLaJr8JibBPWOuYl3237Wqhq+PNFxpSadMQn87CbKr4YVcOoTnCfGc5b22Gn4ce+FIzjz5z4xsr7CO2arQeyx4XY8uOed4zbzr8URzM3xaneNRgpER68zOiv5YjvaJ7c+k4x8e9Tp9Z4w9YajDftpMO3aO8ccRF8Gj+0TMTPrHl1lInjmKzW3fmJiuyx4qfq9T484W0S1tq6HsrvFmrQ6ymkTGWrC2xp+l60zsLtZEdXhc1uGiVDXI+WlWWkyULcwlCs5xe+eJvk1GWInibzz25480zMc8doieO0/wA5ieZtTHNa1x1m/E8cd/pP5fn37enwVbz/ADe/4Y/T+nH1z9Mfyfy58O3rEf8A38o/D9ej1n14cAVQ1hPw08f/AIzkhX+N9zH/AEGYukImNi0szHHntlt/HJb/AGWtudvNrMk/Sv8A0w7AXMkAABjC9an+5Keo1/E654/oJagavCx/2xsP7+mf5w4BM3+yMf7jfUH/AMLfBP8AokfPOn72b/mj/oqJip6ABrovtMv91b2D+KR1f/pl2cAxvemn/dFuiP8AGy4a/pBkj8J/GP6jaLdjf7Xrnf8AwN8pf0IviA08mhf7gdB9s5/7QtIx+P46pUe3snPjOf4M/XOcY8+M4Cah9kk4716Qz3z5kegtq2+JtXB/CUGy8YUtrT6rSbDld6Mn87PyVv7DyO/l/KPCXW6uHhXxKYT8ITMF5/Nz59vHv7+Pqn87H4/X28/wYA1RPqacfa/xT6j/AHz471KG3W6vrnaXfrCkrWsuKago5JpdR5nuo7WXV5yljG2cmbFlltPwtsMKajtJS00hOAuX9Bbj/X+TfVz6kUezR8yoGmxeaebYMdSWHY8vZuMeN5dXq7M1h+Ov5kaPbcgN2rSkqbW1P1iC6nOfg8AbODHjGMYz9cfq+ufr+P1z+P1zn2/ECC59rM0+jq+zvSfe4UJmPsG7cAdhNX2GYw0ll20r+NOS+DrDUE2C0Yxmb9wXyluyYuXPOWE30rDXw4kO4UEUGwmPV0CfZRvhxIrIUmzj/H8WG8Sa1hU6NlfwrTnCPvEZr4spylWMecpUnP52A2PP2gvsTf8ABvpP8gVurWa6rbOxdnxf1yiTYkl6LZxtZ5OmxnOWpVQ81JaXGsm+IKffcsPYWvMdxaX8pcw3ltT9fr9R+Meo1xNhJkMRbCVEgJsJjESZJh1LclmtRPlsx3XYlY1LeTlutQ8+hplLq8KbYw78a05SjPh+v1+o/CPQTRvS+9Wn0afTp6p6ZwxT7vzVbcmXbMTduwHIsDpz2LZl8jcvW8CNm+nqlL0aQ6rWKttDFNr0NUl5qvpaOHHZWrHxuLDIr/2TX6UP/wBf+wP/ADROx3/V8BSrm/1/PRQ7H8Ub1wjzRYc171xlyRQTda23Wbjp72Leiz6+c38GHmHM8eZXAtY7+GZEKYzlEmHLisyY7jbzSFYCA/tlfrNRtm21WkbTabxo1Zt+1V+h7peUVhrGxbfoETYLFnQ9n2jWrathyKDb5uoJpX7qE5DipjW7s1llhuMlnAE1X7J92Esdg4Z7V9U7u1fmMcPclavzZx5Xv4W9in0fsBEu29prY8lxjClNOc08d8kWymcuPZZXuWcJy0wpiO0EVP1G+Idp4G9QDujxhuMWVHuIXZjl/kCBImR3Iv5c07nXe9g5x0bY4P3lzK5dS9RcgNwsS84Sh6frdk0jy5FeSgLu/SN9XjZvSzv+VKx3heu5o4i5uvNY2ffaio2GJp/J1Hsup64vVq++0y4uWHKq+jO0rNUw9T2r9XHbVBXOj2jb7z0aQEtbhP7S16XXKaYMTe+QOSetV2/GZcsI/PfF2x0uq1Ep1DOcw5nK+mtXep+UuSG0fNxc/KUvCsJXnCF+AzIca8z9eO0mhru+J+S+JOfOONmq1sypelbRqvI2q29RYNKYei2TVXLlMSYjrLikuMvo+FSV5StHjOQPr8JcFcNdbuN6HiDgPjLS+IOLtYctXtf0Pj+gr9Z1epevbabfXL8KqrWUNNPyrmxmyX3PGVuvSVLWrOcgRfPtYPYWw17hPqx1WpbR2KjmXk7ZeZN9gNYeaxa6P15h0a9dgvS2ms4+W3zPyDxjZ4Yy418/OrZxn5rSHWlBB5nTYdXAn2di4tiuq66faWDyG8vuM19ZDenznm2E48vuIhx31JRjx8Sk/Dj3zjIGyz9Ef0zdI6IdW9P3LZ9YqpXavnTVKDdeb95kNM2F3QN3UX8uUHCutWy46F12i61Cs8RVNR0MItbXM+7mtrmzVrwGa3KU5/8AFT5/gx5x9Ppn8M/T/EBbbvfT/rFyZztxh2a37hDjva+euGY1pG4z5Qutdhy9p1du1jqiuORpq0eJkmMy5K/JzslL7tWuxlO16ozkl9TgWq+sv2QvOqvpnds+VtPtl0HIEjjtHGHGdw2wt52r5K5tvaniLR7VpKI73wORNh3SHK+YptSG/ueXHPDaVZwGrejQoVXFh1dY1lmsq4kOrrGMuOvLj1lbGahV8ZTrylLeWiFHYR8Ss5WrKPKs5znOchKx+zG+n9pfNXJXJHeDlnX4+xU/XnbInGXA9DdVceTSZ5in6tU7VufLKEzWlosJ9DqW0UFNROt4SmDZXmyOuYdkswHIQTrE4xjHjGPH0/Xn29sec5+ufb+YDoHKvFfHXNvHW5cS8taZr/IPG3IOv2Wr7npe0VzFrRbFRWsZcabXz4UhGUrxltXltxPwusuIQ8ytDiEqwGqp9QDqdZdG+5fPvVyZPm3FNxztUSz422C1kZk3GzcNb7VM7XxjdXDy5Tzkm4j1kuxoLCW85l2ytdBsLNWG8TEsth2H0wv7pj6ev8bjjj/zTtpCfWv4/wBJGyv9Q7+0I7qfxVOwP+i7aCI1NMf/AGNF/vSJ/m7QE5r7Jfnx1b7m5z9MdwafP+Lqv18/D8f/AHAYTftHvY2z5y9TXcuOG7BcjSupfH2pcLa7X5wtpuFve+U9BzLzBZpa+HCZOZ0O+4Zh/NypeU50hTSEs/u/zgxzdAdX6kbP2s4zX3p5BqtC6t6oq03nkiDaUe0bG3yq/r33FGqcLLrtRrpMpqkvLqw+93by21RnaLT59JIStF98xkJ9VZ69/pBU1dAqajtLr1XVVcONXVlZXcT8uQa6ugQmG40SDXwovHqWoUJqO0020y2lKG0NpSlOMYwB+3/sgL0ks+2e2lV+n34y5jxjHj38+f2Ae345/D9IEaL18OevSx7mUul9kepXM+tX3bTWtg1zSd/oavQeQtUf5k4cuJa4Lk+9tbzVoMGZtulzpLdpXS5SnZbtM7dUkfGczorkYI4Wj8qbZwRvGk88aG/Ljb1wXt+u8z6e5AlPwJb1/wAZ2LO2s0qJcVGXWIVvArrGknpQleJFXs86K4261IcZWgbf3jjdarknj/R+RKJeHKTfdP1nc6ZxK8Lwuq2ilhXkDOFYx4Vj7tOb8Z/HGBA7oAAAAAAAAAAAAAAAAAAAAAAAAAAAAAAAAAAAAAAAAAAAAAAAAAAAAAAAAAAAAAAD0yG8OsPNZ8fujTiPf6fnIUn3x+j3PDU4/fafPh9fe0tX/wD6iY/q+8c+XJjtzx5bRP8ACeVFfGU/mqx4yn83P6cZT7eDX7ia81mOJiZifxjtMfxiV6RNZ717xPf8p9FsvcHthxV0n698g9jOYJkhOsaTAaarNerHYKNm3/dLdzEDTeN9Nj2MphmVtt1eOxYUNLrrTDKn1SZTzMVh51E7t2gz7nrMOi08xXJmnibW58lK9vNe8xzMVr6zxEzPEREczDyz5qYMc5Lzxx6R8Zn/ACx9Z9P5/DmIlPov9+OWuxHrKcj8ic43cPN/234I5I1mNUQp1jI1jSneI7vU944f4l0X76tCU0FVp0jk34FZYZftpjFleusRn58thvIHUm0YdH01gxafHzG3ZaTa/NYtackZIvbJE/etMzGPv6Y4jyREzNZUPQaqb6+17WmJz1tEx34iYmOIrPpHEeb4ea3rHfmGM31qOLb7gP1SO2X5Ibbbmbjt/H3aHjNtWXsRUt7xqev2NI7nOfgS145i403tbqW1ZTj4PmOZSt1ZWumbaDdtg0m37lf/AMO1GLNoNZEV+9XSZ4yafVRXnmMkzpdRaPNMTPMzXy8ViJlNwnUaXVZdRpqzOr09qajBxPHmz4b1zYe03p2+0Yqc1m0RaOazasTbi+P1cKGn7KdJev3Z3VF4sNeYf12fbTq1pT8rPHfYHU2NakKZdbRn5LUbeJenvPr8fC1iG4tXsnwcmP7P7dNf4N+0t4teB++x9k3LLXVYdLiy2itP706U119VSLRb962ba41tcdazM5JtSsebn724XtEaPF1p4Y9I9b7f+00+G2G970ivNdFvGnjT2mLXrFZ93qMmlyWpf/8ArmZi1qxW1d7+C76jXpPRPybGh2/JbnHtVNVS4kKSyvnHgue03eapJfcaUtMKwvdasoKl4Sr50O+wtHxtu4zjF+1azH7H3t76iNZmvt3ReTds+KNTNeZ/7NdU45tptbSItWJvpMeqw6iK8z7vNpLVmIvjni6NZhr42+z1jjHhrn3i+kx2nDeO3967Vl4y4L1t5qzXLqNNfFM1vxfDl8+O/lnHea3el92Ojdhup+jYsbJ6byBxNDgcWchtz21Rrd+dr9bGzq2yz4S228xXLnTl005TfjzHlLlw3cYfivtpxd7cPg5m8JPHzqe+k0VdP0n1/ky75tNsU1vp4pqstv7w0eLLXmLxoNwjUYa25/a4J0+ojz4s2O83Z4C9a06x8P8AbKajUTn3rpuKbfrYtEVtN8OKk4dRenETX7Tpr4dRNY80Yr5L4ZtOTFeIyJ/T+f3/AE4/D+b9ef4fPk1BiZjie8TH5d+I5n857/y9Ihmf6TPP8/X/AH7fw+jgh/tx+Xy/A+nwceMfTxj9Pj+D2/6RHaeY9Se/r3UE596w8HdnNab1fmfQazbWoSXs0V8hT1RuepyJDLsdydqO5Va2rDXZfynnU5zHeShxC1tvIcbWtCsreE/jb4oeCe833rw36qz7HbUzX7VpJiufbdfWsxMYtw2/PF9Lq8fNYmIy45vExE0yY7RFotLq7obpjrjQfYeotqpropz7rLEzjz4LTz3w56TXLimZ/wAt4rb0tExPEx1u0/o9c2cUpttm4Mku9gOOPgkOSdYdiVtfzDRQHfgQ/HlUraGavkutTHcl5dXXorp+I8bDKaazkuqXnsL4Ff2iHhn19Oh2TxSw18KOsZtWtdZ582bp7V5Y83ltTU28+s2bLa0VildbbU6b3tvNO4aTHSsNLuu/Zv6m6erqtb0tqf8AtfsUxb9jbHTHuGOk1mLVtirH2bX1nzRXjFj02StI8vuNRbmZ+T0d9UPfutEhnijnJvauROGKucimwiZGtJnLvCb7am8SamNWWqE2Oxa/FaX813W56UXlahC2aj7w3mHSsT/tPew90n414M/X3hhOh6S8R9fi+0zNLYsew9S1mJtTPlzYLTpdJrM0xGOm8aWbbfrLTW+40paNTuF/jwq8c946GzYemepqZ946awZLYvNknLk1+23m3M04zx73Lgx+aZtpM011GlrStNLTNj93pqSOuNnODv2Mb12I4CqNX2iPy7XN8hXewcaMxZa+UbnWNeeh1chTED4US9lVEjMwXEqQiUp1tLUpGHUHHPrOnihk37pLwe8Wdy1uw5ugM87RptLvdr0jZNLuGrpbURF8nmmuhra86nFel8mCMM2tgtXFbtuhs2TpXJt26dXdJYMG4YeoMcarJl0X3/t18OOYxzEUnic1uPJ8LzeIi8eaJmcJfonadb7tyZ2a7VbpF+5SJWH9cdcntyG5FXvHJmxTuauYYXzprDS240SLP0iPlKkpW2qIpl1tt1nLZ0u/tLeo9B030T4LeBXTWT38UmusrTDNZrn23ZtHj6d6fvEUvePeajNTXZKWi1q5ImMlLXreLTq57MG3Ztz3/rjxA3LBXBe/nwT5/JF8Wr1+e+7bpjtFaRNYpOTRY8kzaZtanF61mk3yY4NRrp/eL1FdOq6VLMtXaDulqSIeWsrkQ7HjSLv1daTpKnUMuJTHc648b2MjOM+EKy3hr42/ixnHRHw86Vjwt8H+h+iZmceToXp7R6LPW8cWprI0/vdfjmP3pvTdNVqo7d4480z28zXLqjd56q6v6i3yJtfFve46jNi+Nfs8X91pZrPm4rW2jwYLfGJm1uYpEzFZBv2krtVvXEvbDodr/CO8O6TyL1+1DkjsZWX1QrEix1Ha9s2LXOO+NH7KrxOaTaa/Zabr/LkGfXSvhj21a7OgrdZbWpzHr0Vt2PVaDdb6vT1y6bWzGnmJiOJmsTkt5LccxeJtimLV+9WZrNpmtuJkN0zxXNp8db+S+GPN29Y54jmYiZmY5raOOZie8fvVny52vS89Srjf1HOEP2TQmq3TOd+PI9NU8+8PszsyHdSvbFqQ3V7hqi5KG3rzii/XXWL1HY5bwpt2JMp56I1zVz4TFq71s+fZ9VOK37TT5OZxX7x5q8xzWZ5mvvKc8WiPXmJiZiYlVNJq6amkcWiMvxr9I9Zj9dvSe8Sya5z+P09vPjxn+XP1/wDX9fqUb0iZ44j8+OPjPMz8vX5J2Y55mPj6fx9fz/n9fSat0bWWamCjOPGcx0Lz/C75dzn6/X90/mM4dPYZwbJtuO0cWnFFpj/n5v8A/wCloa68ZNXnvHpNu35REdv4f/fq+qVlKgADGF61P9yU9Rr+J1zx/QS1A1eFj/tjYf39M/zhwCZv9kY/3G+oP/hb4J/0SPnnT97N/wA0f9FRMVPQANdF9pl/urewfxSOr/8ATLs4Bje9NP8Aui3RH+Nlw1/SDJH4T+Mf1G0W7G/2vXO/+BvlL+hF8QGnk0L/AHA6B/8AgLSP6KVAE5D7I7/vOd9v4x/Fn/o66CBLxX+9V/5Of8gGrD9YHGP9VY9Q32+nZKPjH6sf2BuDPYC5T7Ol/djOu/8AgP7Xf0U0MDZVAQhPtbv+/V6fX+CTuH/TvqUBENvv9oL/AP8AuK5/82SgJz32qaLPc6UdIpTLL7tdD7Y1657jaFrYjPSep3P8Wtek/Djw1hUl1xpC1ZwnDkhKPPxOJxkIPTDD8l+NFjtqfkS5UOFGZT8OFyJk6UzChR0ZWpKcOOzJDDaPiynHxvJ8qxgC+7HpV+qNnGMp9OftllOffGU6xxupOU59/KVY5U8Kxnz5x49vf2A5/wBSq9Un/wCzm7aZ/R/2scb48Yz/AP1T+oD/AFKn1SP/ALObtn//AGzxv/1pAP8AUqvVIx7/AOpzds8e+M586zxv+jxjP++n+pP+Lx9AJHH2aXpp3I6zdou0m2djutPMHA2m7r154y1nXp3JdTSV8a/2nV+UN1t5MKEqh2OyacfZqNnw6nC3Eryh53wj4U5zkM0nqmejZwD6l9RB2+bbS+GuzGoa07rOjc667Us3WJ1A1Nk29dovK+nOyozfI+gM3Mye9Fa+9QbinVdWK6C3q12c/wC9hC77B+gP6p3AFlObh9eY/Y7Wo8ma3C3brPuWsbM1PgxHMYYsbTj7kS217YNdmSmFfNxXw2Ng+7Zwtn8pS8obefDE7yVoHI3B892DzPx7yZwjNjS1w/PMnG+/cPxnpiFPIzHrLfkfXauJcOZzHeUj7nJfS4hv5ja1NZwvIfh0Lbtu4q3Su5P4r2zauMeRIz8Syg8icY7Jc6FuMlTHy1RFSto1CfFkbHVfubWcw5zkytkfIQmREfQn4chNG9Ev18995r5G07pr3ou6vYOQt7lY13gPsLBpoWuS952SFUSrBnjLmalqfhrmt6n1tRZP0+yVcatrLiTHcp5lTV2iqpy/C037WbHmp7S9I5jmHcV7/XDsSxEUr/wWZsXlngh2wShOc+PmYjy634v04UjHj9ART82FZTqZubxOHdeorCp2HZWMsZl4malr1tX3m213yEYzl77zq1fbR/bGc/66+LCV58IV82iZjtPEjcg69YV1tRU1pUONO1VlU1thWOsLw4y7XzYTEmE4y5j2cazFdaynOM5xnGceMn1HpA+wAAj1fad25SvSr2dUdLuWWuyXUlyflvGfgTEzzxqTaMyPGfZn7+5Cx7+f3RSPx8Aa7vxn4fHnOM5x49859s/qz/P/ANGfHgDYUfZcpVQ76Xn3Kvwhqxre0/aBGxR8+ESGrCz5IkXtS5IZzjCm8Panaa88zlWMYcjvtOIyptScgSMQOM/yfy//AA9vbyBrk/tLFnV2Hqw7nGrnWXZFJ1a6w015hrHuzdJvewV591fVjHjMlFDsGvuKT5zlLc5nz7KSBj39MLH/AOkw9PX+Nxxx/wCadsz/ANP8xCfWv4/0kbK71Dv7Qjup/FU7A/6LtoIjU0x/9jRf70if5u0BOb+yX/2rXc7z4zj9uBT+cZx584/ar9fPb6gRZfVf++f6qX6i337Lnzf21d3hvD3xYVmL/Ys4k+5fD8WfPyvuH3T4Pw+D4PGMJ8eAs80XjDlXlOXb1/E3FHL3LlnQRK6fsFXw9xRyPy3cUFZcyJ8Oqs7+p401e1k0tZKm1NoxGky2WY779a+y2tTrS28BUn9qZ3FxnPnpn3c+vn+0w7WfT8P/ANkGf8uf4cgP2pncX/gad3P+Zh2s/wCp8DjPUvuGrHhXTLu3nH6M9L+1ecf4s8Pge+H1E7fvTIrS+mXdZKHZLDbmXumXaZprDbjqELy669xDhLTXwqz8SlZwnGPOVKxgDZnelFTb3rnpndCNc5Podm1bkLXeo/AlBuWubpUWtDt1HsNJxzRVdlV7NTXkZmZV3rD8VTcpiU03IbeQtLqcLxkDIEAAAAAAAAAAAAAAAAAAAAAAAAAAAAAAAAAAAAAAAAAAAAAAAAAAAAAAAAAAAAAADjOPPj28/X/FnGcHzPwFIbaNmJZTWfHhPz1rbxn6fKdz8xGf1+y84z7+3w5z+Bg3e9N9j3fcNPFfLSuSbV+EeTJEZK8R9PPNfxifwi7tHkjLpsVueZ4iJ/GOyJ79qa4o2614h6lc5V1rsEjReOuVN0413LW02i0ahVW3L2rMr0bkabUKzhp7a03GoStTgy8Yy+3G5SmRG8/LmPoVc3Q2ow01et016VnLlpS9bTPFuKTaL1j4TWYvFrRPfmlJjvCn7xS00x3jmaVmYn8+OJ/Ljj85RL+uHOtt1d7DcFdk6VCnZ3BHKup8myY7SJL7k/Vat2VT8k1kWLE8qmWE3iq/3uDCb/OQqZZxvOFfD75B3HRRuOi1Ojn/APcUmkT8pniaTHxm3nis8cT2jtzPCj4Ms4stMnpNZ5mPp/ij8JrzEpTv2l/r3U8jcUdY/UH40Wm61yhbq+It6vKl1p2BL4x5slVWwcIbrIUwlSrBuLyG5CooysK+CM3yw++vKWsLUmwuidbfFqdbtOeJi2WJyVx9+98UeXLXjy8ce7817TzHbF34iK81bc8db0xaiveJmImeYjnn70cz68c9o478257ccrFfSt5B0rsd1i5i6E8rvfemK3X9pxrkJ2S4iZZ8PciPv4sGqd3PwZamazu1lIbZbjqzmugWVGr4m8upxjmd7dnSHU3g744eHftV9B4/c31ur0P23JWtfJi3/aYp7m2pjy3icW97ZjiMl83H2nVYNw4ieO+0/gHu20dZ9BdQeEO+397iwYNTXBitaYtfbdXafexiiZiaxoNTmmtIx8V02K+irTy+aij/AKdXNW09HO0HInTbsJOxT0W47rEo4d/Z5XX0tfy02zCq9K3GBl34mIuob9qmdewzlt1MeHbIr4Ocu2Eqd8nIXth+Gux+0/4IdHe0Z4R6b+8t16e23Jqr6XDX32o1GwTbJn3Lbsvk4y23HpjWxqpyUyYpyZ9FGrzV93p8ektkoHgr1Jufhf11u3hp1nknFpNz1EYq5L8UpXX1mMWn1ceT7tdNvOljDasRauLBqK4MHNsuXL5K19k9C5F9NLs9Yd1eD9bVsnXLl2yRC7BcaQERqxqgtLq3kWNk83JzlEerhzNisLC3oLCZ8EWv2O7t6mwkswNlYlVeM/Bnq3o/20vBDS+zd4nbzG0eMPh9g990nvWWb576vDptPTDgtNfvZc+TT6OmHb930uCt82s2jT6PcNJjy6rasmDV3V1vt26+CXXd/E3p7TW1vRvUNppvGjrNa4tPfJNbzMRMVrix3ye8z6bPe9cWHV6jUafNxh1lcmnzU8M80cbdgeO6HlLijZI+z6fsDbqWZSG34djWWcJf3e313Y6iY0iTQbPAmpcjz4EptuRGfbUhxGPbOeaviR4bdZ+EvWG6dC9e7LfY+otpms2xzauTDnwZYm+n1mj1FP2Wr0WrxzGXTarFa2PNjmJie0xGz/TvUW0dVbTpd62TVxrNDqo9eJrel69r4suO33sWXHbmt8d4i9ZjvHeFUixlbAAOIn1h13b9t1fQtW2Hd92vqvVtQ1Knn7Ds2yXctuDUUVJVR1y7G1sZbucJjxGY7S1rXnz4wn2xnPgrGwbBvfVm+bT0z01tWffeot/1OLSaLRabHOXUarU57xjxYMOOO9smS0xWOJiI9bTFYlKbhr9Htei1e57jqqaLQ6HHfLmzZJitKY6RN72tM/KsWmOfrPrwxfzOOuivqy6jtW867r+3VW4ajYuaa9y7B0a+4v5JprBMNc+uhyLHYKNMHkCoxEnxZqqmzbtGIqpTaZ8SFMSpprd/B1f7UXsD7/sfS+8brt+49N9Q4q6+mwZdz0u97PqMc2rjzXph02p+17Rni2O+n+26K2jtmil7abLqsH3rYGy9PeE3tAaPXbzodDm026bbktpZ3Cmmy6HW0tj89q4r5L4/Lq8UTaMs6XNGXHEWr58ePJbibBa7rx6g/phcgytw4LqZHZLhrarqGzsGralDssVe3TZkxutpMbroWXpEvjfdsrerYSNwp1WUDCcqf2FpiphR2YO2Gt8X/ZJ9t/pLB054objj8HPEjZtNkvo9dr8mD7RoceLHObUTtu6cYtNvO2cUzam/T+vppdVby1x7bN9ZqMuXUYj0/R3i94G73Os6Q0kdYdObjmj7Rgw07aqeK0p9q0vn97o9ZeYxUx7hp/tOKKxH2vHTBWkUvv8AUP5Z1PqT1D23UeOqCu415O7P3u2RYtBrj8dMqn2bkpS73nHkFUyuiraXPhQJ1nlE3DaI8i5tYDOMozLQat+yJ0Bv/tAe0LsHUHWG8ZuteifBDSbfadXq62imp0ey2+y9L7X7vPf3lcWoy48eS+CbXz4dv0+ovbz+4nnLnjF1Ht/h94ea7Q7Rp6bRvnWt81YxYb18+PNrPv7lq+a8RM4qWycZK+XnUXwx63rE0W+zOdUlcl9quRu1lzTpZ0Pqzp7nH2jy3UNYqnubeXKWK9MTBbXjGY03WOGflOfeUYU3iPzHhhC/jZkIT2u653TLj0ePQ+/8+bcbe9y2m0WvalbW5nJNY5j3mfmZ9PNNa3tE80aHbVpcc3jNTFGPHp48tKxExWnEfuxz6+SsREdvu+bjt6Rit9UXsw1277/dlua6uSqZpSNxZ4h4pe+NXwvcV8I4naZRzUNpWptUWy3JfIt7Dfa84kV+4Q3Mr/eoRXdg0Vdv2nR4J4nLNJyZJmOJ95k7zXnmZ+7WMde/EVtW0VjyxFry2sz+/wBRlvM8xW3EfKIr6cccx3mZntM+vwZfPsvXBtns3ZvsR2PkMzWtZ4f4fq+G6eazLU1X2u78z31buW0U0+Mw/wD67fqtL4+0icyl1Hy2/wBnqXG/3RX5tvdda2tdLpdDWYm2bJOWeLc8VxxNaz9J898kc9pnj92OO89tGLzZsmWe0Y48sfjPr/pHKby00p55phOPKnXW2sePfGVLcSjGc4/D2VnOf0eMmNsGC2qz4dLSPv6i9ccfTzW8v9eZ+cRPqreXJ7vHe8/4I/lEf7/rurQ0lLbaG048JbThCcfowjGE4xj9XjH8xn/DjjFix4q/u44isfhXtH8lm2tNrTafW08/xeZ6oAADGF61P9yU9Rr+J1zx/QS1A1eFj/tjYf39M/zhwCZv9kY/3G+oP/hb4J/0SPnnT97N/wA0f9FRMVPQANdF9pl/urewfxSOr/8ATLs4Bje9NP8Aui3RH+Nlw1/SDJH4T+Mf1G0W7G/2vXO/+BvlL+hF8QGnk0L/AHA6B/8AgLSP6KU4E5D7I7/vOd9v4x/Fn/o66CBLxX+8V/5Kv8mQNWH6wP8AdWPUN/jJR/8AQNwYBcp9nS/uxnXf/Af2u/opoYGyqAhCfa3f9+r0+f8ABJ3E/p31KAiG33+0F9/9xXP+L8mS/wDp8AbMT1v+rOzdrvSt5U1jQauXeckcU13HfYfQaKvjKk2ex2vC1hWbbsGoVSEPIVmzu9Dj7bUR/ClYy9dIwtt1HxNLDWhy49ZeVcqG643Z0ewVMiKt2I8pLVlR3tetnL8OS3jOcNP1c3C2XU++EvocRnz8OQNkT6J3q0cc95uCtJ4e5K3HXKHudxbqDFFyDos2e1XWPKlLqSYVLF5v48gTFIXeUVlCepn7yHEzJc1u6s36yU49HzAsJ4Z2vi9vPjP4+2fbOfH1+vjyBap287r9bOjHFVhy52U5MptDoGsSIuu0inE2G9chbC3DlTYmn8baTEUqw3bbZLUR75MOEw5nCW1vPqZjtOuthRXpX6q3SHvrFZhcE8x1KORmoSZ11wlv6MaJzLQt5Wph153R7t1Dt/UJkIdbbtKdyyqZPwfHFnPN5wvIZFvw8/TGfH8n8mfoBg89QX13OsXp99kePeue3ajvfKt1Lr42yc62XGWKyxlcEarsHhrTJE6jnSWl7xtc5Lc6ye16scVbxaGt+/4jvy7OgrrkMlHWXuT1f7kaY3vvWjm3QOXaNGflWjOsXLK9j1ieltpcin3LT5vyrbTb1nLyEvwbOHGksKz8LjePYCv9/revbXVv02z0VPsdPMSpEmqv6uDc1shCk5StEiBZR3WnkZTlWM4yjOM4Vn8AIa/2jn04ug3Xjr/rfZvhfTdE65c93vNGn6ixx3xo3A1DWef4G9XKmeQZ8riqsSiE7tmv0H33aZGw10KPMTD1STEs5TsGVlOAh0MbNsOkyYG86fiUrctCtaTkPSkQ8SVTM7vx5dV+86RiK3DVh5+T+y/XaT4G2/KnV4w0nCsq8KCeL9p9603fLPSbhrtZT1Tj971Z3hmfyL9xrFyZsThzmqorNQ3WwkOJT8dfrlNyA1xtfW76spah1erzZcjKWo614CB660lWHWJLDbzSsOMSIsplDjLzTmFNPRpbDuPhdaWnK0LQrGcKSvKVY8ZyBOJ9B31suJbzh3jXo7285Dr+PuXuLaan484R5Z5DvUQtX540OnjNV+o61dbhcP4ZqudKqpZZgyYk51lO0Q69i8p3XpS7qqpAlgIta1cD8qosYS6zLP3jFimXGVBxH+H4/nffMOZb+V8OcZ+L4vh8e/n9IYmN39b/ANPXSO3WhdPHeZYGxbbtts/qWx8m6s5XXPCXFnI0yTCh6dxpyLyPHsPulbuF1YyVxGW4v3uNVS3IMTYJNVJuqVuwCr3q1dZbrt76dXarg7Uq+JY8g3PGkvbeLYs3Gfkucr8X2MDkrjVvKktLy3lzcdUqWviwhfw/PznGM/iGq8aksTmWZ0ZEhqNPYYnRWpbDkaW1GlstymGpkZzGFxpiWnW0utKThTTiFtqxhaMpAkRfZ7vU40fo5zXyBwXz1f12pdeey9pQ3yOQLaSuLTcV86UVVX6dWX21SnEKartF2TS4Gv1M+xcWxHprDSqmRJ+ONbTpdeGwvhzYthEjToMliZCmx2JcSbEeakRJcaQ2h5iRFksqUiRHW0tKkLSrKVpVjKc5xnyBZ93j71cAdAeD73mrnjaGYbTTUuv0Lj2skwF8hcv7riDKmVegcc0EyU0q4vpWIruXX1qar6yIzItLaVBrYcqUyGrV7Dc6b12f565k7HcnKr8cgc38g2/IGzxal16RU02ZMStodZ1OnlSGWlzaah0TX9ToYklTMdc5jWET3ozEiW83h+AuA9ML+6Y+nr/G444/807aQn1r+P8ASRsr/UO/tCO6n8VTsD/ou2giNTTH/wBjRf70if5u0BOb+yXeP2rfc3GfpnuDT4z/AAftV+vn0/WBhW+0hdbbHgz1Ldp5PYhZY0vt3oOtcwUEzHzncS+QOOafW+HeYq9KviyhjESsq+FZmGsYSpatxedxhz4XFIC1r0e+/kb07O6Wuctbc1aS+EuR9ae4c58hUsf75a12m213AuNX5LhQG05duntQ2VqbMegMY+8v0m1bCqA3Ls24FfMDZt8f8gaJytpGr8lcZ7jrm/8AH+60ddsun7rp97B2HV9moLaM3Lrbeju6uW7GsoD8d1tbbjbikqwvHv58gdwxlGfPhWVePwStWc+PHj6Yz5/9+AMaHYb1gfTt6r88UXXPnHslqum8jWURyZsK8R7q71Di1K0pVTsc07vQwZNZxHIs/wDXX5OxeyISX8QHVKU2jLOXQyIattWrbxQVW16ZslLtmr3sRqwpdj1u5h3tDbwX0JWxLrLaskusToy0qTlK23FYzj3x9QOx48fh+rz9f0fX3z7/APuA5AAAAAAAAAAAAAAAAAAAAAAAAAAAAAAAAAAAAAAAAAAAAAAAAAAAAAAAAAAAAAABxn9OPfxj6f1/H2IT/EdF2+F8K489CfZacxns+MeMKTlS2VZzjH44y5j/ABGN+udBNcmk3GlZmt49zf8AGJm2O0/PmPNXn8Fc2fNHGTBae/71f58/0WK96+rdL3S6k86dabh+PBlcmaVLjaffSIzUpWpclUEiPsnGW5Rm305TiZV71U0cxtWfHw/Iznz+JZ23a6+3bhpdbXvGC/3ojjm1JiYvSO/H3q8x3ifTtHKq6jDGfBkp27xzHP6+Hr6x6ek+jVtTa7Ydft7Wi2qjk6nuWq399q246tKWhyXqO86de2Os7lqz76PCJEir22nuICnm/LT2a/L7OVtuIUrPMWpkmLUvGWtq1mtq+aIvSYiaWrFuJ8t62i0c1iY5jmInni0LxNJmLR5fLPf6TPaY9eO3p6zz2/GZjPoV9geK+7vRvlr0nuya49+7ovGOz6hqtDNmuRrPd+pO2qzTwo2vvtpaexd8fXtxEpvmx3XZcKvzqtpIkNSJ6cpxr1PotVtW7YOoNHHu65clLWtFOa01HM2704inlzRW1/JPNZn3keWeOFc2/JTPp7aPJ3vWJiv3uOaT2jmYtaeY/dm3ae0THe3ExteVeN+wnpad2bXTrJ/H9lPgjZWbTWNjmKXB13mninZ0zGtf2mQmuj+M6duGrw7GHZtIjLaqtgp7NmIxJf1+FIc9Os+jek/Gnw533ofqrTTk6f6r004c0UjHfPo9RimMmn1mm801ims0Go8ubT96e9pFsGTJTBqs/m9dg3zdejOotu6i2rJXHuG1ZImszFvJmw3mPf6fJ5Zi04dVii2O/HmnHkimWKTkw44jL72a4K4z9VLrxrHZrru1Djc361RStfm6xdOwoc+9ixPmS9j4H5H+F7LMbYoE6XMe1+yWpcVKrJTkeS5SXUlx3k54KeKPWvsKeL+9+CnjBky5fDHe9VTVY9fp65MuLS3y/s9J1Ts/3a5b6PU4sePHu+ipX30WwxGXFXX7firG3PXXS+x+PvRWn626Kx4qdUaXHOHJp8/krkz1x+ac+063mIiuTHe976TP5pwxbJGWs5NHqbWt1b0/vUIe2ybXdKe3VHc2G7TJk/irWL/b9flWkzY5kOrkfeeKOaaCZHdfh7UimhSktWclpcK0iRk4sH2pbsSTaV32tfZIxbDptX7S/s+7pp9F05psePf9bptv1lMGPR0vmrNN+6b1ePJSl9DbUXra+iw5aajR5rWnR1y4KZ8Gkp/g74v33LJh8L/ETSZMu4ZJyaDBl1WLnJnvjpaLaDcsGT9pGqjDW9q55rfDqcNfe571vemXU5ck13DHTfr9sUjW6Cn474d4b1LbNyfqKlCmoUCvh4sdltnE5dUtyXMkzn3vz1qU447Jwnz7YOfttZ4ke0b4ubNi3rds/V3iD4ibht+3V1GeYm+TJf3Wjwx5a0pSmLBgpFpita0rWlrcRNrcbF49J0r4YdG6v+7NDh2TpvpzBqNVOHDWYpSkefUZZisRNrWvebT8b3tbiPvTLH5wF6zPWzkiPWVvNVfd9btuksR0znNseb2XjBqeqIw/LQxyXRRctU0FuW46w25fQ6jLy2fzEqSpKl7aeK/9nD4zdHZtZrfDXWabxj6fxTa2Guhr9h3u2Lz2rSbbRqrzOpyWpX3lq7bqdbGOJiLW5i3GIelfaZ6H3immw9S48vRevzRFZ+1eXLo4yTHE1trcHmxYfv8A3KTqo09L3mtaWta1ecsFXtuqXeus7dS7Lr9vqkiLiczstbdVk3X3IXwpc+9oumJao/3f5efi+PLuE+PdWcY8mhev6e6g2veMnT25bFrNu6gx5JxW0GbS5set95zMeSNNkpXL5pmOIrWk94mI5nnjYLBuW36rSV1+m1uLUaC1fPGemSl8VqcTzMXrby8RzE8xMxxPxntGOHnn1bOpfDrs+m1PYLHnvcYLzkV6k4kTDstcgTWJOIsqLc8kWj7FHCfYc+LL8RiXLsUpTn5cRxfhCtx/Cv8As/8Ax+8RI0247/tOLwr6c1EReup373uLW5Mc0m1L6bZsNcm5ZKZOOMebPi02nta1YtnpHM1wp1X7RHh903bUaXQavJ1Xuen5rfFoIrfDS/M80vrbzTR0vWsea+OM2TLSJr5sfFqzN0PWDnXV+4fW/VOUXNegQYe91F9rm+aK/MzsEGh2Oqmz9X3jTJE+RBjflqEzPjS2USVRWEzIzzchLTaXUYxgzxu8L999nXxm33ofHu2bVanpXUaTXbVulcf2TLqtJmpi1u27jTHXJm+z5L1tSb4a58nuMtL4Zva1bTF/dB9V7f4ldFaDf66OMOHdqZsOr0uSZyxhy47X0+q02SZpSL1rkpavmiIplpNbxNq3iZsC7sdz+PfT90Oj6q9ZdGrtX5BjaTUyNYiRNdfg6DxPqWxTrOnpNkTh9rCd33SbaVVqmFCZzKU7Oi5kXLyFOx2J22ns0ezd1d7WvVe6eO/jX1Pm33pPUblnprb5NXjybrvuv0ePFn1Gjnyz/wCGbZpsObD9oz5K6etdPaMW34vJTPnwYc8VfE/afCHatP0H0PtmLRb5bT47Yv2fGl0GDUZMmHDqL0tMX1eoz5KZo0+OPP77PS06jLFprXL1XoFwbuXV3jneO5fcfljk3XEzqC0v4Wi71yNvdhW6lQXL2bG03Dc9Nn3zkORyleTXkJg1jUL7xXplpjoZbspr8ePXPaw8UenvHLrDpr2cPZz6F2bep0+rwaTLum27RtmLJrdTpo91g23btww6auopse2YotfV662o91qJwzknLk0emxZM8l4P9Lbp0DsW7+JfiZ1DrtHhzYZy10ut1uqvTT47Ta+TVanT3yzj+3ay1+IwYsXOKLUxxjjUZLY8WHHnblrmX1Fu1tAnTdLs7nbeRNmpuIOvXEDUtx6RS01tZvOVFdbSImH2q+Y8hmfsW52cZt5mur6WY/lc+Brkd9zpv4AeC3Tns7eFui6M2/X4tXr451+9bn5PJ/eW6WwxGXLji0RlnS4KcaLasWXnJGLzZ7Vw5ddnx11e8Quudx8SOqs+/arFk0unvWun0ektaJtpNL5uYrfy2tT32W/ObV5KT5ZtXHiicmPS47zKc7p7fo/ogektonTHhzb2ZHZfnSj23T6/cq1LMLY7TcNxwm37O9m1QfhkZq66vc2F6JQtrQqDFs77WqRC2o+W0ouDbsebqfqHLr89Z+y6a0W4m02jyUnyafBFpieZmsR557c1paZ7qDnmNBpK4qzE5r88zHbnm3mm3w+M9ufSeI7zEyhFf/J9RXYShnMGopa3CW4sKO9KVDqaiF4bjQobOFOystQIyUMtIwpxz5aW0YUtScKytMWnma181rT8ImO8zEzE8V7TM+scTHP5c0H17TM+Wf4enb1+kfLniO08tlP6NvTWT0n6IcWaHtNM3Ucu8luTOc+cGc/JemxORuSGIU1rVps5plGbBOtabG1bWozisfFiPqzaMeE4xgwj1Duk7rumbPF/eabDxix+kROOn7s1iIiPv82yTPH3rWm3fnmbq0GCNPp6xMcZL/etz6827zH5TzX147cR2iGXDVomZFjl/KfLcNHzM+fPj5ruMpax7/jhOVqx+j4MFQ6O0M6rc/tWSvOLQV80/GJyWma0iP8AlibWn68fF47rm8mn91FuLZp4/CPWf5xCpWPx/V4x59/1/p/r7mW4+U+sLZj/AFeRFEAAYwvWpx59JT1Gv4nXPGfx/DRLX9AGr6sYUzNjPziHK8ff5mfGI7vvj7w5jHjHw/TP68/j9cfUCZn9kejyI+m+oHl9h5n53LPBTjXzWltYdbxxNJby438aE/Gj5iHE+cY8YU2pP75KvHnWJi+X5TMf9MCYeeg4z/l9v/gBrqPtMLDz3qt7Dhll17Keo/V/z8ptTmE+dy7OePj+BOfh85xnxnP8AGOL01IUtPqJ9ElriyUIR2x4ZUtamHUpSn9kXjypWUeE48qTjz+lWMePcjE9pj58DaG9jvH7Xnnf9H9hrlHz9f8A6kX3nOf5f8vt+BAadzRZte3oehIXY17a06FpKVIcnxEOIXjVKjylaFvYUhWP0Zxjx+P4+AnLfZGltucNd9FNONuoV2O4sylxpxDqFY/a7aFj2W2rKVeM4zjPjOffGcec+AJea/3qv/Jz/kA1XnrCyorHqs+oWl+VEYUvsixlOJEqOypWP7A/BqcZTh13Gc48+ffxnHlPjOfOMgXLfZzZEeR6xXXlbEqK+lPCPaxKvkSo73hStT0bOMZw05n8EK/5Oc/gBsrsZ848gQgftcLzLPM/p8qeeYYTnibuGn433mmEfFne+pecJ+N5aU+fGFZ8efPhOfwxkCINf2VYnX9gUuzrEpRQ3SlLXYwkoQlNZLzlSlrf8JT4xnznP5uMYznP6cBuWNbxhetUSc+FYzSVSfCsYVjPmuj+2U/oynPvjOMfr84z7hAj9b30Sd36xb1u/bDqppNxt/Vfdbq03DkLQ9Vr599svW3bNispVrsk6PQVzDsq04Bm28yVMakxW3l6W9NfiTGkammJK14I09fOfYfpr6ks5UKXDfZvNY2bXbmXWWVdNyw61F2HU9r1+Y1JqLDEWS8lqxrZTMhLUlfyX8IXn4gvbpPU49SfWaONrGvd/wDtpV65Eix4Uarf5KgbLJaiMtoZw1nad21a1v3nFtJxhby7dUjOVZXh3C8/EBaXu+875yjtkrd+TN63zk7ebBElh7cOSd12vkTbVRZr7UmRWQ7/AHK3nS62kXJaaX+TYjkavSttKm4jeUp8Bd96e/p6dgvUh5kqtE4LgTabVdH2aM7yR2Oy3Nb1DrxMiK8ybGv2asmR3183sxVLVTUNNMZum5DsaVZyKaqcxPWGzpj8XcgcW9Y2+IOB98dteUNI4fzo3FfJHYy323lZydu9PrC6rVdw5htlW7dzvXxXTUWZb5RNZlTE/NQ28z8ScpDV998OpXdbqnyluuz96tI3Ws2ze9rtNr2jsHsEvG28Wcr7ZfvsuWW1wua6ytjUypcyUphiJWWTWuWcaNDj18HXINZDgxWgs9o7fYNN2eHuep3206LvMCIiJXbxouzbLx9v0Cuw6mQmFX7xpdrX3EKt+fhLmYzU1DCl48rQrOMAXuRvVN9TmDXZp4PqFdr41VhGGm4at31Swdaj4whOI6L250GTbKR8CPHxqsFP4+LOcO/FnKgLQd85C5F5b2l3ceUeQuROVt0lJlMfsq5N3vcOSNmRGnyWpkusrLbc7mc9T0q5keM7+ToCo1fhcZpaIqctt4SGVr0WfTX3zv72n0LabbU7mP1V4I3/AFfkXmHkuVWOs6ls+yca7NWbVqXCGmXMxvDG1bbY7lSVmdiTX/e2aCjprKLcOV1raUzDobKzctO1bkLUNm0LeKCq2zTN0oLfVdr1m9iNWFLsOubBAfq7qmtIL2FIlV0mvlSGXW1YylSHs4zjP4wka2v1afR15e9OHeb/AHnUKvYuROll5ZSZGictIbn3tjxHAdwt9rjrn6c22tdEuAynLNXuM3Kaq8hxmm7ibE2Pzm8R9Rhhkxm32HosyMzJiTo6mpESYw3Jhz4b+PK2X40htTcyC4nPulaVIcxnGc4zjJEfqxOtkUn7F0bHubeofcV1n7BWt63djjtyrVGVDVVucbtbDigdrVR1KSqOqtUznCvKm858ZwHx5eaerpnsWOaar1qHDTVPtz8VtfrkWulJ+4JqX2peG4bFc81I+74jKThp1Mr5GG1fHjGX6/X6j8Y9RsjPQB2b1A7rptGqO7mlXlJp+tvUkDq/uXKE+0idgdw4nVXOqbj8oafbxVzYtPWKar2daubyRG2i3q5aWdgpmpVYi92J+v1+o/CPQR9fXk9GrdevfJPIPdPrXqM7Z+tfJWwWu9cwafqtQ7MtOuu+38hVjt21YpaqMtyZwfeXr063lT2Wlq1W5uLB2zxjW5qJevhGKYdbeZjSo7zMiLMjolQ5cZ1EiJNiSG8KakxJTSlImQ3GV4ylxvOUOIX8WFZTnHkLoOHu7fdTrtqzWjdf+3nYvhrS2EKZi6bpnIjs3UauPltLTcLW9V3qsu6/TK5ppGEsxaONWxmMY8ts4zjxkKeXF/zz2i5Z11F/f8x9kuduRrVWqaYxf7FtPLHKW32lm6zLf1LRo2w2r64UFxyE3KkQICq6igNQFWdh9wgQ5EyOFZ+7XTHkjopzNrPAXKthVWnJcjgDhvmXe4GufMmU+l7FyxYcmxJfHcK1+HH7JcUqePmmnrZCGGrCTPfXGisR2mvjDtPphw5afUu9PhxUWSlDXbbjhTqssO/C2nNXtSMKczlrPwpytaU4znx7qx+PgDZTeobn/vCO6v6P2qnYH8cZ8f8Acu2j2/r+kDU1sJV93i/m58fdIn4Z8+0dv/F7ef8AEBOc+yW+3VzubjOPGf24NN/D79V+vn9f5QM0nqh+nbofqTdZbXhq/s4um8jazaI3zg3lFyqbtl8fcl18GXXx3rKF8SHbLSrannWNLsMJh1iRJqLqRmHJi2DMKXHDWX9huunNXVDmDZOCewGg2vG/KWquSXpFHPy7Krb6ljvNts7vx7smIrLG/wDHMnL8ZcW6gIwhKpKYdkxVXTUyphh2PgLuP206qffk9Zuy/MvBcK1mO2NpQ6Ls8CXpVhOkPyJcye/xxvVLd60zZSZkhx+XNYpmJ8x1fzJUt7Oc/EFd+QvVm9T7lSgm6pvnffsZZ65Yxn4VnVa7M4x4qdsYclpbLkZ/Y+F+Ldauo6MpWlXxR7SOvynHlWU5WjIY91Ptwmpk96WmG0y7PuLS2mzcMYRJnSHJlrd3NxNe8rmyJTzr8udKfy7IfeU9JkOOrU4oJpf2an09+2fFsux7X8nbZyxwR1+2nXZ0bjPrHIn3er1PMVhsK0yX+Z9/4muGUsaTSxm1u5o84g1mxXkqwfs7jKKxiramw78z27CYcn6fj/L9f0+c/r9/4SI5AAAAAAAAAAAAAAAAAAAAAAAAAAAAAAAAAAAAAAAAAAAAAAAAAAAAAAAAAAAAAAAA/DZQ0T4b0Vft8xGfgV+KHU4+Jpf0z7YVjGc+3v8AT8SQ3TQY9y0Gp0eTtGWv3bcd63jvS0fhaInt6xzHxe2DNbBlplr609frHxj68x8J/p2o+60tlbjLycocbUpDiM+cZwrHlKsefGPPjx7e3v7Z8ePfGCcuDJhvk0+opOPLitNL1+MTE/ej8ImOY+E9p7897wpamStL070txMfh+vX489vohHfaOfT2kcW8tRu+vGNErPHPOVzR6x2FYgJbwxpvN+INfrmk8hSW8s4S1SbjT11TRynPm/C1slDTIajKcv5khOSOjN6jJgnatTMVyYObYvlbHPNrUj/NalrTMcz+5No/cp5ooG6aO1L++xd65J4n6T8/z54n5zwjw8Cc78o9YuY+POfuFr1OvcmcYXzV9rkmQt5NPcRnEZjX2lbdHZacVY6He0q5VZcRsNOu4jTMToSUWsCtlRr01mi0+v0+TR6zmcGaObzX1jjma2p6R56T96nM15mOJmIspePJbFeL07Wrz8+3PaY+fExxz844+KbDzfxJ1q+0O9G9U5n4Xtazjjs5xWmdA11/YVtO7Dw/yRIg1tluvXfmZFZ8bthxle4ZqpUSewl9hbK6bcKPMjLTWXMWaPV6zpDdr4dVinPo83a1a8xF6d61y47dojJj7z96LRMxNLx5Oy4Mtablpa5McxXNTv3jmY44mazHxiY4iZjvx3rxPHERfjDlrs76a/Ync9WtdYsdJ37UrGJr/M3Bm+5kx6Taa9lclVT9+kQWnEPRX4rUt7Wtuqky47rGVuxsWENMyrxTPGrwN8PPaM6Nw7B1TTyZsPny7VvGkiltftWpyRPny4IyTWuTFe0U+3bbqMlMWp8sT7zTZ/dautU6H676k8Od6vueyZIyUyTSmr0mebRptZjrMTFckVrPu8ta81wausTfDzMWx5sMW0yRf1v2bpp3d33Ve32h6kzA7AcV1C6HZI1u1mn3nUHtlpbSshQt4gwHlQNyaZgyNia1+8QuU2hqZZN1k1DMmdHVxN8ZNm9o32ZOkt+9n3qnqCdX4S9d541Wiy4LfaNt19dFqMGoy22vJliNXt05MtdJbd9stXDNslNLOqwTkxafPG9HRe5eGfipu2h6+2jRRHVnTlfd5qZaRj1emvqMOTBX39OJpmj3U56aXV0m9LYbZYwZvJbJEVn7uddNw7U9fdi4Y0zkeBxjOvbrWbawt7WgnbDVXFZq1xHvlavbxqy6gyI1TMnQYeJTjbjnllnLK477Ti21Y79mLxg6e8C/FzafEbqLpLL1jpNr0mvwYsGn1WPSZtJk1Wlvp77hhyZtNqcN8umw2zTSl60mlrzkplpetLRcfir0XufX3R2t6Z2req7Hn1eXT3te+Gc1MtMOauT7NkpXLit7vNetK5LVtNprFsfljzzxGp7J+k/6hnU+n/Ztyb1q3m942drmrqNyjwtHn8y6xGrpTq/umNmpNSqsbTpdrmOlL0lFhriK6I28jC7dbvzEo/SH0p1Bi6v6Y2LqbBtGu2PT9Q6PT6ymi3TT10m46auoxUyxi1mlplz0wamnmiL4vfXtXj78Ysnmw4+aO77fk2bdtftc6zDrMu2Zr4bZtNknLp73x2ms2wZZpjvkxfCt/JSLTzMRNYi1sbsW7rVavZRK/ZGf2A27z1teVtXtTjfG90/GWpMm62CigWiaG7lsraX8ybNjvusKYVhbreWvGK/kx6fJuGk3bLp8OXeNBScWn11sGK+v0uHjj3Om118dtbpsM+k4cGfHi/4J+FLp5seny6TFa+Pb9VeuTNp65clNPmy0iYrkzaak/Z8uSIike8viyX4rjmZ5xUmt+XVj00e+PdVutndc+tW77Bpk5fyY/K3ICc8N8Lx4jLGJLU6Jvm8w2n9tqnY+Ephv6nU7LHfcdbxlxlpSn22S0465r0pOXLWtr8V482S3lmfLE2tWJtee3N70jzcefJEczEaRWb46WmMdfu95jiKR6c8V5ny19eKxzxFpjzTxVI29PnpXyn0k0vkPReT+RabbLPat1Y2J/T6Cjt6+r492GvqIus30CNa3lw49dPyE1MD7wtEKtYy9CVJRG+OQ6tf56fbX8denfHDxB2m21+H2t6J3PoDDrdl1mTc9Rpr63VWwa7LecOp0mkw+60mTQ6m2pxRS2s1uSMd4pXNk08YbT0b8DugN06F6c1Ndd1Dp980+/wBsOuwV0mLJXBh8+DHHmxZ8mSZz1y4647WvOHBE3rM+7i1rRFQu0EDqnxdP1ruL2Koqx244SrJGtaNsU2ustimQLPc7avTVwNb1SGhxu53d+2YRGp31x1SoebaWiI7GRMkrXjrwN1fj111pN69nbwh3LPj2zxKz01+66THmxaOmTBoNPeuoy6vX5PLfTbXjwW99uGLHkjFqowYLZa5fcY6RcvXWDoLY8+i8RusNFXLqul6Wx6XNOG+fJS2e9PJGHDSLefUTevlw2rSb45yXms1i17TGX7gd2OYO9O/azqsChvqXQ3Nqh1vEvBWuIf2bZdm2+xW+xQS7uFr7bzm+8pyGku4h18BMiHWKw/8Ak/MvLK7jPbv2afZZ6M9m7Y9VqcOox9Sdfbngim6b9kxTipXBMVnJodtx5Yi+i2ut5iL3zTTVa+PLbVxipf7FTRHxP8Ut78TNxxYtRjnbem9Flm2k26lptWckWmMWq1l6x5c2qivemOvOn0l5mcXv8lI1MSdfTg6N8R+jZ1q3n1Cu/cuo1fnmbp33FyjRIi7VN4S1PYpEb8i8HcfprHHW9w5/2y3TTxrv8jZkNyJyIOvVkmfW1WbOwyn1Bu2XqDW4No2jnLosdu1prNfe2jibZb88XrgpHalbxExWJyWpS+S9a2Xo9PGixX1Ge3N+I/h24rHHHMz92Z4mefSJ4iLTFJ7udx+Ue93YzdexHKPz6t69+VQ8f6A3Pbm0/E/F9NIlr1Lj6oXFcWxKsWkzJU28smlvZt721mSEOqrWamNDv7atr0+06THpNPzaY+9kntza8xHmv/SsetaRETPM2tNH1Ge+oy2veePhER6RX5Rx8O/eY7TPPb5ZGPQg9PiT3D7TwuZN9o0TeuXVbYKHbtoVNQhyBvnOUP8AJu08UcZNMLaX96iValVe33uPiZWyiJrMdCpLFvNaaoXVu710Wh+xYZ51et+7HHEzjxzzW9pme8TbvjpPrxNrfCEzt2ltmyxe3bFT5fGee38+/wDD8WwdznPupWcrUpSlZz7ZypSs5yrPjHj3yr4s/h+PjGM48YxPEdqxH3rc+kd+30j68dvjPM8rnn7sd+0V/XH+nPy+nCq1DXZroCEOJ8PvZ+e/5+qVrTjw35/4qPhx/D5M0dN7Z/de2Y8eSvl1Oon3uX5xa0RxXn4+SsRX8YmfitPXaiNTqL2jvjp2r8pj5/nPf8OI+D7RX0oAAAHS+ReO9F5b0Xa+MuTdTod7493qisNY3LTNoro9vrm0a7bMKjWlJd1ctCmrCskRlqbeZcSpDiFZSpOcZzjIY+f9Rc9Jbx/c5Om/n8c/2AdAx7+/nx4p/b+QC6nrp0+6tdRq/aKnrB1/4l4Dq91m1tlttdxPpNLpMHYrCoYlRq2bbxaSM0iZKYjzZTba1pypKHlJ8+M+MBciAz/X28+34+38AFl3PHp09Ee0m8t8ndjeo3XznDkFqirtYZ3Pk/jDV9z2JnXal+dKraRm1uoLrrVWxKs7FxplOUoSua6rCfiWrOQ6HofpMemXxZuuq8kcb9Duq+jb9o97W7Rp+46pwvpVHsms7FTym5lXc0tvArEPV9ixKabW062tKkKRhWM48e4X/WNbX3FdPqbWDEs6q0hSq6yrZ8dmXBsIE5hcSZCmRH21NyYjsV1xtxteMoWhxSVYynOQLVGugnRthtphnpz1daYYbbZYab4G4wQ2yyyjDTTTaE63jCG0tJSlKcYxhKcYxjGMewFZ+LuDeF+EIlzA4a4l424og7HNjWV/D440jXNKjXdjCiJgRJ9uxrtdHTYzGoKG2W3XsLWhptLaVYRjCcBVLPjxnz9PHjPt59s/XHjx9ALatq6ZdRd62a93Pder3Xvbtv2ef+Vdk2jZuHdAvNiv7TMWLBzY3VzZULki0nfcoMJn5rzi3PlQ2m/i+BtGMB9LQepfVziraYO8cY9cuDOPNyrI8+JXbXpHFOkatskGLaRsxLKNDu6SlZkxo8iLn5b6EOYS63+YvCk+wFwn8v8A6/5gKO8o9eeBubpVLN5l4W4q5Xl61HsYuuyuR+P9V3V+hjW7sF+2j0z2xVchVazKeq6xchLOUJeVXMKcwrLSMpClSug3R1WMpz076vqwrGcKTngfjLKVJzj4VJVjOte6c4z4zjPtnGfpkC7NppthttpltDLTTaGm2m04Q2222nCENoSnGMJRhCU4xjGMYxhOMfTwBy4hK05QtKVJXjKVJVj4sKwrHjKcpzjxlOcefOM+2ce2fbIGGTtN6Bvpp9qditd5tuGbDhfkW8mzLW63brntVpxC/sF5OW28/ebbptFlWtblcKeaStyTaUsp9zClpcWpLi0qhMcx2ngYy5f2SnrkqXhVf3b7YxoGM48x5uq9Y58zKPxxme1wnHTleU+3xZYzjzj3xnyIFznCn2YH03+N5lfZ8pTOeezUyC+txyt5Z5IY1rS7NpxfnMC+0Lhah1ar2Wryj9zXGsmZrLzecoeQ4la8ZiM/HGXFvGvC+ka/xnxFoWn8ZceanAj1es6Roeu1Oq6tQ18ZpDLMWrpKWIzHiN4QjGM/CjyrOPKs5z5yB34D4uwa5r22U8/XtpoqbZNftY7kS1or+shXFNZxHcZS7GsKyxYcYmR1Y9lIcQpOcecZx7gYLuwP2b30u+bJcy60/i7bOr+xSGHkNyOsm5zOPdPYmO4fwmwRw7ZxbHSlTMZlLzleKBOXMtNYdytLTeEBYVL+yScAqlKXB7x9pI8H4sZTGl6J1pmzMN++cpzPa4mYRlf/ABvkJxjz+9/AC7bgX7MZ6b3FE+uuuUcc0dpbOvedd/J/NO9xK3QZyHMLxiLecYcSUWt0W0QcJX4+TbRLBpeEp+NK8pxkDP8A6Po2mca6nQaJx5qeuaNpOrVsam1nUdRpa7Xdb1+phow3FraakqYzMeuhIRjGEttNoTj9Gc+4HawPx2FfBtIMuts4cWwrp8Z6HOgzozMyFMiSG1NPxpcSShTcmMtpSkrbcSpCkqzjOM4z4Awg9gvs7Ppd8831lttdw5sXX/abaRJnWE7rfvd9xbrk22lvPPyLedxfEXJ1OZaOOPqy8+qj+Y98CfmqV8tGEwiOOe/PIsqq/snvTaJdMTrXtP3Ku6ZuQ665rr1j11rWJLLmHMIiu29PwAxYNto+NGUrbkodzlrHxuZxleFRGT/qX6JnpvdNthpd64x4Ag7dydrklyXrfK/OOxbBzfyFrMp+GqA/K0+55FnTWtIkORlOpcVSx4HxYfc8/v1ZyGV/GPr+v/H9Px8/j/6gPB1tt5tbTqEONuIUhba0pUhaF4+FaFpVjOFIynOcZxnGcZxnxnGcZ8AYV+zH2fv0yOy2w226v8L2fBm9XtlZXt5s/W/bLPiGNf7BbP5l2Ow7NolN8zWNmu3pSlOvS59JIkPLUrLri/jX5CxWi+yg9K4N3982Hsx3I2ugyt35urvX/BOuMOsOrznDGNi1HgyDbR8obypKXWprb2Pi+P5mXPCsQmOfoMzXTL0x+k3QePLe628K1Gt7hawMVd9yptNpecjcwbBXYdckYrLXk7eJ863/ACNh55akV7EliA1lWMNRkJwnGIjy7Ielv6ffb7kLPK/ZnqrxfzPyHmgo9X/ZTukO2mz06/rbtw9R1bbbNq20zGjPX90pvCW8K+KxcypSsq9gp3xd6L3pZcJciaXy1xP0k4W0LknjzYa/atK3HXay4hXWvbDVuqegWcB/FzlKXm1qVnwtK0KxnKVoUnPgDILyZx1qXL3HW98U73XvW2kclafsmibfVx7GyqJFlrG21MujvoLNrTymJdY49WzpKEyIrzMhnLmHGXW3EpVgMMqfs33pFobabT195BxhlpplHntL2kUr5bKENN4UpfMXlxfwoT5UrOVKz5ypXnOfPzNOf8U/xGQ/pr0N6xdBdO3PQuruiWmhaxv+5Mb9tkO23zfeQZVrtUbVNe0lmzzbchbHZy42Ma1q1DG+S0+hnP3D5uW/nOOuLjHaOPkLxCItj7TdNOsHdTQ2eOOz/C2k8va1AmLtNfVsdapGxabdqivxEbHoe31jrFro+ytsSHktT6qbElIwvOMO+M+AI83LH2T3qxsdvJsOF+03ZPh6scXh2NqmwMcb80UcBXzFOLZbvd11dvZZsfKlKx/ru9ku4ThKUupxjPmERxz39RS2p+yQ8e4mMq2HvtzA7XNqSp2PqnC3EtLYyMYzjCm8TtnTdsNJ8efhziJ5wrOMqznGMpzEZYOn3oG+nb0/vqPfoHHd/wA88r669BsKjkrsTfN8hy6K9gsLZb2LUNBYrYWp6PfZw4tX3upoYklOV5+FzHsBmmxjH6vf3+n45+uf1+wHIAAAAAAAAAAAAAAAAAAAAAAAAAAAAAAAAAAAAAAAAAAAAAAAAAAAAAAAAAAAAAAAADjOPPj+XGP4frj/ACef5D5tzPp6/r9cn+ro201WfOLJjGVeEpRLRjHv4T7Nv4xjHv49sK/RjCf0GPOstlnvu+mrzMREZ6xHw7RGbiPXy8RW/wA4mJnmIlW9p1Ud9Lltxz3pMz2+tZ/HtxChXKvFugc3cbbzxByrq1Xu/G3JOsW+m7rqd0ziRXXuu3kVcSfBkJV/4JzLa8LadRnDjLzTb7WcOITnFgYc2XTZsWfBknHkwTFqTHaazHaI+sfDyz247zHaJitZMcZMd6WjmtonmPx+X1+EfL6NbT6lXpzcn+nJzk5oGyrtNu4c3aTbWPAHMsmOrLW+a1Cwua/qW3SEfE1X8z0VZj4buJnKEXEaL+yarT91ftIFFmjY98w71hnJ5Yxaqsz7zHXiIrM9vNSP8lpjmnpxPFOZ4jz2rq9Jk0uS0euOe8W9Z7+sT8eY9P8AbniKN9Me6POnQ/mys5w4Juo7VlmLHod70S+em50Dl/RmpTsxekb/AA4CVOpZakyZkimuYrTlnrc+a7NgIlxJdzT3Uxu206Td9LbT6ivNqxPlyV4iaTMceaLTHr8JiZito4m3ExFq/Gn1OTTXrbHPHHw+E/T+c8enHM9/hMxd5j03PtE/B7Lrcu14o7Q8Y0KUZ+75oq3slwFIvI6XHokiJKaereauDZlkyv4V4TZ61MlVPzGHK2+rPmQscTG8dIaz0rqdLnmeI80zhy8c17+Xi+LJHExETFMsduImlu9Z/wC67pj7c0yxMdo45j/TzRzEd4iaz2iJif3aOdI/TL5q9PDS+Zte5Ok61vGd05aTsNRyNx2i1d1i40yn0nVdboZdjT2bapuhz1y6+6eerJcie1EclZ+Vcz0LS5nlt/aO6TrTrDqjobqXRdNazJ0F0nsd9LfXUxe9wYdbn3HW6zVzqpw3yX01ceKdPSupz4cOjnFXH5tRXL5sVdu/Zkz7DtWz79tuXdMGLqHeNf7+dPeYxZb4sel0+DDbHFuK6iZ91eZrSZyUtM193NYre2Sbrxp8TeOYdGpZ7KJFZiydvLBpXhceRA12G9bYYc8Z8OsuTY0BtWMY8KbWtOc+POM6peyJ4f6bxH9oDw52HdNJGv2bDqsu6aqsWpbDfTbPjtrK1m3eL1vuFdvx3iszW2OM2O1rRa9LZk8XuodR0t4ddU7lpck6fXRgjTYrRzF6ZdZkrg88R2mLVxXzXrMRE1vWto7x27V6hvrk9TPT03q24Y2jV+W+aeda7S6rcnuOuJdbrVVFTHv5MhqjrN15N224rqLULWRDjuWCoT0p6xbq1NTUwXMS4Lcr9J9a/d78TP09Pw7/AOnw5+Pq5f8ArPf1j8p/h+vWUGneXu8HZzYOYfWZ1Xg6PA4t1nsBqXI8/kfR9Xqti4H48tdIk0qqGtp9clJjSeVOGNdj6FS1vIOzMR0V65+w2cm2lU7kq7Tq31zPpz2J7957yl9dFftJfT/s/Z8McUcq6Nv/AF25h5Ot6HR4EuXEqdw65zduuI0eFSOavzTQWmWK3VbrZXodVQIvYNPYyJ1xChrgoU+065824+PeLcxMdu/Md/5c8+vbnk/HvHy/P1/L1Xpd2NPiUPKUHYYLeGm901/FjNbQn4U/lejkt1M6TnCc+MrchvVOV58Yz5j5UrzlWfHDH+0h8PdJ094wbR1ft2GuKniDtMajU0rFo512158Wi1GeYraa86jS6vbq5LzSk1+xRa1r+aZpv57NHUWfduhNVtGqvN79N6ucWKZmZ/7vqqTqMWP4zxjyV1EVjmKxGSK9o4Yzez/Tnk3u11q5T4Y4xp6h3ZdkgVMvU9i3CbMotDptx1rY6nY9dnXuwxayY4xDZsqxCnsQYc6VhOMpRHypSTHPsObB11o/HjoPxC2jp/Wazo/ZtRqNPu2vx0rTSV23WaXUaLW0xarJNMOpz2x5bUx6fSX1OT3lYx6iNPXzXpXfHzXdPX8PuoOntx3LDg3jXYsd9HhtPnz/AGnBlx59PecFJ89KVyUpab5fdY/LzMXtMeSfl8KdSvT29AbilPZTszyUzyr2X2CFJ1/Xd1k69Fe3W3s7OKl6fxl1Q4ejPvyNaqH8s5XaXUmRKsc18PEzadlbqK1tMTt9q9x3bq7UU0uj09dNpq+WfLE2jHFa8R58+S3rb4xWnFOfu0pHPDQeun0+347ZclvPlme3NYj07TWIjiO3EfDnt3niOYizeop6kXN/qPcrxN05CbVpHFemSbBHCvBFZaflCh46gz2noEvZNinxvhZ3Hl6wq3VsWVylOY0CJIdpNfw1XOWc6+vzZdh0myYb0pMZ9Rfjz5eJiLfKI80c1pHEeWvr2ibxFuK1pOr1d9Xfme2OPSvPPHw79o5njiPp/FSPph0y5q73860XAvCNe0zazGI95vO/3ECRP0nhzj9U1cGfyNu2GHmvvbCXmZcelp0PNS9mto/5Oiux4ce5taeZ3bdNLtWmnPqbc/CtK9rXtP8AhrPrHP8AimeYrX73efLE+eDT5NReKUj09flEfGf19fxjZZ9VOsHE/TfgXj7rtwrUO1ejcf1bkZE2e4mVsW2bDYyF2O073uNnhtKrncrq8flz7KUv85x+ZnGMJaS2nGFddrM+56zNrNVETmzT3iI+7X4VpWJ/dpXjyxXtER3njmeLswYceClcWPv5Yjv85n1n5/D8v5Lrtbq/vT/315OFR4rmMoSr2w6+nx4zjz++Qj83P61eMfTGS5ukdmtrdTXcdRWfsekn7kTH/mZY4mJnn/Dj+PzvxHwmIp256ycVJw4rftb88/OI+P8AGJn+cKjpx9fb65/H6/5fp58+DK0es9vT9cfl/VbvfiI+EPIiAAAAAAAAAAAAAAAAAAAAAAAAAAAAAAAAAAAAAAAAAAAAAAAAAADxj9AAAAAAAAAAAAAAAAAAAAAAAAAAAAAAAAAAAAAAAAAAAAAAAAAAAAAAAAAAAAAAAAAAAAAAAAAAAAPGM/XH098fqz+kD1uJwrGUKSlSFpWlaVYxnCkqx4ynOM+2cZ8+/n2z9D5vWl62peOa3iYmJ4mJie08xMTExx844/H0OZiY4njieY+HePThTK8pXK13LzKVKhOq8IzjyrLK1Yx+5L/N/NTnOVfDnz48Y9/GTD/UfT99qz2y6es327Pb7s9/2Uz/AOnbjvx8K2+McVnzX4i1z6DXV1VYpkmK5q/zj5/79/z+Vs3ZfrNwt274d2vgnnvTIm6cfbayyt+Mt12Bda/dQF/Potw03YYmUytT3asnYbk11nCcbkxX2U5xnKMrQqhaPV6nQ6imr0uScOes9p7T6/4Zr/irb4xzxEc/GU5lxUzUtjy180TzH5/CYn4fy+vya9b1KvSm5/8ATi2adfbIiRyX1jtrr7jonY2sgx4VdETYPMtUuq831UNlEfjDkNyQ/wDdG5KcfsYvZLTbtVKrZ1jE1iPl/Yd/0u9UpirzTX1ifNh4n4R3tjmImcle3eIjzU4+9Ex5rrY1Wjy6a8815pHMc9/58fH9cc/dY4NP2/dOOdy17fOO9u2rjjkTT5y5ep71pVxL1rdNVsHHI6n3qa4h5w5GbediREy4byHq+xZj4iWkSbEy5HVXM2PDqaXx6jFXU4MnEWpkj7t4iYmKzETPbn044tHrW1bcTEtS1qWrNbTSazzEx6x8Y4j0/wDr4tk/6R3OnMHZf09OvXM/Pm0xd75O3Gu3iNsG2M65U6y9sdfrXIe06trlncVFIy1AVeyNdp6xdlIhxYcOZNdfkxoEFh1uIzhLqHR6XR7trtHp8Xl01ZrHu+fNHFqRa1Z80zNqRz5Yi02+7HFpsurQZMmXTYcl4mcneYntWYmLTxMRHHFo49axzHwXOUnIPUrUOyLGhSN/4m07sFC12Nfu8fydtqNU3Ofq+6tWESr2FGpTpkfF7VS5VPZMsyozT2PvFa+1lzDzTzeLF6H8HvD3YfEnbfEvZeiNPsnUeWms0mTXaLDbS1zxrKROWNVjweXTZ8lr0pauTLT3tJ58lo89ubk3rrzqncOmdX0vrd+y7jtVrYcsYNRNc9qe5vzX3WTJHv6RXmfNEX8k17THD8+9+lr6b/LXK9rzxyR0o60chctbHbMbJech7bxTquyX1/dNYj5YubebZQ3kW1ihMSLht99LjiUMIShWEJTjG1NeflxEfD/74+nwYu4mPWP/AJX0VtDR01RE12oqKuqoIEFFZAo62BEgVEKtaaww3XxKuKyhiNBSzj4Esobw3hCfh+Hx7H0Mfm3+kX6Xm+bxN5I3HoH1Ov8AdbOeu1tb6x4P0db1pZOKQtyfbxW6lMazmKW0nOXZDK1ZzjOfOc5z5T8vh+PB37cPsdi+c+lms8l8WaPy/wArcPMck7BaQNB4w42t9vrbLbtk2LabODDgUdDx3WzHZdvNW/GifnKiKbjtIW86tphDzmNdfGPwl6H8Seoend56v6MwdXZuktLqq4PtmOc+k09dXkxZc9r6fJ5tLkyW+x4uL5sd7Y6cxj/ftW+Quj+teoul9u3Hb9j3m+0Yt4y45y+4mtM+ScVbRSK5fJOTHWIy3iYx2pFvN96e0cdy55u9k0TgPmfZeP5FbSbbpvEfI+waXKk1UexqarY9d065tKSTIpsZQ1OhN2EJhS4/lCHk4y3nOE58n3t2l0uLJotHj09cOjpamOuPHWuOtMfMVitK0iK0iK8RxWs+n+LvMyupz5ckajUZMtsmotE3te9rXvaYiZ5ta02m08xEeszER+ENVTv/ADpyv2b2WPzrzlyLuHLPJ2765TTrLdd8sWLG8brLWDBtUa9VsQIMav1XWWn8srRUUsGvqEPNZk4h/elvSV7A4NLptvxTpNHjjDpcd+0V7RaaxMRefNzM3tHM+a02mOZis8fdiyrWve3mtPmtfjv+MRMV+nftHH5Ltuhnp5djfUR5FlajwbSwq3R9ZtUVnKvO21xpzvFnFS/mIxLqZ70F5l3eOR0xVuOsanVyG5ysIaVcz9eiSok1+n7xvOl2bFWdXa1c2WkXxY4iPPeJ54mOfSkz/wCpPMevlrkmOHpptPk1VpjHET5Z8tp7/d49YmJ9bR8ufrM92w46P9F+CegXDELh3hKnkLXLfYu+RORtiRBkchctbriI1Ek7hvNrBistuPYjtNMV9dFbj1dNAjsVtVFjQmG2sYd3HctXuupnVau0cxzFKVmfJjrPwr8e/ETNp+9MxzMzHErp0+nx6ekVpX5c2+Mz/rH4do+kd17lVVu2cj5aM5bab8KkPZx5w2j3VhOMZz4+YrOM+Mfw5z5xjOMzGybNqN41MUx/s9Li4nLk7z5a/wCWnPacluJ8vrEcTM9o4nz1espo8czPE5p54rHaOf8ANP0j+KqkZhmMy2wwjDbTKEoQjHv4xjzn3V5znKs+fOfOc++fPv58maNLp8OkwY9Np6RjwYo4rEenHf8AjM+szPMzM8zMzzM2re9sl75Lz5r2nvP9Pwj4P0Ew+QAAAAAAAAAAAAAAAAAAAAAAAAAAAAAAAAAAAAAAAAAAAAAAAAAAAAAAAAAAAAAAAAAAAAAAAAAAAAAAAAAAAAAAAAAAAAAAAAAAAAAAAAAAAAAAAAAAAAAAAAAAAAAAAAA9TzLbzbjTraHEOp+BaFJxnC8Z8e2fJ458OHUYr4M+OuXDljy2raImJj5TE/j2n4esTEo1tNLVvWZi1fSYniY/OO6m9vr71flT8f43ofnznPnKnWM4x4zhz4UY+JH18LxjHjGPCvw84p3/AKX1G3zl1WipOp0ETMzH71sUfGLd4takR/ij73Ha8xEe8XHo9wrqIjDl4rm7cT6Vt9fSeLfT0n6+jo99Q0e0Utrrey01XsOu31fJqryivIES3pLmqmNrZm11tVzmXGLGA60pSXGnULQpOfdP0yWpW0xauTHaYvWYmJieJjvExMWi3wmI44nn4cz3iKjatclZpNea/wAufrHfnn4x6fLn1RaO832aTj7bZN1yP0D22r4d2B9cixd668jz7edwnPl5xIdxD423Jpmbb8Kx1uLitM16493rMFiLhitp6vDinMX3tnW2oxeTDumL7RjiIiMlPLTLFYiePNXiK5Ph5rTMZZ45m1pnhSNTtNeZvp5mI9ZrPz78xHxjj4RHx47dmYf0i+GOWuu3p9cD8Ic5aTL495Q41d5N1vZNZlWdNcoaaa5V3GVR29Zda7YyotvR2Ovyq2fBkocQ6uPPb+8x4crD8Ri3OodTptbu+s1Olye+02aazW0xNZmPJHPNJ/dtE8xMRMx27WtHdP6LHfFpseLJHF8fmifj389vj/p8ePhDCv8AajunEfe+POB+5kDWIWxscUWcnhHluJPqoVxAh6ZybbQ5XGm6ToEyC/h52t5LYTRIe8JTDj8pyZDi0NIWrFydC7nOHNq9rm/lrrIi9Y5mItOOebUiIiZn7v3+PTnFWZi01rCQ3fB5opnrXmaTxx8ue3P/APnn4RaZ+aKZx72T7K8RvRHOLezHZjjtuC44qFXaj2N5tp9fjZdQ638lrUEb9mnTGSh5eG2M1ymGc4xltCPgRlGTJ79/y9eZ/Ce8z8fj8/WZ5maD/wDa4RHqlep83GVCa9RPtq1CVnOEs/s0019bTalY8MosJvHbs34cYTjGM5lKd8Z/ffErOMwFFORO2vbTlrL39kztl2p3Zt5hMZ+Hbdkua4NO+yjLyvge1nXd5g1Tqs/PcwvOYWcrTnDasqRhKcPwnvPEenPr6/y/1IjmYhlp+zi9O43M/fGd2Ik6lXRdD6nUkjdrLYY1O3BbvufuSaW/1PjmqkWsJpCb66rNHuuR7yzYluOyGE7Hrs/wrM1p0tDrPcp0+110VLzF9daY8vn54x08t8nMc8x5r1w15mk+fyTHP3FT2vB588ZJrMVxx8f83fiPxiJmfpzCc/2Cqr684D5uotVo5uy7PdcP8l0uua7XOQm599fW+lXVbT00JyxlMR25UmfKjsoU+8yylTvl11tvCl4xZpZrXU6a2S1cdKZK2mbfuxWLxPMxETMxEf5Y7cc+vETcGaJnDkrHeZrMR3+n6/3j1ROvT3+zD3NbS6DsvqFchx24+uUOuQ19dOCdjntptnqatYhfJ5O5uYjxZmIa1RorrlXqbVattxD0OVsNrCcUly/t162p5smPZsU1iLTaM2Xi0x3niKU44meJ/eyRM8xzGKscRFG021Te1b6i3ERHPEdue3HrE9vjz3iJ5j70x95Ls414z474b0bWuMuJdH1XjbjvTq1io1XSNJpIOu6xr9dGQhtqJWVFcyhphPhOMrX4y44vytxSlZ8mP8uXLqMls2bJbNmyzMza3MzPPx559OeY480T6x8uK1SlcVa1x1ikR9OP5cRz+PHP0+E1RqaeRaLwrGMtRUK8OPqwr87/AOklhPj90c9v1Jx9c5z+9zXNj2DWbveuSOdPoazxOWe/PHrGKJji1/X70fdr/inzRNJldXrsWmrMRMXyz28vrEfWfX+v9VTIcRiEziPHbS22jPnGPbKlKz9VuK+ql5xjHnOf8njxl3RaLTaDT00ulxRixYvT4zMz62mfWbT8Znv8PThbGTLfNe2TJabWn9cR8o+j9ZNvgAAAAAAAAAAAAAAAAAAAAAAAAAAAAAAAAAAAAAAAAAAAAAAAAAAAAAAAAAAAAAAAAAAAAAAAAAAAAAAAAAAAAAAAAAAAAAAAAAAAAAAAAAAAAAAAAAAAAAAAAAAAAAAAAAAADxVjGfrjGfbPtnGM+cfT8c+31/nPm0RPHMRMfVD6R2dUtNYZk5U9CUmK99VN+M4juZxnGc5ynCM/Kzn3/e4yn8fGSzd36Q0munJqNDaNFqp5ma8TOK8zx3msd6TPfmadp57xPrNV0u55cMVpmj3tI+PP3oj8fj+uPlPSJkCXAV8EphbXnPwpX4xlpXjOMfmupx4Vn9WPf3Mda/bdftuScetwWw+vF+YtS3f1i8c178+k8Xn5R8a5h1ODURPusnP09Jjn6fHvH8vzfj8YxnPjHj38/Tx75znz/KU+OPhxP6/l+aYdC5U4w0TmzjXfOIeUNbr9w465M1O80jdtXtG/m195rWxQHq61gSMecZRlUd5WW3E5wtp1CHUKStCcnthy5MGXDmwX93mwWi9Jj4TWefr2+ccd/n8/m+OuWlsdufLaJ+ET/rE/NGm3T7K51ts3nXOPu4nafSo2UtojV+xUXA/IrUZDUdtnCXLiz44h2do8pxvLjr0ua++4tS1LcyrPnF5YeutfW1Jy6DBlisxzETmpFuOJmJ4tbiJjt2mIj/DMeqkW2ekzPGS0TPfniPj+Ff8AWVLlfZVarC/zO89/hj4seMu8A0K5akZzjCvjda31DeXPOc+FYZwn2x5Rn87GZyevrx//ABNeZn0jJeY+Xr5ZnifXv35nt92JmPmNmmYmI1PMR/wV5j8+fxVA1L7KvwNBlNSN67q9ldkYS8y8/XaxovAGoRZCEufNdhomWmgW8uPFVjGE4Ul7D6U5znD2F/n4l8vXmstfzYduwYoj4ebNeIn93n9+sz8ZmPN5efSIjitYxtNIiInPNu/fiI5/nX+v/wAZ/unXTbg/oxwzE4R4FprSBq6dgutsvbvZrT8v7nuO23zjWLDYts2BUdpVnOTBiV0GK2lttiBXVMSviMsxozbeLR3DcdTumqtqdXeLZPLFYiIiK0rEzPlrWJtFY80zbjnvaZme8zKq4cFNPT3dY7zPMzM97TMcczETMc/X4rqfHn2z9M4zjOPwzjPtnz/J/lJKPXt6/P6Rx9J+nHp+fpPrHaY47T8P1/B7mIz8peGorTrzmfb4W05VjGPOMeVq8eG0+fxzn8CY0mk1Ouye60eC2pt/wxzx9bT2rEfW1qxHHbzPLJmxYq/tb1rWPXvHr8Pz/L8nc63U8J+F2yXhxWPCsRm85w3jPt7POY8Zc9vHsnwn298q+hkHaOi8eLyZ92tGfJEc+6rMzSPlF7Rx7yP+GIrWfj5uyi6rdr2maYPuV9PNP73HHw+UfqXc2kJbThCE4QhOMYQhKcJSlOM58JSlOPGMe/8AX65vylKUiKVpFa0iIiIiIiOPhER6R29Ph8oUe0zaZm1vNafX9S9njH6D7iIiOIjiEAAAAAAAAAAAAAAAAAAAAAAAAAAAAAAAAAAAAAAAAAAAAAAAAAAAAAAAAAAAAAAAAAAAAAAAAAAAAAAAAAAAAAAAAAAAAAAAAAAAAAAAAAAAAAAAAAAAAAAAAAAAAAAAAAAAAAAAB4OIbcTlDiEOIz9UOJSpKsePfylXtn+U+MmPHlpbHkpGTHftMTETEx9YnsjFrVnmszWY+MerrkvV62R5U1hyIrPnOfkq8o85/H5S05wnHnGfbHw4LW1nR+z6rm2Gt9FefScU/d5n/gtFqx+UR+KfxbpqscREz72I/wA0d/48/wC74T+oTE5z93ksPp8fRxK2VePf9GFYzn+XBbWp6F11Jt9m1uLPX4RetqT+fE3j849flCfpvGKf/MxWrM/KYmP6f1fNc1y4bznxE+P8c/LfZX5+mPpleM/o/ApeTpPfqcxOkrm47fcyUnt8vvWrP5TEJqm5aOY5tm8vp2mJ/pH+/wDSfV+QrjOP9r3/AB498ZUznz/J8z9H+Ulp6d32eYja8sz9Zx8fl+1iPjP6mX3O4aP4Z4n8pj/f9fP1e1vXrhf0hqR584zlx1lH0/TjLnnGPf8AX5PanSu/X9NB5In18+TFHHP4WmZ+vafp5vR823LSRHE5onn4RFp/pD9zGo2K8+Xno0dH44xlby/P4/mpSnH18/8AjZ+pVNP0NuWTy/aNZi01Z/y+bJb69pilf/ymPrPrMtfeMERMY8d7z9YiI/nPL7sbU65rOMyHHpSseM5SpWGmvOf0ob984+ntlWcfqLk0fRe1aaYvqZvrrV4/fny0n/2U4/hNrf6pHJuuovHFIjFE8+nef4zM8flw7IwwxHR8phlpltP0Q0hKU+/6cJxj39vcurBgw6ekYsGGuHHX0ita1j+FYj+PHKnXvfJbzXmbWn4y9x7cR8nyAAAAAAAAAAAAAAAAAAAAAAAAAAAAAAAAAAAAAAAAAAAAAAAAAAAAAAAAAAAAAAAAAAAAAAAAAAAAAAAAAAAAAAAAAAAAAAAAAAAAAAAAAAAAAAAAAAAAAAAAAAAAAAAAAAAAAAAAAAAAAAA4j5AAAAAAAAAAAAAAAAAAAAAAAAAAAAAAAAAAAAAAAAAAAAAAAAAAAAAAAAAAAAAAAAAAAAAAAAAAAAAAAAAAAAAAAAAAAAAAAAAAAAAAAAAAAAAAAAAAAAAAAAAAAAAAAAAAAAAAAAAAAAAAAAAAAAAAAAAAAAAAAAAAAAAAAAAAAAAAAAAAAAAAAAAAAAAAAAAAAAAAAAAAAAAAAAAAAAAAAAAAAAAAAAAAAAAAAAAAAAAAAAAAAAAAAAAAAAAAAAAAAAAAAAAAAAAAAAAAAAAAAAAAAAAAAAAAAAAAAAAAAAAAAAAAAAAAAAAAAAAAAAAAAAAAAAAAAAAAAAAAAAAAAAAAAAAAAAAAAAAAAAAAAAAAAAAAAAAAAAAAAAAAAAAAAAAAAAAAAAAAAAAAAAAAAAAAAAAAAAAAAAAAAAAAAAAAAAAAAAAAAAAAAAAAAAAAAAAAAAAAAAAAAAAAAAAAAAAAAAAAAAAAAAAAAAAAAAAAAAAAAAAAAAAAAAAAAAAAAAAAAAAAAAAAAAAAAAAAAAAAAAAAAAAAAAAAAAAAAAAAAAAAAAAAAAAAAAAAAAAAAAAAAAAAAAAAAAAAAAAAAAAAAAAAAAAAAAAAAAAAAAAAAAAAAAAAAAAAAAAAAAAAAAAAAAAAAAAAAAAAAAAAAAAAAAAAAAAAAAAAAAAAAAAAAAAAAAAAAAAAAAAAAAAAAAAAAAAAAAAAAAAAAAAAAAAAAAAAAAAAAAAAAAAAAAAAAAAAAAAAAAAAAAAAAAAAAAAAAAAAAAAAAAAAAAAAAAAAAAAAAAAAAAAAAAAAAAAAAAAAAAAAAAAAAAAAAAAAAAAAAAAAAAAAAAAAAAAAAAAAAAAAAAAAAAAAAAAAAAAAAAAAAAAAAAAAAAAAAAAAAAAAAAAAAAAAAAAAAAAAAAAAAAAAAAAAAAAAAAAAAAAAAAAAAAAAAAAAAAAAAAAAAAAAAAAAAAAAAAAAAAAAAAAAAAAAAAAAAAAAAAAAAAAAAAAAAAAAAAAAAAAAAAAAAAAAAAAAAAAAAAAAAAAAAAAAAAAAAAAAAAAAAAAAAAAAAAAAAAAAAAAAAAAAAAAAAAAAAAAAAAAAAAAAAAAAAAAAAAAAAAAAAAAAAAAAAAAAAAAAAAAAAAAAAAAAAAAAAAAAAAAAAAAAAAAAAAAAAAAAAAAAAAAAAAAAAAAAAAAAAAAAAAAAAAAAAAAAAAAAAAAAAAAAAAAAAAAAAAAAAAAAAAAAAAAAAAAAAAAAAAAAAAAAAAAAAAAAAAAAAAAAAAAAAAAAAAAAAAAAAAAAAAAAAAAAAAAAAAAAAAAAAAAAAAAAAAAAAAAAAAAAAAAAAAAAAAAAAAAAAAAAAAAAAAAAAAAAAAAAAAAAAAAAAAAAAAAAAAAAAAAAAAAAAAAAAAAAAAAAAAAAAAAAAAAAAAAAAAAAAAAAAAAAAAAAAAAAAAAAAAAAAAAAAAAAAAAAAAAAAAAAAAAAAAAAAAAAAAAAAAAAAAAAAAAAAAAAAAAAAAAAAAAAAAAAAAAAAAAAAAAAAAAAAAAAAAAAAAAAAAAAAAAAAAAAAAAAAAAAAAAAAAAAAAAAAAAAAAAAAAAAAAAAAAAAAAAAAAAAAAAAAAAAAAAAAAAAAAAAAAAAAAAAAAAAAAAAAAAAAAAAAAAAAAAAAAAAAAAAAAAAAAAAAAAAAAAAAAAAAAAAAAAAAAAAAAAAAAAAAAAAAAAAAAAAAAAAAAAAAAAAAAAAAAAAAAAAAAAAAAAAAAAAAAAAAAAAAAAAAAAAAAAAAAAAAAAAAAAAAAAAAAAAAAAAAAAAAAAAAAAAAAAAAAAAAAAAAAAAAAAAAAAAAAAAAAAAAAAAAAAAAAAAAAAAAAAAAAAAAAAAAAAAAAAAAAAAAAAAAAAAAAAAAAAAAAAAAAAAAAAAAAAAAAAAAAAAAAAAAAAAAAAAAAAAAAAAAAAAAAAAAAAAAAAAAAAAAAAAAAAAAAAAAAAAAAAAAAAAAAAAAAAAAAAAAAAAAAAAAAAAAAAAAAAAAAAAAAAAAAAAAAAAAAAAAAAAAAAAAAAAAAAAAAAAAAAAAAAAAAAAAAAAAAAAAAAAAAAAAAAAAAAAAAAAAAAAAAAAAAAAAAAAAAAAAAAAAAAAAAAAAAAAAAAAAAAAAAAAAAAAAAAAAAAAAAAAAAAAAAAAAAAAAAAAAAAAAAAAAAAAAAAAAAAAAAAAAAAAAAAAAAAAAAAAAAAAAAAAAAAAAAAAAAAAAAAAAAAAAAAAAAAAAAAAAAAAAAAAAAAAAAAAAAAAAAAAAAAAAAAAAAAAAAAAAAAAAAAAAAAAAAAAAAAAAAAAAAAAAAAAAAAAAAAAAAAAAAAAAAAAAAAAAAAAAAAAAAAAAAAAAAAAAAAAAAAAAAAAAAAAAAAAAAAAAAAAAAAAAAAAAAAAAAAAAAAAAAAAAAAAAAAAAAAAAAAAAAAAAAAAAAAAAAAAAAAAAAAAAAAAAAAAAAAAAAAAAAAAAAAAAAAAAAAAAAAAAAAAAAAAAAAAAAAAAAAAAAAAAAAAAAAAAAAAAAAAAAAAAAAAAAAAAAAAAAAAAAAAAAAAAAAAAAAAAAAAAAAAAAAAAAAAAAAAAAAAAAAAAAAAAAAAAAAAAAAAAAAAAAAAAAAAAAAAAAAAAAAAAAAAAAAAAAAAAAAAAAAAAAAAAAAAAAAAAAAAAAAAAAAAAAAAAAAAAAAAAAAAAAAAAAAAAAAAAAAAAAAAAAAAAAAAAAAAAAAAAAAAAAAAAAAAAAAAAAAAAAAAAAAAAAAAAAAAAAAAAAAAAAAAAAAAAAAAAAAAAAAAAAAAAAAAAAAAAAAAAAAAAAAAAAAAAAAAAAAAAAAAAAAAAAAAAAAAAAAAAAAAAAAAAAAAAAAAAAAAAAAAAAAAAAAAAAAAAAAAAAAAAAAAAAAAAAAAAAAAAAAAAAAAAAAAAAAAAAAAAAAAAAAAAAAAAAAAAAAAAAAAAAAAAAAAAAAAAAAAAAAAAAAAAAAAAAAAAAAAAAAAAAAAAAAAAAAAAAAAAAAAAAAAAAAAAAAAAAAAAAAAAAAAAAAAAAAAAAAAAAAAAAAAAAAAAAAAAAAAAAAAAAAAAAAAAAAAAAAAAAAAAAAAAAAAAAAAAAAAAAAAAAAAAAAAAAAAAAAAAAAAAAAAAAAAAAAAAAAAAAAAAAAAAAAAAAAAAAAAAAAAAAAAAAAAAAAAAAAAAAAAAAAAAAAAAAAAAAAAAAAAAAAD/9k=;clipPath=inset(27.33% 20.67% 28.67% 20.67%);" parent="1" vertex="1">
          <mxGeometry x="240.32999999999998" y="78.5" width="106.67" height="40" as="geometry" />
        </mxCell>
        <mxCell id="_tkoBfJF8qYOiKieuXjx-13" value="" style="image;sketch=0;aspect=fixed;html=1;points=[];align=center;fontSize=12;image=img/lib/mscae/Docker.svg;" parent="1" vertex="1">
          <mxGeometry x="410" y="46.04" width="39.58" height="32.46" as="geometry" />
        </mxCell>
        <mxCell id="_tkoBfJF8qYOiKieuXjx-14" style="edgeStyle=orthogonalEdgeStyle;rounded=0;orthogonalLoop=1;jettySize=auto;html=1;entryX=0.75;entryY=0;entryDx=0;entryDy=0;endArrow=none;endFill=0;" parent="1" source="_tkoBfJF8qYOiKieuXjx-10" target="_tkoBfJF8qYOiKieuXjx-1" edge="1">
          <mxGeometry relative="1" as="geometry" />
        </mxCell>
        <mxCell id="_tkoBfJF8qYOiKieuXjx-18" value="" style="dashed=0;outlineConnect=0;html=1;align=center;labelPosition=center;verticalLabelPosition=bottom;verticalAlign=top;shape=mxgraph.weblogos.java" parent="1" vertex="1">
          <mxGeometry x="281.96" y="280" width="23.4" height="51" as="geometry" />
        </mxCell>
        <mxCell id="_tkoBfJF8qYOiKieuXjx-19" value="" style="shape=image;verticalLabelPosition=bottom;verticalAlign=top;imageAspect=0;aspect=fixed;image=data:image/jpeg,/9j/4AAQSkZJRgABAQAAAQABAAD/2wBDAAsJCQcJCQcJCQkJCwkJCQkJCQsJCwsMCwsLDA0QDBEODQ4MEhkSJRodJR0ZHxwpKRYlNzU2GioyPi0pMBk7IRP/2wBDAQcICAsJCxULCxUsHRkdLCwsLCwsLCwsLCwsLCwsLCwsLCwsLCwsLCwsLCwsLCwsLCwsLCwsLCwsLCwsLCwsLCz/wAARCAEOAQMDASIAAhEBAxEB/8QAHAABAAMBAQEBAQAAAAAAAAAAAAUGBwgEAwIB/8QARxAAAQQCAQIEAwQFBwsDBQAAAQACAwQFEQYSIQcTMUEUUWEiMnGBFSM2dJE0QnJ1obK0FjM1RlKCorGzwcRi0eFDU5KT8P/EABQBAQAAAAAAAAAAAAAAAAAAAAD/xAAUEQEAAAAAAAAAAAAAAAAAAAAA/9oADAMBAAIRAxEAPwDW0REBERAREQEREBERAREQEREBERAREQEREBERAREQEREBERAREQEREBERAREQEREBERAREQEREBERAREQEREBERAREQEREBERAREQEREBERAREQEREBERAREQEREBERAREQEREBERAREQEREBERAREQEREBERAREQEREBERAREQEREBERAREQEREBERAREQEREBERAREQEREBERAREQEREBERAREQEREBERAREQERfl72Rtc+R7WMaNuc8hrQPmSeyD9IvhDco2S4V7VeYt+8IJY5CPxDCV90BERAREQEREBERAREQEREBERAREQEREBERAREQEREBERAREQEREFd5dyetxfFutvY2W3O8wUK7joSy62XP136G+rvyHbq2ufctm89n7PnZG3PZe9/6qLZEMe+wbDC37I/IfxPc2/xatyzciq1ST5NPGw9Df5vXM98j3j8fsg/0VZ/CfB0I8ZNnJI45L1izNXgkcATXgiAaQzfoXEnqPy1+YY8+DJ4+SF8kNupL9+Fz2SwP7fzmEgH+C1TgHiBcsWa+Dzs5ldOWxY+9Kf1plPYQWHH16vRrvXfY76tt07J4zHZinYoZCBs1adpa5rgOppI0HxuPo4eoIXL1mKXHZC3AyU+bRuTRNlYdHrglLQ9pH1Gwg6uReejO61SoWnDTrNWvO4D2MkbXn/mvQgIiICIiAiIgIiICIiAiIgIiICIiAiIgIiICIiAiIgIiICIiDHvF3DT/EYzOxMLoHQjHWy0H9XIxzpInu/pAkf7o+ahOCc5ZxoWKGQillxk8vxDXQdLpq0xaGEhriAWu0NjY1rY3vR3W3UqXq1ipbhjnrWGGOaKUba9p9j/ANvl+SxbmHhv+hKl/MY66x+Or+W+StaDviIhJK2INjkaC1wBcPXp7fM+oWXN+K2CipytwjLFm/IwthfPCYq8DiNdb/MPUSPUAN0fmPfJMTjb2ey1OhD1vnvWAJJD9roYT1SzPJ9mjbj+C+/G8Bb5Jk48ZWmhheYpJ3yT9Za2OPXVoMBJPfsO34reuK8Ow/FoZPh92L87AyzdmaBI9oIPlxtBIazffWzvtsnQ6QsUUccMUUMY1HFGyNg+TWANAUDyLl3H+Mxs+Pme+1K0vhp1g19h7fTrIJADfqSN6Ot67SOaycWGxOUykoDm0q0kzWE6Ekn3Y2b/APU4gfmuZ5ZMxyHLOe7zLeTydkAAa6pJZD0ta3fYNHYD0AA9gOwaXJ4yO8z9Vx9vlA//AFL563D/AHYdD+1WnjniLxzPzRU3iTH35SGxQ2nNMUzz6MhnGgT8gQ0n22qpW8HZHVQ63m2x3HNBLK9XzII3a+71vka4/joLPs/gcnxrIvoXmt6w0TQTREmKeEkgSMJ7+xBHsR+ZDqBFTvDzkM+fwTDbeX3sdL8FZkcdumaGh0UrvqR2J9y0n3VxKAiyzPeKGQw+Yy2MjxVWVtKw6Fkj55Q54AB2QBpaTj7TrtDHXHsDHW6dWy5jSSGmaJshaCfltB6kUTRzlG/lMzioQ8S40xAyE/q7G/sy+Sffy3fYf8j2UbhuVy5OzQgs4qSlHlIr82Km+KisNsNpSBkokYxrXMPcEbBB+e0FoRQNXlOGsYvLZYufHUxk1iOUvB63xt6XQyxtOiRM1zHR/PqC+Tc5yCOC/cvcbkq06+Ou343/AKRryzk12eY2GeFrB0uePk5+taKCxoq9/lRRdLx2GFsUz8vBane2G1E91XyKZuFrw3ZO/u+3/ZOOcgt55hmlx9WpC+rXtQGLKQXJXNm2QJYY2NcwgfP8PUILCi8eTyVHEULmRvSeXVqR+ZK4DbjshrWtHzcSAPqVkOQ8X85JM/8ARmOowVgfsfGCWxO4D3cWPYwb+Wj+J9SG1IqTwLl+Q5XHlxeq1oZceaen1TIGSCx5vqyRziNdH+17/TvXcx4qZHGZXMY5mIqSNo3rVRkjp5gXiGR0Yc4Ae+u/dBrCL5V5DNBXlIAMsUUhAOwC9odobX1QEREBERAREQEREBERB85ZoYI5ZppY4oYml8skr2sjjaBsue5xAAH4rKuceIHGsjiMrg8cbFqW0IWfFNYI6rfLmjlPSZCHn7pH3NfVVvxA5hYzmQnxtOYjDUZjGwMOhbmYdOmfr1aDsM+nf1Pbzcb8PeQcihZdLo6OPk/zc9lrnPmHp1Qwt7kfUkD5E+weHhefp8bzbMlchnlg+GnrubW6PMBk6ftAPIB1r5hb3g+S4DkUTpMZbbI9jQ6avIPLswg9tvjPfX1Gx9Vl9/wfy0MD5Mflq1uZoJ8maB1Xr17Mf1vbv5b0PqqDDNmuO5RskZmpZPHz6c1wLXscPVj2nsWkeo9CD7goN38SSP8AI7Nt8xjC51END3BvmFtqJ5Y3fqdAnX0WQcBuUqPLMHPccxkRkngEjyA2OSeF8LHEn6kD8/oo65kOS8qyEZsSW8hdlJbBDE1z+gHuWwwxjpA+eh9T81+s3xjkPHvhnZSm6JlhjXRyMc2WIPI2YnSR7aHj3G/w2O6Dp3sPksa8YblKW7gKMbmut1ILc1rp0Sxlh0Xlsdr3+y46+RB/nd6jW5xzipVbSgzVkV2sEbA9sMsjGgaDWSysdIAPbTlG0Mfm+R5H4eqye5esyOlmkkc55HUftTWJXb0PmSf7T3DT/BuKYV+TzkHyZJsfCw+xkjZM5/8AAOb/ABWrn3ULxnA1uOYinjIXB72dUtqYDXn2ZNF79fL0Dfo0KaPug5q5v+1nJv3+T+61b5jXXGcZxTqUccltuDpGrHK7pjfN8IzoD3ew3rawPm/7Wcm/f5P7rV0Hgf8AQmA/qrHf4aNBX6XFMliJeO3quTu3bdWd7MjFdsRiq+vkD13n12tiDgS/plaC476de+18KHEbFDAPq16lKDO5PzKWUyEb+qWOlZtOdM+ORzdl3RoNA130f5qvKIKRPwuww2adXI3paGTxzaluW9LDJNSsY97J8fNCxkbQ5rSHNc3Y7a7qRnj5pfoZWhbpYeDzsRkapnrXbEnxNuaAxxmON8TehmyS7bnH0+WzZkQU0cUFabiE9HH42vLQp34spJXjihfLJNjTWbt0bAXbedkn8V6uJYu5iq0VW1gcXQlgpVK8l6jPDLNkJIm9LnzBkDHDf3u73ev5m0Igzvxcmkj43RiaSBPl67ZNfzmsgmeAfzAP5KleGnGsNn7mZkykBsQ0IKwjhL5GMMlhz/tO8sh3YNOu/v8ARXDxf/0Bif64j/w06ivBr7/LP6GK/wCdlBoGB4thONz5SXFMnijyPwvmQSSmWOM1/M15bn/b79R3tx9Fz/yv9p+Vf1zkv8Q9dPLmHlf7T8q/rnJf4h6Dpaj/ACOj+7V/+m1eheel/I6P7rX/AOm1ehAREQEREBERAREQFE8ltyUeP8htxEtlgxlx0ThsFshjLWuH4EgqWUfmqJyeJzGPGuq7RtVoyewEkkbmsJ/A6Qc18ex8eVzmFx0u/Kt3oIptEgmHq28Aj30DpdQxxxxRxxRMayONjWRsYA1rGNGmtaB20B2C5Zx1uzhsrRuiMifHXYpnRP8AskuhkBdG7Y7b0QV05jMnj8vRq5ChM2WtYYHMcNbafdjx7OHoQg9qyLxfxdZowmYjY1s8j5aFlwABla1vmxE69x9ob+o+S11Yh4p8iqZK9SxFKRssWLdM+3Kw9THW5NN8sEdvsAaJ36uI/moPZ4OzAW+R1y1u31qczXdLeodD3sI6vXR6h2+i1+eCvZikgsRRTQyt6ZIpmNkje35Oa8EH+CxPwqyuBxt3LMyF2OtZux1YKZn+xC4Mc9z2mU/ZBJ6db1/2WsZzkuA47A2bKW2xukBMEEY8yxNr/wC3G3vr6nQ+vdB4JOA8DlkMrsHWDyd6jksxR/8A645Az+xTlHG4vGQ+RjqdapESC5laJkYcR22/pGyfqdrOZPGLECTUWGvPi32fJPDHJr59DQ4f8StHH+dcY5FIK9aeSvdcNtqXmtjlk0NnynNcWO/AO323pBaUPuiH3/NBzVzf9rOTfv8AJ/dat5o5Chi+MYi/fnZBVr4fHPlkfvQHw8YAAHck+gAGyTpYNzf9rOTfv8n91q/Gb5JluQjE0A2RlKhBVqUaURL+uRkbYfMf0gF0jvbt23oepLgs+R8VOT2b836Ijgr0nPEdSGWu2aw4b0HSHZ+075DsPTvrbtQ4u3l76fxfJLEXxNhrHQ0oYI4vhWdz+tc3uXntseg18z9ms8D4DHh2w5fMRtflXNDq8DtOZRB9z7GT6+349xN+IOVmxHF8lJA4snuOjx0Lx6t8/fmEH59Ifr6/ggqnLfFCSrZnx3HGwvdA50U+RmaJGGRp0RVZvpIHp1HYPfQ1pzqSzxD58yXzf0zI472Wvr1DGfp0eVpfPhPHGclzcVScuFKvE65dLSQ50LHNaI2ke7iQPw2fZdB1cTh6VcVKuPpw1g3p8qOCMMcPfq7dyfcne0GSS+K+Xlw4bHFXr5uO1ADI2LzK1iqWSdZDHk9Lgenfc/TXoLF4d8t5ByS1mYspJA9lWvXkhEMLIiHPe5p2WqC8TeH47Hww57FQR143ztr360LemEOkBLJ42D7LfTpcB27g69d/zwd/l3I/3Sp/1XIPD4pZvJz5m1gZHxHH0pKdqBojaJBK+qCS5/rr7R//AIKrYDlOc418ccXJAz40QCfzoWy78nr6enq9PvHf/wALS/Fyjj48VQvMqVm3Z8rFFNZbEwWJY21ZQGPlA6iBoaG/ZQ3hPi8Pk3cmGRx9K4IW40w/GV4pvL6zY6ujzAdb0N/h9EFq8OOUZ3kv6f8A0pJC/wCC/R/keTCyLXnef1b6fX7oWQ8r/aflX9c5L/EPXSNHFYfGed+jsfSp+cWed8HXih8zo309flgb1s6/H6rm7lX7T8q/rnJf4h6DoixlcbhcLDkMjMIq0NSvs+r5HmMdMcbfUuPsP+w2Mhs+KHMbd6RuMirxRTzNjp1G1hYm+0QxjOr7znn6D1PZV7O8hzPK7tKERy+TEIqmMx8JdJ0khsY0AAXSO9zr6egWs8G4JBx+NmRyLY5c3Kzt3D46DHjvHEfQvPo935DtsyBYePM5NHQ8/klqu67MBK6CCKKOKkwD7jpGfed7uO9D0GwNuzrk/ipaFianxpsTYo3OY7ITsEr5XDtuvG/7Ab8i4HfyHvaPE7LTY3jMsMDy2XK2GY8lp04QOY6SXX0IHSfo/wDhl/AeMQcly0guBxx2PibYtsa4tMznu6Y4epp2A7RJI9mkdidgPnF4h8+ilEv6Zkf325ksFV0bh8uny9D8tKyWfFfKTYiv8NFBVzUdxrbBEPm1Z6pift8YkJLT1dII2fmD7N1yLGYmGv8ACRUKTK3T0+QyvEIi3WtFnTpY54l8RoYV1PL4yFsFO5M6tarxjUUNnpMjHRD2a4B3b0HT29dALf4c8pzvJTn/ANKSQv8AgxQ8jyYWxa87zurfT6/dC0BZH4Nf62fhif8AyVriAiIgIiIMm8QuBWrM9jP4SF0sku5MjTiG5HPA7zwNHqT/ADwO++43s6zTF5zkGBmkfjL1io8u/WxtIMb3N7frYZAWEj6tXUn/ALqi+I2Gwj+OZzKOx9X9IwsqmO2ImtnHVZijPU9uiexI779UGT3+ec4yUDq1jLzNhe0te2rHDWLwRohz4GNfo+43pfHjPFcxye2yGrG5lRj2i5dkafJrs7EgH3fr7rR/YO4kfDjHY3J8kjrZCrFZrtpWphFO3qj62dOiW+h9fddBwwV60UcFeKOGGNvTHFCxscbG/JrWAAfwQc+8o8P87x1s1thbdxTDs2oR0vhaSGj4iInY/EEj6jelVWC9enq12+fYneYalaPbpHnuGRxRgn09gF0H4jMlfw3PiPfYUnvA9SxtuEu/9/yWP+H01ODl+BfbLWsdJYijc8gNbPLBJHFvfuSQB9SEFireEGclqiW1lKVe05ocK7Y5JmNJG+mSZpA2PfTXD6n3ouXxGY45kXUrzDBbgLJopInnpeze2TQSDXbt2PYgjXYjQ6kWOeMU9J1vjldhabsVe5LPr7zYJXxiIOP4teR/8oLzwPkUvIsFDNZd1X6chpXXdgZHsaHNm0P9oEb+oKtZ91lHg2yUQcokIPkulxrGH2MjWzl2vyLf4rVz7oOaub/tZyb9/f8A3Wrx5bAZjBsxE9tjRFk6cN6pNC5zmEPa2ToLiB9tux1D6jRIO17Ob/tZyb9+k/utW2vwVDkXEcRjbg0H4rHSV5mtBfXsNqsDJWD6b0RvuCR7oIvw95kM/U/R2QlH6YpRjbnHvdrt7CYf+sdg/wDI+5Dfn4sxSScXgewEtgy1SWTXoGOimiBP5uA/NY9PBnOKZsscX1sljLAfHIz7rtfdezY7sePp3B0R7LcsdkcV4g8YvV36iknh+Fvwt+06paGnskaCe7dgOYffWvUEAKB4Q2oYs1lar3BslrHh0O+3UYJWuc0fXRJ/Irbly/bq5/ieZEb/ADKuRoTCWvMzu17QSGyxFw05ju/t8wR6gX6t4xXGV2st4OGa0G6dLBcdBE469fKdE8j/APNBavFG1Xg4ncgeW+ZdtUoIB7lzJRYcQPoGn+P1VS8HP5fyP90qf9VypvI+Q5/lUpyN1mqdNzYIY67HirVM/U4N2Sftv6SSSdnp9g3Tbl4Ofy/kf7pU/wCq5BOeL/8AoDE/1xH/AIadRXg19/ln9DFf87KlfF//AEBif64j/wANOorwa+/yz+hiv+dlBry5h5X+0/Kv65yX+IeunlzDyv8AaflX9c5L/EPQfnL4TNcbt0m2v1cksFe9TsVnv6CCGv3HJoHqYex+RG/QgnbuCcvi5LQMNlzG5iixguMGm+ez7osxtHsf54HofkHDfsznHKfJuPV6M3SywytBLRsEbdXnETdHt36Xejx8vqARgkMuc4nm+podWyeMsFkjH92u+bHAdix4Pz7g7B90Gq+MEMjsNhpwD0RZN0b/AKGWBxb/AHSonwcswMs8lpucBNPBQsRtPq6OB0rHkfh1t/iro6XE+IfFLLIHCN1mMNLXkOfRvxae0P0N6B130NtPtvthoPIOJ5kHUlPKY+U/eGwQQQfX7LmOH5EFB1As68W7UEfHqFVzh59rJxPib7lkMUhe8fQbaP8AeUHF4x2RAGy4GF9np0ZI7r44S75iN0Tna+nX+aomezOf5JPJmMg1xgY9tOLymObUrlwdIIY977kAk7JJ1/ANA8Gv9bPwxP8A5K1xZH4Nf62fhif/ACVriAiIgIiIInP53Hcexs+SvE9DHCOGJmvMsTuBLYmb7bOiT8gCfZYLyLm/JeRGeGex8Pj5CNUav2YelpDgJXffcewPc636AegsPi5kJps1jscHHyKNFs3T7Gey9xc7+DW6/P595Dwy4jib1SXO5SvFaJsSV6ME7Q+FgiA65XsP2SSTobHbp36nbQzHH5LJ4myy5jrUtaywFokhdolpIJa4HsQdDYI0to4N4g/p2RuKy4jjyhaTWmjAZFc6RstLfQSa79ux7+mtGyZriHG83TlrTUasEpYRXtVoI454H6+y5rmAbHzaex/tHOm7mIyJLHeXcxt09Lm9+ietL6j8wg6kuVK1+pcpWWdde3BLXmb7mORpYdH5/Jc18k45lOM5GSpaY4wlzn0rTQRFZiB7OafZw7dQ32P0IJ6WqTi1VqWgNNs14ZwPkJWB+v7V+LtDH5Gu+rfqwWa7yC6KxG17OoejgHe49igwCt4kc6rVW1m5BknQ0MjmsV4ZbDQOw3I8dz9XAqvsZmuQ5LpaLN/J3pdnZMksjjobcT2DQPUnQAHsB23STwy4G+TrFCdgJ2Y47lno7/0nE/2qw4nA4HBxujxVCvVDwBI9gLppAO4EkshMh+m3IPHxPj8fGsLVxwc19gl1m9KzfTJakADunej0gANb2HZu/dT5REFau8F4Tkbdq7cxQltWpHSzyfFXWdbyNE9McoaPyCsEEENaGCvAzohgijghYCSGRxtDGt2e/YAe6+qIIXMcX4zn5K82Wx7LMsDHRRP82eF4Y53V0l0D2kjfcb3rZ+ff8YnifF8FZfaxVF1aZ8RhkLbVyRr4yQ7TmSyuae4BHZTqII7K4TCZuAV8pShtRt30GQESRk+pjkYQ8H8HBVlvhfwQSeYattzN78p1yby/w20h/wDxK7oghLHFeLWcbDiJcZAMbDM2zHXgdLA0TNa5gkc6FzXk6J2S47X6w/GON4CSzLiaPwz7LGRzHz7MvU1hLgNTyOA/JTKIIzMYLC56CGtlqvxMEMonjZ5s8XTJ0lnVuF7T6E+6+eG43x3j5tnEUhWNvyhY/XWJesRdXR/n3u1rqPpr1UuiAqxa4Fwa7Zt3LWJElm3NLYsSfF3m9csji9zulkwaNk+wCs6IPzGxkTI42DTI2NYwd+zWgNA7qEy3EuKZywy3lMayxYZEIRIJbELjGDsB3kPbvXtvanUQQuH4xxzASWJcTTdWfYY2ObVi1I17Wnqbtk0jm7HfR1vufmvtl8BgM7G2PK0IbIZsRvcHMmjB7kRyxkPA+Y6lKIgpEfhfwRkvmOqW5G735Uluby/w+wQ7/iU5b4pxa7Qq4yxjIPgKkvn168Dpa7GSlpYXn4dzSSdneyfXfqptEERhuN8e4/8AF/oikK3xflfEamsS9fldXR/n3u1rZ9PmpdEQEREBERBivi7i5ospjMs1h+Ht1G1HuHcCxA5ztO/FpGv6J+SeHHNsbh4JsLmJTBWfO6xTtFrnRxueAHxS9IJAOgQde53r21rL4jHZuhZx1+LzK849WkCSJ47tlido6cPb+HcHRxLNeGPK8dNI6hE3J09kxyV3MZO1vsJIHkHf9Eu/7ANNzfiFxPF05Za1+tkLhjd8NWpP80PkI+z5sjPstaPfvv5A+iwSvBfzWThgiBlu5K2Gjt96ad+3Odr0Hck/IfgpmrwTnNuQRswtuLuA59vorxtHzLpSP7NrWuF8Cqca3euSMtZh7CwSMB8ioxw05sHWAST6FxA7dgACesLnWgZWr1q0f3K8MUDN/wCzG0MH/JfVEQEREBERAREQEREBERAREQEREBERAREQEREBERAREQEREBERAREQEREBERAREQEREBERAREQEREBERAREQEREBERAREQEREBERAREQEREBERAREQEREBERAREQEREBERAREQEREBERAREQEREBERAREQEREBERAREQEREBERAREQEREBERAREQEREBERAREQEREBERAREQEREBERAREQEREBERAREQEREBERAREQEREBERAREQEREBERAREQEREBERAREQEREBERAREQEREBERAREQEREBERAREQEREBERAREQEREBERAREQEREBERAREQEREBERB//Z;clipPath=inset(26.67% 1.35% 26.67% 1.74%);" parent="1" vertex="1">
          <mxGeometry x="454" y="160" width="114.55" height="57.5" as="geometry" />
        </mxCell>
        <mxCell id="T1WN3qNW8KuKp51GfZo_-3" value="&lt;font style=&quot;font-size: 14px;&quot;&gt;&lt;b&gt;API Customer&lt;/b&gt;&lt;/font&gt;" style="text;html=1;strokeColor=none;fillColor=none;align=center;verticalAlign=middle;whiteSpace=wrap;rounded=0;" vertex="1" parent="1">
          <mxGeometry x="109" y="285" width="60" height="30" as="geometry" />
        </mxCell>
        <mxCell id="T1WN3qNW8KuKp51GfZo_-5" value="" style="edgeStyle=orthogonalEdgeStyle;rounded=0;orthogonalLoop=1;jettySize=auto;html=1;entryX=-0.007;entryY=0.628;entryDx=0;entryDy=0;entryPerimeter=0;endArrow=classic;endFill=1;startArrow=classic;startFill=1;" edge="1" parent="1" source="T1WN3qNW8KuKp51GfZo_-4" target="_tkoBfJF8qYOiKieuXjx-1">
          <mxGeometry relative="1" as="geometry" />
        </mxCell>
        <mxCell id="T1WN3qNW8KuKp51GfZo_-4" value="" style="image;html=1;image=img/lib/clip_art/general/Earth_globe_128x128.png" vertex="1" parent="1">
          <mxGeometry x="106" y="212" width="65" height="73" as="geometry" />
        </mxCell>
        <mxCell id="T1WN3qNW8KuKp51GfZo_-6" value="&lt;b&gt;HTTP protocol&lt;/b&gt;" style="text;html=1;align=center;verticalAlign=middle;resizable=0;points=[];autosize=1;strokeColor=none;fillColor=none;" vertex="1" parent="1">
          <mxGeometry x="193" y="223.51" width="100" height="26" as="geometry" />
        </mxCell>
      </root>
    </mxGraphModel>
  </diagram>
</mxfile>
